<mxfile host="app.diagrams.net" modified="2022-12-26T01:58:13.418Z" agent="5.0 (Windows NT 10.0; Win64; x64) AppleWebKit/537.36 (KHTML, like Gecko) Chrome/108.0.0.0 Safari/537.36" version="20.7.4" etag="NyBIyHi-sBdhtGeduZ9Y" type="github">
  <diagram id="yKoavlMoUJHtoUj6AnPJ" name="PÃ¡gina-1">
    <mxGraphModel dx="2062" dy="1815" grid="1" gridSize="10" guides="1" tooltips="1" connect="1" arrows="1" fold="1" page="1" pageScale="1" pageWidth="827" pageHeight="1169" math="0" shadow="0">
      <root>
        <object label="" id="0">
          <mxCell />
        </object>
        <mxCell id="1" parent="0" />
        <mxCell id="Vvl3bCppwr_YXA1-rBzf-6" value="" style="rounded=0;whiteSpace=wrap;html=1;" vertex="1" parent="1">
          <mxGeometry x="-70" y="-43.5" width="1270" height="163.5" as="geometry" />
        </mxCell>
        <mxCell id="Vvl3bCppwr_YXA1-rBzf-8" value="Synchronous&lt;br&gt;" style="text;strokeColor=none;align=center;fillColor=none;html=1;verticalAlign=middle;whiteSpace=wrap;rounded=0;" vertex="1" parent="1">
          <mxGeometry x="-10" y="20" width="60" height="30" as="geometry" />
        </mxCell>
        <mxCell id="Vvl3bCppwr_YXA1-rBzf-13" value="" style="edgeStyle=none;orthogonalLoop=1;jettySize=auto;html=1;rounded=0;shape=link;strokeColor=none;" edge="1" parent="1">
          <mxGeometry width="80" relative="1" as="geometry">
            <mxPoint x="-10" y="-120" as="sourcePoint" />
            <mxPoint x="70" y="-120" as="targetPoint" />
            <Array as="points" />
          </mxGeometry>
        </mxCell>
        <mxCell id="Vvl3bCppwr_YXA1-rBzf-25" value="" style="endArrow=none;html=1;rounded=0;dashed=1;" edge="1" parent="1">
          <mxGeometry width="50" height="50" relative="1" as="geometry">
            <mxPoint x="105" y="4.999999999999927" as="sourcePoint" />
            <mxPoint x="195" y="5.42" as="targetPoint" />
          </mxGeometry>
        </mxCell>
        <mxCell id="Vvl3bCppwr_YXA1-rBzf-26" value="Asynchronous&lt;br&gt;" style="text;strokeColor=none;align=center;fillColor=none;html=1;verticalAlign=middle;whiteSpace=wrap;rounded=0;" vertex="1" parent="1">
          <mxGeometry x="120" y="20" width="60" height="30" as="geometry" />
        </mxCell>
        <mxCell id="Vvl3bCppwr_YXA1-rBzf-27" value="" style="endArrow=none;html=1;rounded=0;dashed=1;dashPattern=1 1;" edge="1" parent="1">
          <mxGeometry width="50" height="50" relative="1" as="geometry">
            <mxPoint x="240" y="4.999999999999927" as="sourcePoint" />
            <mxPoint x="340" y="5.42" as="targetPoint" />
          </mxGeometry>
        </mxCell>
        <mxCell id="Vvl3bCppwr_YXA1-rBzf-28" value="Cross-Cutting&lt;br&gt;" style="text;strokeColor=none;align=center;fillColor=none;html=1;verticalAlign=middle;whiteSpace=wrap;rounded=0;" vertex="1" parent="1">
          <mxGeometry x="230" y="20" width="120" height="30" as="geometry" />
        </mxCell>
        <mxCell id="Vvl3bCppwr_YXA1-rBzf-29" value="" style="whiteSpace=wrap;html=1;aspect=fixed;fillColor=#60a917;fontColor=#ffffff;strokeColor=#2D7600;" vertex="1" parent="1">
          <mxGeometry x="380" y="-20" width="70" height="70" as="geometry" />
        </mxCell>
        <mxCell id="Vvl3bCppwr_YXA1-rBzf-31" value="Microservices Business Spring boot&lt;br&gt;" style="text;strokeColor=none;align=center;fillColor=none;html=1;verticalAlign=middle;whiteSpace=wrap;rounded=0;" vertex="1" parent="1">
          <mxGeometry x="385" y="60" width="60" height="30" as="geometry" />
        </mxCell>
        <mxCell id="Vvl3bCppwr_YXA1-rBzf-32" value="" style="whiteSpace=wrap;html=1;aspect=fixed;fillColor=#fff2cc;gradientColor=#ffd966;strokeColor=#d6b656;" vertex="1" parent="1">
          <mxGeometry x="520" y="-20" width="70" height="70" as="geometry" />
        </mxCell>
        <mxCell id="Vvl3bCppwr_YXA1-rBzf-33" value="Microservices Base Spring boot + Spring Cloud&lt;br&gt;" style="text;strokeColor=none;align=center;fillColor=none;html=1;verticalAlign=middle;whiteSpace=wrap;rounded=0;" vertex="1" parent="1">
          <mxGeometry x="525" y="70" width="60" height="30" as="geometry" />
        </mxCell>
        <mxCell id="Vvl3bCppwr_YXA1-rBzf-34" value="" style="shape=cylinder3;whiteSpace=wrap;html=1;boundedLbl=1;backgroundOutline=1;size=15;fillColor=#dae8fc;gradientColor=#7ea6e0;strokeColor=#6c8ebf;" vertex="1" parent="1">
          <mxGeometry x="640" width="40" height="40" as="geometry" />
        </mxCell>
        <mxCell id="Vvl3bCppwr_YXA1-rBzf-35" value="" style="shape=image;verticalLabelPosition=bottom;labelBackgroundColor=default;verticalAlign=top;aspect=fixed;imageAspect=0;image=data:image/png,iVBORw0KGgoAAAANSUhEUgAAAWgAAAGQBAMAAABxCueSAAAAJFBMVEUxYZLu7u7///8BAQEcUYfM0defsMEdHR1lia5qampCQkKRkZEjUFx5AAAc30lEQVR42uydzW/cxhXAaYExdLRoyXWbi0h7d/VxigVFkHQZGdSCx3gluW5yqVcrRU5OtYAaUS+ysDF0rYWmkHSz0Aa2T7URF7b/ufK9NySH5MyQG8wIdUBeYi13yR8f37yveTNxAjr8CTo+iT+dBrqBbqAb6Aa6gW6gG+gG+rcIzf/r8c8/iT8b6Aa6gW6gG+gGuoFuoBvo3yR0kwQ00A10A91AN9ANdAPdQDfQTdW0yVwa6Aa6ga71p5f86xOCjj+Y2tra6n1C0K3vz54s0HHweuf/F5p/EP/pP/p5IXcsve5x93ZZ0IlHTT8qnr3x8fTs7PT83T3U5KD1YUFyvOwFlwcdBFPJm146eIlgwlkvuHG2nwn0/GHgS5Hh+Ac8+WVAA1T+1gc/3cu0IWj9s0B2cLGgPH7w/MuADlr/ld38If9y8Pn+wijHSs+/BOjPFXI7+A+e/lpH+OTl6cd3H9+fCuoTU/8qsz1KPB38XvOqH2qZX74TPEvr0YUga7tJgI45Pl7/STBpT+IjlejKTzlfmHtlCbUlaG8+Y3p1+m5r6/7u+zOZDqdDc+I+nF/6JZAd3/CfLgcWob1WAvjDL4Lgpt7/LB+V/Lhx7gXyIzE0fw3sQQdvuWT6pbt/2BeNb/3jO/rJc98WtPcHusO/ZHf3HyXYfQ3jxNbWzs7WhPDJ11ytbUH7iLX0RvWuP6gfCbXo/qET0uGM73h56i8DO9DeH/Hyb9RybF+AeqpOuiFjDj/CkD1LsL+ly/pWoGkU/j3Vh6nd3We7u7l3HXy3nIh1D8TqOMe7XkadMsdH/Ag7/MRbbkEsQAe/o3HOLcKxGybv+ninaB1ahyGK1QWRjj9MqR0nh32Vx9n7NBZtSBouveJlUNnN43fdE5kfiDJ13XCcn70Z5qidMKITszgWAwvQcygOErNbuLuTw94LWf6sy37kT1P4ncupUUFeWICGC69ygRWgSEWTkfVVKDnLNWFQfJzISxVkxTx0K7Uc7TIUl3ZfpgP85DjS+cPi43Sz8fLcOHQHRzjQu47iCHvl0Sboryd94vAzvPxF+h4NVk29t4nWDZiC2V2H00Pl6YiUp3g+7Kcj5o3hJMAHXwh/zaigHBfuflN52nGvoqRKb4JeAYh60TcLDVZpESWpZOpKkUSZPpU+NSnIHErFKLR3nQ8UjaCP4tPXmAbaoZE6lI6FAAzIc7PQJ/EltYJ2mFch6EStS89NFgTE8oVvEtrng7utliQMw2mtoGO8KziUpaMBbOqyUWhIsx7H/950tNoxdCoO1lOLGuxTYBK6wz2Lq9WONquCJryhVNRwj75BaG+DVFpD1dW+h/wLKY9m0K15PhKNQZ+QO5xUw4xp34NglaWixlEMKmgSep+stFpn3V4d7UhEXRqw+Mz7ZD5MQbdoHPpMK8BJx6kp6rJpBO06IZ9oCnqeXEuFwRvWgkZRl7SfxR9ux/mtQWjwsT2dGQaSFqsFjUItPT6oV+xeVg1C3yLjsalV6ema0GjfhpKnvkXexVTVdIPyCo0Pr2fwshC2+IQwEufoLqaSgG1y4vpXPnTqHp5El9YwvzUJfYIWT6O0a/VVmg/FQXkkz1PIbgo6jtDv6IwHYMzUh+5K9COGbpuF3kczrTEeMA5rawcG0MUX08U4zyQ0melp7Tgc1IdG/zcsQftGoX2K8Ta1Xq7+OKTvF5KcLsrGIHSLqs4DnT/02QjQkkiFoA1aD/Ding76bs1oSRMTWoHWJuIjGY8EcSCBXjYHPUvQrs4xT47C7IRe0RjRQDQIPUcjxNWp6OZI0OUAi6BXjUKv6Lw4G9F48FDWLXzQgqkXw9Bq+xDVTLUKPxmUPeKiUehlHXR3RIsni2Up9hgBuiqe7lRAr48SLmVKnbOSawhtMEckaDXX2ohmmv9GlAJY7thI3Zm4LGi44cyo0EXPT0nAi8uDPqqfa2VHPteBa3SMFmvmqqFH8i04BRk7pNulHPHN5UH3M6HBZGiVNwyd4+Pjw7zrh2tcN1rLq4LucZvrhmz8+NAN9VJ+lraWCaMXrhGnzz3T0H4FtBtSb4Gfm7AtfpcJDSyCGFwPa70G69OzFdAeGIJ0WlY9LZfOYCSOguUigZOFFYPQ83pouKGbzBjjMaPSEPdpbuI/bwH3jc4EtCtiD4Aez3UiqCYbo3w3DiuE06sGoXmarPETfpTvnlA4SKx48N7PPPQ6RqaLJudc9ElAJDTIJq0mA6UiBcGD2MCEztUc9BoGeXcMQkPdQxMyZ+986tgJHexGkLt1iKL9Q7TlLBKheejxwuA8oneBld6BJuHDt/1naF1xw26gMOpUD4uN+WFI1RkmnpkbbfKzTi2vXwndHobcQ48pXgvYxja209xkBeg+evGeydaJt9piTZe320DT0vjO/cMwUhR+MV3BqcSAUhUmPs4GzQkbg97AtolJHTTvBfOwTaUvV2r4Ik01xzLOQTOUzIpR6OvaAiTqMDHTmByMyY0eZjjJ/Pia+GARlmaXjUJ3sNQ7o4HmvSkEfVuRfyEnn73IZw7kWxaNQs/hBdtq6ATRxcF9LZK7ojF8W7EfesCSP4SiPArGIPQ8ViTqQF+hliCpK3KJ02Vg8cDI3RbPzCdNbqag29qIKecmPFQBuc0b4zVuVsgc8I+5pI3VFLRPJaYa0G60dd/N0gKZpMvpDn7/FlZmTba4aYt5eYeMXrEvNdQ5aPG5aL52yXBf3gWKYVi3KqbIz3PQ4vUi9LrLhqFPdMGHxFaMyaBhlKZWLle0XMcUYNEw9DaOksnakpaXb3JOUPzRXcHimYO+jvZoWpO5SNxIJbSoTfPme0076McVLlFildelVl2srkaCNYJx20lXQBjrNY2N6BdqP16G7kr9uKhHoslh9C49wwvOyCW2aktaDi0Ovqgg9bdUPzAJ3dK6xDJ0JP0ymLlNyTfIeHxpGpq7RLeupCOp/3SFoqMADbbG51mt0V5TbWoreRx5xCQUHUVobjxML6KExjxPVxhwKz8COqEtRHgX4NE7VHw0C72tyxIl0bP8tXSFb2aPxTChWzK+XBX6p5XNE1FtaGHOQngXXR55GF9jq0u4JNOIrjy8Es1Hxr/Gcy3j0LPoXdqsMjTVQ/fTQCr7Bs7Ogcc1Dt3WeJcRoLM0XYDu8bTFODTvEHBrTtgqoIUp8SwJ4E7cwrrx2FAvqQy1xGczBXQ2JZ4lN1104ss2oDWGWhZoaKp5kwXotSQDMA+9jaHjpqKA22Z1PCKhkglKJx/TcWhhhf4tMtTMURSO6nhEHmawXBqZjEMba2zn1GnA3fLnkWq2I2tKTdLILJg2Dz2vNNSyhDBSxbEs6WhPf8X9oW8Dmnp1ZCSyekFXZdMzpebvB7vdaIrIwspPpaHOVeW0OWJOqflIgKeYp9kWC9AXqoha1oSgbltJlXqdoMGid2gm3wL0NtZrNmtBa9pWWNJmyl9GxCtidqCvq+o1MugjZZEE1KEtQJNrWbW0gUMH6zUS+cmg1S2RqNRuCo1dhXxNnwXoWVW3ugza00/gDTJoL5tAtADdUgWnEpOn66dmvM2UoCOaO/MsQUNng9zmlUukXc30f6LUa8kcF0xr+bagT1TBadmN39U1D63RVfBXokpbgVbavJJR1vdT03wuWUVRpa1Ak82bZtWZCwRu6nXNcJZkPM24Svd+BXS9QFYZ55Wzce1iDMD1GdmcK8JMrZVtutoY58l0tcjY1bcm4zJAbBSHQdnCy9qCDlQLuOD+kwX/oevyxfAUGuwHjAL15xahLxRL5dxC04Hb1zfM4nk05V1upS1Cb+PlN6WeWZQs8yp6T+H7wIvdLKlK24HWmQ/xBVSuL4LvP43BYQ1XO1VpO9BzqpDJya9qgna1yjZkj6tIJ1VpO9BK84FGgElqXxpLDYNxjTqNPJvQ3HzIo49MIYQqo6a1HX7RD5JrWoS+UEUfXbETz/Uql+pQqxajgPexXUmrzAeuahIn26qW6mAn5Mw6jw3sQiurTPi+E1Gva5cQZ12Fk0do8FYCu9CzGH3IBlmUtfJWj0P+YNd66MMXfbvQLey/khZs+mmbW611fszLEs+JrCHYtwDNkxdZ7SNrKCxGItqeZDB4yY2+OT3vjdDVWzeQhR2kFB2ZKGrYKY3VWyRM9sNPDN7EN7hp57LpJMCniTm5I+fbXQWtvZqLhGkbI1jo+Orl2atkW+qFv5iHnphTjsS0Bx12RfSh+apCP9Z5BlfYudcCNF8x6FY0+/vP9twK6vBH0o7i0TcPHY9ERUh9FOSP1lBLTTt2tbJdcc97wdQF7blmGtqj8GZS7uK+z1HrloK6n/FrPnqyv/Dk4PxeUrfHTWZMQ9MUeXn3pytYgvqbSK3bZox5gew4wcqbaegJKuiVolOEgJ1LhDVOmn3GqI22fGxYkTS0Ba2WlRpNAY2qldM3CcKmNkmUHbfsQHsUnW5KjG6HjymAvtELdL4cR8AeK6GT8pmHpjnQmXK9MeCWAF5EK4TVCtrVz8FXoStS42NuWzF5E15HsosU7uI4xwUNjdubzNXuywSLgmFJGqOlif7W3jDiz23BuWCDXkmpIz7yF/g+kTAEdRFIOiPjkueEpTG9tLXcAnRA3Qhi+IGOZV4IHq4x/Z4OYhXexb718Igbj0Ur0B6t0xHDD8ZjzIVkL9+hfqqoPN+BPh23Pnluumqahu13cvqBRrfNlaOfWA13TJ2SF/rYXb4fK+zJ17OQBGSKN5m3dxu0476XruqrDx3yZa5t43tACn/uY/jRzq2r8fn/6gTfcqhpsM+gaUFrPASTfZ5hJD+2Bb1NZm0oerdYZ/6dnKd9bVmgh279j72z+W3bWAI4E7BBjiEdO3l9l+z2UY6sU0rYhOWL8iAbvpqO/Nz0Ust2mjanmGiF2BcncANfGyEx/HyqhbSIc2qMvMLRP/dmZnfJ1Qdl6yvZFCLQxktS4o+j4e7McnYGF1IWC1fj9diUZD50hgQ9JVKH3NLCL3ktyQ4vMwhT0rOOozhzSppLS73PDBsWtCdSBUl7iPq7bJId3ttLxptbnafyGgzZaBgJhpMmhmAdJ2qAu09nYjkL218456nq0QKdqQkLYHjQYzIfDoqa1oFnlKCZ8rKE25oq6WZrWpaAeecMDZoSQpIVVyzQGk/o71zhidvSn5WOSZqkC02qIYsBzfAhQmO4Cq2jWbWou2I0sCfIKj02v9ZhTj0x71T9omDg8dN6k9I6a7/wJEHfjmcNVCL9VIeLlnlu1zdLK3WtrsqL4VaDyknDqCFOiE/sQb9bKBRVovp0nV6kufSm7fWQS1jR4BUmglYLCVf2gWhfuonljpL2WmtZDRkaXzjHLx2oh73T0vFObaVLeqEFOl/mw4YWNVJeJyZDg4rLW9lKfxDnE/NbIL/vZX66q9f/0gMV1KyququGDXYfp6vHPE3Pn4hnkGZq2LBCJ/SmnC44ooc/ai09IwbNa+kuIihYyMZLoq7Kxa/bF7Qo+yC2aWFL7yQa4lWFg5siaZksNnR599ftC5rFpb6CMNNYWUsWK+og6cvU5bgfv2JwVkH/plU1235zePhHMpWQJulnNJfEPkGZY0m6o/3dsKVLGqHH/OBTQAvSHd20TPqwG50SPojkVvlPAc2496i+xlVhoW+1ImezoZiH6hBtut59lPdAoKmbTwTPx89Exxv8rpbkpkk6pCUizITS3fDf+KOzOmXq6ixpFzvyGWZGvXFXs1Y7JTEhy9AU6KTZUdIFsRjHVOhCB3P6jonQX3eCxmXAjmnQU52gF8Syp36hu7Wnz212hJ6PEx/0c6GPD501Fzrl9ZYwp8vGQWc7QNvCMg1NhE5PUnE5Tqrz+UALy9TnxkGLpMy3U9fJLYtMQCZCZwrplmneSOjUtF7SMjUPOtMJmizTOSOh59KgC8IyNQ9ahIV4hQ6WqZHQsx0yJ3Dx1tcwaNYhL4+YM90yD9rtkNx3QS3I7xN64Pa0DLCw0428Y8c4J0AG4reF/rfKImAgdFoGJGnklQ2ErqYmBZTTj6GB0KepSQGFvdTDotrhQ4u0TRspo/gpzZkaB71MTuC91FE8byJ0eiZDLXm6adBfpaYwEXnIp02EnvRTUphg54Fur4nQU2lr02Su2GPHQOicWJOw0dbGO1XxKIZBZ8Qr/+ttw70jlaPSMGgvpRwrJULwVY5Kw6BRml+3KjUFZE2qzsOwWVOqLDDdJqS9LFR6q/8LDQP6VDyJjT01BWR5SYSLadAqzkk39ERs2aQvU+ubBz0lI+21yi5FUT1FxZoZCJ1REUPfSepikQp50NqBF4ZC02KMUFAXCxhxvBbHXATcVGgMXRFqsLJrWXHEMe7+yVhoCghpiYQVe11ToUk/5pqYKUisx+XLHwV6uTUe6x8yptRcaBHa9KvG/KOIH2IGQ8sFtC8V8rc1X0V2Gwwto8ievIfG+A8yYCgfMqOh9eC9OLopZI7Z0GptVDPzYKAHb08LNq/ayPx2gBcaFnQTdf5P/jlAw2/5g4qf334fl2wzHBqbK4cnJ4f/E/HGnw20/hx9VtBDaI6gR9Aj6BH0CHoEPXjoYdnTw2yOoEfQI+gR9Ah6BD2CHkGPoP+W0CMn4GKzZLS3ebbSaOiJh/tX9/cfLDUc5Wxlf9faf76kzjYKemK3KDaZn0sc5SuYTcoWL6Tlyav7Tw2Bvol5YmxKI1S8Eh/lD2l30RbJxsTJG8W7ZkB7tiUy8uD/RU5WfN+1WkRaa9cq4h9rTEBbhkBvFOzC8yUXdq2CtDFXJPzpThQt2I2P4jiKvBD2DA3bwKG9ooX5KkG2Dqb0opA35jD4a1E9lxPwW1xhvUvaHfA7B1wNCpyqj5M1iph7DYWrekDQeqtY7hLa/U8l3t6U2WCh72E2sri5QfFjjNmg3cmFMG3ZAusSejlQb9EiPyizgULvUZ0d1bxdoDJc8M8Vrp0MNwFa3SV0Jc68HURzfKDQNlGqJhOJ9TZAz/WTQV3sS6xL6OiF44yPj5dKj2pBnApvINCizE+T4D3SBv1k6BcXu4dW4vVq0fQwoTfwScQqS00dwD1ZMrZraIoX+DLIn8PhVS6evR2EiiGyydHruEYAH86mk0W1qI7QTaYqqYdssiAKO5u5HoW7XtAm9kioydHrxYLj7skE/PrJtnWXuRvWPLuoE7CuQfNqdE7CQC/oA/rm/j7uu9xy8gaoeVfQuqT5afRigNBOwbqkN+EvJ1OQSbT1k0FvnN4lvRwdDxLaxo6i8agoztZ0MuwMe5f0WLQ1QGjQX8ttOnpN5VfUT0bx9y7pryR023CCi0FrJ2Nf9rSxgAvsWmz9LPaN/Ura5aUHpfhHBANyZVMZZV5wB20evFBpE30ll8srsVKJbme8tOSqC98G02it4f4BbaENlmVf7lOn3cwBpRCWT8/EAcbLbGN4j1c/C+bq9T/hZAqieRKyfx6Gjlcv8x+hjSFBH+Dfyit5YTArpOEcQ+9Z822w9qxL/fUerkrDtUMfzkRxgkyMeK1A846Kb/Tz7g3/nZP1tzBQOmCOCmPakTeMiWeLheehDn23LfQXvGdJ16Kyg2vx3tTrB5SzDeP9g6NNsEswr3fWD4IAoYE+OKqfRf5vkwCd84+rflCpOPx7PHnlA32UUjHuFSmZ+tVNFVO2Z11qgwXAvFdJ54KAuUBGkV73/cDlDotEDmTKmcg2Vyo/l0pLMAjNovS8al5Av/Z3QrCUc/FHMXM5fq23K13ExV9cTtBybOkPWpf0ejDDQLSvOTXX/S3u5IJpMSxkg+n4QYSbo1/czfgHEUK/ofTq7jp+FE+mrJD0tWx1F71X9Gw38ZhtXR6MpNXz/Y0PN+CBgMXRjD/LnSkq0YnNaFZ1ee6yjD933PUAoQNMtwk3E+FH8eRcMKcujMHrRTFj8Bw+YA9I0m8PYTs6Ojzwozx3sklPXPVd5wYtF8NmNYihq5EainMSOhTaNaOCS2uBfuFxkdq3+AsDnR6IpGPHBfytd5i7WYmWg766GrSvoFmUV1/NIoIW7RtiER+ePAZf1TB8gLgtcFlSHsS986Bb3K0YOnjJHZC8q45mQTOnVDZ/t1RCExl12gvmmBr9TqN3qAxMmOZl9c3w0cZIVM5WodO+i3isNU4Vb6U7J+Dt4Rlsh4f1JUrNm4+PZuDZywYzai6LK+hckKwhWwZooVHQO0au+mzGf9ziI9+E8VHIswUaNb1Hd4sG7VpSDssDYE+mqlceFEJn/a34q8dI0o8JuppPJnYr06yNc26H94SH2IRl9QYdny08cmqyCkj5NICxRkaPSkln5QJUh/S+rG7Crc2Ceyy3ygxrN3fz7Do4sS1Y6C30Bz2TNPEGxDAebL9ymYKeaoAGScsHsBZpschzrdDotdwqWK0LQckz6AOapKskTVL3ZI7KJ26iHs2SFtBRJWqAFsaRxmFZd8HeL7dgkWcwIEkzNXmz8gFzgv7E2qlHpEl6Vn0LbEsAbTdB29a8J2cQGtJJ3kM3fUA67VTipM1s5SAIXNV7iLIVSe8RQ4uTXYe5oExc2M4aB4relt2HDk0eej/QDb1HPHcD/WwNxnihHhmtyzvVJC17DzEq0ozjYiv0hnwSNQxGS/n7ga4GcTMXZ4DHweUG9BHSYNIGlxpJWvQe60H8zV5pycE1ty3qwa9Jpe5usuYc6PUoVE3oJfh/T+JBDnpjAY2WheoQAk3SY348Ik76jx3+L0qV0fggohN7qXEuD3wWrE/RD/RkXIXHRX2t+g3QpB5wY2rR/VSQSJpuUnIsgwUji6MnHAwnasAFW3SbJyAXWH/QubjeEQjUBZ0NY3NCqQd01HPylVS1kkgarFrV84DWhA6ufp/XOTJ0E+iis6ap3mdOf9AcjGIhrSyoLgzTymCaRBuICVfAj36lNSH3/Q+apOFnka+CcsEsTu7bDW8CUJ3Bv8HXGHrib49E3yc0WfhwYXSwGPz+c4IDXCzwH7lII7fuB68c7nzjz+LgoiQNv8DPoqs5xTV9yJG8cyHbA1OzggrbXySrYPh3Bfvpua8vWjyX48YJl5zvv0RZ/4Urvh0vkrV97lMThuqXpTXXwxW/2zD+vZOOrZzKgZNj91LOe5RjI2q1ICzmTBFfKSo6fKdITtCG8tO5/u4qzXNpgna/9/3tQ8yv/wK/i1r1sz9oZTiYn+iNuzxXkwb4DYLekt7Xl1gK4OxAeeP48i2erQF7Gl9juVS3twh+LoOnjz0sitwlCH31gb49DDtA+03Q8eTFa3HhA20BGWirmPfg7Ozk5GiNO5M6tMP/Euf+Lu//Jr3m3HSccfRc7AUhPGYD9dXNklN6sEsLzRddgv5/e+fv0jAQxXGQDI7mQbvfQRxcO4hOGYK4NtDMFWogXR2CbkopWaU4ODt0FlFQ/znfXXOXH1oRm5QGvm8plzTpJ5fLvXvfvss5QcXu1kP3o/qqTOR9pHzzX/MfFskyTVNb7L8/PlMh16maFqPQirkJ35KbBzs6V7Pf8z/0Gd+sDqbW7XX0BHN1UTPdxmny7d0x66HJxENFcMabCj1Oq8puKUoomXIo/HiWj5ViNCwVxTgI7DphF8LKpI7Z6vi3qo2HPAAJgj/X9I9FqqiGrqgW3Si20OxAq8dSRXElFdGubH9Yqh1vnLcFNZd/4jtnRFFcs7DRHCZ6GRhNlRbH4vcvS9mL59n80nTYZm8vzrJsJc56+hElWbNmE6+0fzcSwon436mo9HHgn7efLXZk+zgdiG+eDzbbE61Ds5fOq2mhpJ3NoQ+p/ZqWT/krBKaDU+pMMiF7vuvPN6Vh34vOQBvPxwOkLqVtJssr7fo6lmvKvQZJd0vQDSVHEMlmM1p2Km0T0IAGNKABDWhAAxrQ24Bub9TbgSAA0IAGNKABDWhAAxrQuwSNIADQgAY0oAENaLYvsYpPT2p5WCUAAAAASUVORK5CYII=;" vertex="1" parent="1">
          <mxGeometry x="690" y="5" width="31.5" height="35" as="geometry" />
        </mxCell>
        <mxCell id="Vvl3bCppwr_YXA1-rBzf-36" value="Database PostgresSql" style="text;strokeColor=none;align=center;fillColor=none;html=1;verticalAlign=middle;whiteSpace=wrap;rounded=0;" vertex="1" parent="1">
          <mxGeometry x="650" y="50" width="60" height="30" as="geometry" />
        </mxCell>
        <mxCell id="Vvl3bCppwr_YXA1-rBzf-37" value="" style="shape=cylinder3;whiteSpace=wrap;html=1;boundedLbl=1;backgroundOutline=1;size=3.6379815463362775;rotation=90;strokeColor=#FF9933;" vertex="1" parent="1">
          <mxGeometry x="782.5" y="-22.5" width="27.5" height="77.5" as="geometry" />
        </mxCell>
        <mxCell id="Vvl3bCppwr_YXA1-rBzf-39" value="" style="shape=image;verticalLabelPosition=bottom;labelBackgroundColor=default;verticalAlign=top;aspect=fixed;imageAspect=0;image=data:image/png,iVBORw0KGgoAAAANSUhEUgAAAgAAAAEACAYAAADFkM5nAAA97klEQVR42u3dd5wdVd0/8M+Z29v29N5I2RQIAQRDCQiIgIpAkKZIS5SOoKKoyw9sCCIgVaoPgpTQu0BCAoH0ummbvimbTbbdXuf8/giRkDtz95aZvXvD5/168Xp8Zu6cOTO5e+c7p3wPQERERERERERERERERERERERERERERERERERERERERERERERERERERERERERERERERERERERERERERERERERERERERERERERERERERERERERERERERERERERERERERERERERERERERERERERERERERERERERERERERERERERERERERERERERERERERERERERERERERERERERERERERERERERERERERERERERERERERERERERERERERERERERERET5EEYXKK+EDRKnQcE3IFGdZzFRCKxHCq+Ix7CtK26EvBLDIPA9qBgMAUc+RQBoBvAJ+uIDUQe1K+pNRESUD0MDAHklJgL4D4ARBhUZh8Qf8E/cLvY+YA0n62DFDvwVwDUALAYVuwQC54lH0GBGnYmIiAplWAAgr8QoAJ8DKDehnn8Qj+JWM26AvBKPA7jUhKJ3IolJ4gnsMKPeREREhVAMK0niPpjz8AeAX8lpGGN0ofIKHA9zHv4A0AcW/MmksomIiApiSAAgL0VfCHzLxHpaIHGh4aUK/MjEOgMCU+WVcJt6DiIiojwY0wKgYBRMGFD4FRK1JpQ62tQ6A04oGGryOYiIiHJmTAAguuAtV8BlQqnm11uFx/RzEBER5ci4MQBERERUMkonABDmTAMkIiL6OiqdAICIiIgMUzoBgGQLABERkVFKJwAwKRMgERHR11EpBQBERERkkNIJANgFQEREZJjSCQCIiIjIMKUTAHAaIBERkWFKJwAgIiIiw5ROAMAWACIiIsOUTgDAQYBERESGKZ0AgIiIiAxTSgEAWwCIiIgMUkoBABERERmkdAIAjgEgIiIyTOkEAJwFQEREZJjSCQCIiIjIMKUTALAFgIiIyDClEwAQERGRYUonAOAgQCIiIsOUTgDAPABERESGKaUAgIiIiAxSOgEAuwCIiIgMUzoBABERERmmdAIATgMkIiIyTOkEAERERGSY0gkA2AJARERkmNIJADgIkIiIyDClEwAQERGRYUopAGALABERkUFKKQAgIiIig5ROAMAxAERERIYpnQCAswCIiIgMUzoBABERERnGWuwKZI0tAERE1A09OXOm0x4KuYb37TGwLRhr/vZxx+0sdp2yUToBABERUZHV1dUpp5/93QsTieT54Ujk8FgsWhmJ+m2wAI27mgAAM959HU6HI+ZyuLa7HM7PFCH/etTEo5YVu+4HKp0AgIMADwryxZ8/IDfNP1eqKbsQkJBSlcIqhcOdhJpKQrF8+Z2MBqywO1UoNlUmEwkAEDZHXLV7WyxOz3bYndvg8DbA7vpQfPf2+mJfW1Hu56aZTsx57m25Z/1YmUpahLd6u+hxyPninL90u/sh3/nzZNkw60l0NPUCREqtGrjKgo5TxVWzgsWu21fqKaXAC9c/KzfOO1nGAk6hSlUCcdQM2awc9cPLxFEXd7sf8kwaGhocbeHA2+FI6LB4IuGwWm3JLy40ZbVaY3abbavH5b573KjaF4pdV91r2NxwdEt7x/3RWHSQqkq7ooi4RSgpoShhq8UScDnt748fNf5XQoiUWXVYWr+0NhSL3tPe3nHClm2NtkyflVIiEo06ItHoUABDAVz43uwP28t83geXp5bWTZs0LVHsewqUUgDAPAAlTy558Rj52I9+hlQCYr/tIotj9/+MAgyVwBH771dvGZSUPUbsUGoGvg2rr05ccO+uYl9vl1jxYZ2c+8SU/e5RlRz9recAjC921Q4k13/yElZ90Gvf/69sX3EMxp/5VwA/LXbdvuLlX/5Bznzgh8CX3zsBAM3rqqW/aTaA8mJXMRfBRPT2rTsaT8zwkd4Anp+/fOF3jxw/6aJi1/dADVsaahs2bZoTjkQsGT42PhiKngZgrNHnX7B8+dBYLPzMxm2NR6uqmnc5gVCwIhAK/rq/c/DPP1uy4HdHH3bEnV1w+zIqnUGAwpS6ls71HwyaNx2HlEmBb9t2q1g3a6Cc+6/p8vMnmtR7Tt4gX7jh28W+ZNO175qYtq1jx8BiV0tT69bqAzfJeKj7BSprZ56tu3P7irJi1y9XiXjs0Gw+t23nzguXras/qtj1PVBbu/+BTh7+AIBdLc21DQ0Nhv77LFi24M6dzdsamvbsKujhv79INOrY3rTjLx98Omvz58s+72/SbctK6TwAVfQzsjhZBysA838oBQabfo5SkYj07JLzxCPA2plD5awH30ndc/Ja+cLPhhf70k2jJp3p1x/tni17iXD6741W/YtMRvwZHiLGPAS6UlJVs7rHqqoi6A/cV+z67k9KKfa0tX4z2/qHkrGjjTjvkiVLKj6e98mGLTt23BxPJEx5Trb7OwbtaenYOH/poh+YUX42SicAEJgsp+Mww8rbiUvRNU1553XBOUqDlF37fVNTEGtnHqIueG2NfGba9GJfvhmkqqb3oIhsOlW6B9kdO/YSsdL5XTRYm79jopSy23yB6hvW/CAcCWcd0ArAW+g5VzSsGNYSbt+8u7VlqNnXF41FbTuad770+ZKFPzP7XFpK6YtuhYrn5PTC+3jkNPwAEnd1Sa0lzpLTcKs8F502YZE5RGCXRc596iH5+IVF73P7eus2z5VOainjujslIEvlQr5gESLrMCsai1qXrVp5YbHrvE8oHMxpfIiaShUUANTX1w/csbN5Zbvf3+nLoRACNZXVGDpwECaMHocjJxyOI8dPxGFjxmP0sBGoqaqGRen8EZtMpcSO5p0PzFu24DLTb+gBumdTob6RULFQTsPbADZAReYRnwICQMV+WxQA4yDRtf1cErejEpfIKzEPQLca8XyADgBL4cEr4h5EuuysFhswfQYw5Mj0fYkIkIgByTgQDwGhNqB9O2TLFojmtcDGeUDr1s7PoaYgF824WT55UUj85Jnbuu6WmksoSrd8ic5B96u+QFR/n4DojnXOQOb4DQlFQ1cBeKbY9QaAQDD4jRwP8eR7roUbNpTvbGpcFggFM3aZOB1ODBkwCIP79YfL6dL93Gjs7ZbY2bwLGxo3Y09ri+5nVVVFU3PzowuWLNhwxGFHzDLlZmootQAAAByQOAtAicXhGPbFf91fCI3ySpwrHsW8Ljlf/wlA7ak6Oys1t37ln751C7BoBjDvGWBHhtlvahJyyeu/l0/85L/i0ifndsm1FUGpRwTFJqy21RLQHDciXZUAmg09n6yrU0RdXbcZXNAR8E8svJTCrdmwYVJ9Q73mA91qscpkKpn2BFAhHPmeL9raPKfd31Ght18IgWEDB2PM8JGwWrN7dCqKgn69+6Bf7z7Y2bwLy9asRDii/W6VSCaV3f6Otz/55JNekydPDph8e/fWrytOQiVnAIB35PQuGsBodxd2fNUg4OQbgd8sAi5/FqgZov/ZeFjIbYvfPFi6ZLTe7kR3zZqpMTZBKEr3q2tz488B7WZz5ajzXzXqNLL+Bbt87qp/SPFyh5mXI3LoAgCAcCRiX7p6xRlm1ikboXDHz7W+3y6nM9mnR8/ZRp5rcf3S3zXtaR6nt99us+O4I4/G+FG1WT/8D9SnZy+cePSx6FldrfuZcDjkUu3KB0ZeWyYMAEhPJSR+3TWnMugZIAQw8Wzg1/OBw76v/7kd9ZX41tl/6pprK4ISGgSIbticLh6JNQghj5fAPRLyKUC8CIgXBcR14rx7zzLkot+oO0d9vs4vP37kKuzeUPDAtXxUVVTu0dsXi0WuLkad9ucPBr+ltb3cV16vGtjMtXr16uodu3b9Tm+/0+HEcUcejeqKqoLPZbfZcczEo9C7Rw/dzzS37D5y/opFUw27wAxKsQuAuorEKV1zHoOfAc4y4PLngMcvAhbP0D7lthU/lcAvS60/l7qGeCg5B8Ccvf+fscnl5Ku/vUB+eP8zItohAPO/gHoPywpf2WNSldPa/O1p/Wz+YOgYk6uV0ZqtW/uuXr2sRmuf1+1+OhKNfs+oc7VHgy9GY1HNFkGr1Ypjj/gGfB7jYjRFUXDUhEmYNe9TdAT8mp/p6Ag8BMD0zIxsAaBMehVeRDZM+AkUCnDJk0CfMdr7d2/04uFzL+2a6+tqpdQCkFvzdKmTM2da5dIZT+CLhz8AiCLegzKfR7O52R8M+JavXj0u1/KMEg2235TSSLxjt9lkucv3kGJQK9eqDatG7NrdfILe/gmjxhr68N/HYrHgyPGHwWLR7onsCHRULVy++EbDT3wABgCUSdc8ScwatWZ1AOffr3/aaMdBGQDkOuq765RSYGKStvcuR9O6rw5UM7nLJtM4C7fDpTkdWkqJWDx0UzFuEQD4g0HNrpaKsvKNQ4YM0Z2lIYSa080MBEIPaQ0mBIABffpiUD/zEvX5vD4cMlg/1UBHMHCzaSf/AgMAKj4zH1jDJwNDdGZ9Nq3uFqOdjZbroK+uI7PeeNAK7knPVCeK9zNcO7J2fpnXF9LaFwiFTs21PCM0Nja6OgIdg7T2ed2eF4EvFmzSlH0AsKxpmae5Zc8UrX1CCIwZPtL0ax0xZDjsNrvmvraO9t4LViw5wczzMwCgbsDkZ8DRl2hvb9/plL8Y0LfYV1+YUnqrFlltOsilL4ZR5EGbZV7vZ1rb2wP+XitWrOiibsAvtQb9V8Xi8bSbYrFY4HN4/gZA955Jac16OmVqj/htLB7XfAb2790HHnfeKQWyZrVYMLi/fitDIh67xczzMwCg4jO7yXrk8fr7hkw6rtiXbzilmz5VS2t2gjkUy4b0jSZ3AXQSYbtcHs1+MlVVkRCJ67vu5uwVDAc1VySsLC/fOWLEiN0Zr1Uks36m+UMdP9LbN2Jw16VsGTJgMITO30Z7IHCsmedmAEDFJ03OgdJjGODVnXaTa6axbiY9epJqd21V16hXd81ZYBarIz0dXJEDowmjal93u92a6Y+D4ejZuZZXCCml6Aj4a7X2ed3et4w6T/2m+t5t7e19tPb5PF5UlHXdis8elxu9a7R/n8KRsGvRskUn5lhk1hgAUPF1xaC1Sp3FJJPxAcW+fKN13zEABCk10swWv2Wkwlu2RGt7u799WH19vT3X8vK1av3ac7QW/xFCwO12/G8tD7XABYui4eSNKZ3lffv17pNjaYXr3aO37r6YmrrBrPMyAKBuoAueV17t7FtSSluxr/7rQmo96OTXLFhJxdM7lrNYMMZsLrfnca3t8URCiYvk5V1Vj0BIe/Gfcm9Z+5hhYxqMOk84HNbNI9C3Z+9cijJErxr9xECRcNi0tWuK/80j6ooWAN1uBrXL3m66TDfta9fsi/7atVaoBea9Nkd70+4n7Ta75h9JOBK+pKvq4Q/6NR92ZT7fR0aeJxAMaM6/c9gdXdr8v4/b5dLNN+APBWvmzp3ryrHIrDAAoOIzewwAAARbNTcLYQnlWFL3UsQpZMb4uj3/kz3TtsVDQhbYpJ1JNnkhpkyZkqyqqFyjta8jEJjQFbdm3aZ1R/kDAc0Aye503mPUeVavX31MOBrRzILbo6rwdL/56lmjmfgQqVRKWL2u88w4J1MB08FPqkDLFu19Vus6w06z/M1KbPz8AkTaxstwYBjiwX6Qcm8LQzRgk4o1Jl3lzRanZzvcVe+gxvucmFIXLfC0Gjp/q5ZSWvH2Hdekmtadp4Tb+slQa7mwOWKwu/2irNdKVA95XJzx29eNr9uBFel8MSD51h2D0LFtOsLtE2Q01B9StUJKCaujSbh8KyAtL5TC6o6yrk6Ru2enL7KTjAOv3vpDAM+Zcd5sx4R43I5nAdxx4PZwJGJfvmr5d8aPGf+2mffHHwxoZr7zebyRQ0fWfrL/NkWn20Rk0fwViUUv0ttXXVHd2eGm6VHZAxu2bNbcl0zGvw/gKaPPyQCAis/sLoAdq4BIu/Y+VV1eUNU/fWoYNn/+d3XHqsny8QsrENNvUBB7/xv+xdWeC7vn8dQ9p2xQeo38nbjgflN+/NPqu2mTE/Pve0beOuL7aNls2fcz+sWvpg9AjQSGAviu+uthCTH8m++hvP+V4uw/7iz87Fq/zfqtP/KVX/5Cbpx3k3z7Dz2QSmh9ZIwETgRwXeo3IyLKgPGvIx6+Ulz7jh8GkP+edrds3XYqYiGPtLn8Ss2Q68WFD87s9LgP/jQU29bfLeOhgVJN2kQiYpWATba82B8NazXXmpdzHv136sGzbhOKpRVSSlhsdogvnnKpuAWJvW+sEoBwVXSIQeNvECf/8nMjrnMfu7Tfa7Pabk8kE2n/UOFY7GoApgYAgVDkJK3t5T6vodcZjSWO0NtXVVlh5iVmVObTTzmcSCTH5FBU1hgA0MFvtc7qmooF2L32v/kUKec9fYhc8e4M+dKNYxHx5zeOOx4SYu1Hw+Xaj55V755yh+g96mRx4UMbC75evSQpH9xzofrvcx8T25Y6syqndYtNzt9yBnw9tsl/Xf6k+NFjxg8G03g7lf+9+xty5buvyffu7pl1MS2bXLJl03nSU3OO/OcP7xBX/KeukGrJt+84T75e9783UgFA9p/wIoCaTo9d/uFHWDdr0L7j9v+/usJtQix/Y0Sn17nvHB07XwVg6Gi12tra4Ox5n25tbt2TloUvGApMNvJcB2rY1tB/Zf0azddvl9PzwIHbCukyiUQimpP8hRAo8/jMvMyMPC43LIoCrdkJkWjElIRlpd6BSAcFk1sA5j6pvb1mWJuoW7cnt8IA+UbdH+Wrdaux8MWxiBjysgk0zBkql766Tv7f5SfnVpnsmk/km3V3qG/e8UzWD//9BXYrcu5Tl6X+evx2OeN6U+dIyTfqbpTv3/0p1s7M+uG/PxHaY5GLXvq9+rcpC2RdAS84gT3fTNvWsTO70WGtW8wfRu5vynqkWi5/XR6P+xWt7R3BoK++ob42h6JyEuoI3az14HO73IkJo8fOyL6kzh9pkVi0TPPaXW7dxXm6ghACXp2BgOFoxPPIwkcMn7HEAIAObivfBZrWaO+rGTA/1+Lkq795Rr7zp1vQ1mj8305gt0UufeMd+filhr5tyZd/9U/57p2/EdGOgsoRGz7tK1f8d7184br8kqRr9dvulwhIvnrLH+T7d92NQHPh93bdnEnSPXlF3kGATKb/EussGpN+TZ2PayiYkn3K21y4FMedWv3rUkpEIlHTFgcK6EzLq/CVaXbRiTxnujQ1NXli8ZjmU77Ma/yqf7ny6dRBVVUcaj9iktHnYxcAFZ9ZYwCSMeCln2vvEwqEcNyaUzXf+P398t07L4TayfrwvUf60XP4IuGumgNFWQkpk7C5+yMWOFa2bD4Om+b30unTBkItFrVx/puyDjWiDsl87+j//sfbf/yFfOdPlyOpkehNCKDfeGDENwGbG0iEgQ2fAY3L9GdmNK11S6EslC9cM1RMvT9jWtbsarr3YSnfuO06+f5dv0ZCZ0ykzbU3pXPfsYDDC7Q1Aus+BprX65e98fNRcuRJHwEfGpPuOduHTvXgbdi9Ybgh59RT1qsl248qOUy1HDNmzM6P5s7e3drRljYxPRAOf9uMS2lqavLMX7lkoNY+l8v1ZK7lZdIebD9Ur9HM7Sr+DE1PhjookOMBfJZ9aZ1jAEDdgEkBwCu/0n1AyP7jtyrXvL4w6xoufGGcfOHGq3Qf3EIAQ47aIKoHXiEue3YmUK/1qfsBQL5Vd5y67tPnxNqZmv16omlNOcaf9Tjwyo8LuXz54X1nyrf/+GckIul1nTQVOKMO6KExHXrXur33brlO5tWdq73S1+sTAIUvlyaElB/fd5h85+6/pdUTABwe4OSbgJOu2/u/D7TyXeDlX+q38qybfax85JxfiGkv3YlCZRkAiL6jz5XA0xJwCItVlWoyrjjL9shIR2+sm10LVSOuq+iTlD1HNgghYv/bZrHa/jcQ8AsyGbfA5gwqPUZdC2Q3fCXXrHk+j+fd1o62iw/c3u7v6L24oaHHxE7y8eequb356ngiffEfu82u2qXln1rHSDW3ZX/3iaWSulManY7ce8eMZrPqt/KnUuooo8/HAIAOTrP/Ccx8UHufUKBUD/w5kPXzH+rSV18V/ibtHx2rQ4px3/mlmPbiX7MpS5xeNxtAP/nvn86Qnz7xA60WBbl5wQ9lHS7rtBVAc+EfAVk/0ytf/+XzCO356gdcFcAVzwGjMqQX73UIMP1l4KN/ADNu1m4NWDfrEPnUj28Tlzz9+6xvonb9rXLe87PQvj293bn/eGD6DKBqoP7xY7+9t2XgiYuBZW+k75cSsmHuHbLuqIdF3bwCB2xkGQBM/ftSAJoPGvXhH3yIpa+n3Xxx+IWnK+f++f3s6/JG1p8UOTaxeTyuO4UQFx/4ppxKpSDjwesB/CbPG6jJHwpfoLW9srxifW1tbTzX8jJJJZO6D9HuHgBImRqaQ1FZ4RgAKj6juwDe+yvw/DX6+4cdM09Mf/mlrKu3+oNDxMp3tP/4hIAYc8o12T78v3LohQ+dLSZfrj3X3t9kR+9zbs73FsjF/3kLWxZ/NXtY1SDg5tmZH/77O/Fq4MKHdXera2bdIh85M4d2U40H6MYFx2DjvPRBWaNOBG78MPPDfx+bC7jiP8BEnXVrgs02WVX1TL738n/3tNACAIjyPq+lb1SAmlMNzXRXiDHDx6ws95VpBkvhUPQcI88lpRQdHR2agws9HtfzesfpjQFQO2kZSKWSug9Rp8Nh5KXlxW7L1AKAHjkUlRUGAHTw6NgBPHY+8Nqt+kFFeZ+YsKfOzKnc1e/fhmhAe9+Ib84TP3vlgZzK29/5//g+Rp2k2aSqBvdMzavMUKsP8//91X5vTzVw9RtA7xxb7Y/5MXC09qqpon27DZayv2VfmMa/Sbg1/Qd7yFF73/ydZVmU+QXFClz0CNBTZybdxnmny7rhORSocb1GpC0WVu18Ciec0AXpMLNX5vXO1tre5m8fvnDhQsNGo9evW31eJBZNG5RntVilcJXn8N3KTjKpVurtsxZxBsA+tgwBgArVk0NRWWEAQMVXaAuAfxfw1h+A2yYAi1/W/5y7MiWGffNEce2cnPow1a3Lv6O5Q7FCJNWLcynrQEIIKcaf/hNY0v/wRfP60fndjybLVwbTCQFc+n+5P/z3mfr3va0HGuSWRRflVlgnynoDP30ZsOcxIMvp23udisYPedSvoOfYPxta1/xoDHSQQHdYEnA/PrfnLq3t8URcsboclxl1nkA4NF1re2V5xfbDhgxp1ztOb1yDomSegSGl1H3Nt1mL3yOuZBhnkkomDR+lyACgayUBPAEFU5BCtXgUItv/EIcLEiMhcT2AxmJfiKHymdLjbwLmPwv88zzg1hHAW/8PiGbo4nVXpcQhJ04VV/4np5Sxckf9QLHpc803Rzlw4lrxi9kFr1AmTrz2LRxyQnpQ4m9yyJt65TUf/iuOnw6MPin/4x0e4PTfau/bvd4jn7r0lOwuNIt/53P+Cng7zbWjb+BhwJHna+6S21deLAt50BqxyJKi0YogzQ0ARB7TEkePGP2xz+PVnJIRjhq3OFAwFDhSa7vH7c5+kMN+OusCAKD7im3tBgFApn8oVVUNXxCo+Ff89bETwFniUczL52DxFKIA1gFYJ2/AowjhCQA/LPZFGWLXOuDD+4C+Y766uE0yBkQDe/8LtwHB5r2j+retBFq3ZF9+71Htou/IyeLK5+uzP+gL7n4BWB0SseBXf1hqhviViqrcuhIyEAPGvylX//cnaTsGf+ObwGuv6B7YWSIgTzVwRmHj9AAAR50PvPF7oH17ehXCe34JIIcBbDoGHLp3dkKhTv45MO/f6S1LLZu9eOTsH2HajKfzKtfMVRZXrep2L2PlvrL5gVAwbQple6DjMCPKX93QcHT9+lVpDzVFKLDZXBnH1OiNAVA6acWX+9bmyKHMrpTpz1lKGN5HwQCga4QhcJp4BMuMKEzcg4g8FxehEuUATiv2xRUsldg72txg0tszpYw49lmEtk4TV86I5FOGqKhok2/c/u3UtmW/F+HW3sLh2Sastnex+OW7xB0NiXzK1NRv/PMA0gMAi3VwQeWedD3griyoCAB7+9i/ecnerpYDNa74ZjZFyM5ev4+dVng9AaDPGGDYMcD6T9PrEG6/CkB+AYARVJ3FD+x2E58++Q0vcDldDwNICwDCkYh96eqVpx46eux7hdQqGAlqLv5TUV7WMmHUqE2ZjtVLBayqmb9iqlR1WwC6ewBgBgYAXeNuox7++4gXkZJXYjqAtQCKP3+lO6kamBDDj31J2Mumi4vuLzhXrzjzt+/DiDfcTI684BP851ogckC2PiE7WZ80w4ujzQlMvtS4Oo47UzsAaGt0yKd+fJK45OkPMx2ecRCdqxw4wsAVT8eerhkAYPvqQ+Xed/k8fmlNzPDn3N3tWgDGj6p9flvT9n9FotG050QsHrkWQEEBQCAU1JyO4vV4P+zs2HwHZEoJw9PpGilTAKAoBgxCPbDMYl/w14CEikfNKFg8iq0QeKfYF9htWJ1SHHXhA+LkH7nFpU9fYMTDv6sIIULS1zP9VU2m8g/SR3+rsP70Aw04dO8gPS3xWEFJi3Dk+dqJfvJVe6r29mCzDQ9874zcCtvHgDdEoZNicVdL8V8/D6yqEGqFr2Kl1j5/MFRQuupVGzcOave3awa3bofjrs6OL2AxIN00nqratW/fuTKjegwAzNcoHsM200qXxqaGLGnJqJBLX/+ZXP75XPnkBYcWuzq5Ei5fepeCVPJ/MNQa3DskBFCrPd5Ptu84tqCyDz3L2Lr2GwtU9teuqxqfnmNpX1y/sVX8ClekW/4We9yOf2lt9wf8ZUvr818cKBb236xqLP5T7vWFxo4cu6Cz45U8m+stihLT25dM5Zt5u2tYFcW4LscvdMsv3UEm59XmctRc7AvsVmIBgdUfHCGXvr1YPnrOQwWN+u5i0uY29g987KmFl3Gg4Tpp9ZtWD8j7XrsqgOFZDSPIzSHHa2/37z40r/KM+CZJnW6EQNy832KZf9Oxx+Z50G6zpS/ZLCUSqejP8ykTAPyh4He1tpf5yj7N5vh8UwFj/1TLB+geAYD+ZSkWJa9xTJlwDID5zE3wISDNXk23S/Qa4Vd7jlirKLYUpBQyFnQLxSKgJpOq1ZkUUK1CTbqRiHvRsbMaLZsdmjnV94kFhVz86nR515Qj5E0zj8ivz7drCZvTuLSnvUcClQOMr2TvQ7S3h9ssePis8Zj+SoaxLjo/brWnQCsPQsF66WR9bdmS19TKApag71wk0S1fxkaMGBGbvWDuhuY9u9MWNwrluThQfXO9d8PyLZrNM26H434zr8cihO5DNJlM5VKUKTI3bIiw0edjAEDF56pICX+gt/W217OOcOXMeyqwe9NN6o61PxbrPu6vFwyI9XMOl/d861Pc8MExxb7MTq9J6xVaUfN7MPQ1ael2vUx7AODwnQTkMdh1ZJapiXOll/go3GaVf5o4XNyyeH0uxQkjBmHpJapxpLplAAAAXrfrxWbglgO3t/nb+9TX11fV1ta25lJeskW9Jp5IpH3V3W53fNzocW8WUleBzFGaUPTfolOp4gcAmVgsSsjoMrvtl46+Rsp7dYh7tuXUvCWm3NAupt53q+X69waI0269SPY/VD86XjvraPnIeYYuYNJ96Awb7m34wmF7eaoAr05K8ljkyNwK+8KAQ82pa69D9PdVDzs99wINaAGQOkO5LLZu21XlUpx3Wy3pj4pUSkVMJm7ItbxgWHvxn3KPb6nZ16Io+m/RyWTxuwAy1cGiKDkFWlndj2JfMJEUloJCb3Hmrf9WTvzFAIw6SXc8hFw78zb5yJkGDok3+B5IaRMdOzQyDnbyJ6rXZtir8JV6dfXQXk9FRjoyRx1adbXazWut6DFMPzOMqo7IrTAYMwZA1WlFiHXfFoDRo0e3VJZV7tDaF4qEz82lLCmlaPe3a6a49nm8j2VdkM73XiJzK42iKLppwJPdoAUgntAfBmRRlB05FJWVbvulo68PI/JviGOmtoqTfzUMgw7XjvDDrRYkxSPFvtZ9pJR2+dHdE+Qbd1woZ9z4Z/nQWRuwc1V6l5ya52OnerB5lXeXa2+Ph3PPONRnzN4gwAxW+94BhlqS0f45lQUUNJjuyzJ0WgDs5gUAQil8/IvX69Fsmm/r6Bgxc+bMrLuSV65ddWEkmr74j8NuV1uadj+Z9TXpbs/8a2JVlO16+zI9fLtKIkMLgKIIw2eTcQwAFZ80ZqS+qJ0SlB/de67c1fCW1roAcuPn35PXDHeI+9fH8ig+t0ua+4IL/o0nomPHcQh3HKb6dw9D1F8pIm0uhDvs8mq3glQWPzj5piczcv7/gRxe7e2JcO4T+Sv7mVdPAHB6gVBL2maZiPXOuSwjIlWLzhiASLzbdgEAgN1hvVMRypXqAWkM4om4Utmv36VAdrlOwpHwFVrbK8or1h476WjT2+CFsG7V2xdPRHMpyhTJDL8JimLblENRWWEAQMUnjZsoIU687m31yR+vwLx/j0vbGWq14LATrgbW3234JUip4O07fpzaueYyZfeGcfK5S8v2X5Gvy3/dPVWFl6FHL2FPLJQxI6XmIEdf4WsdZeT0aW9PxCpyLsuIAEAv20ysewcA40aM2/Dhp7Pa2vwdaa08kUjkJ8gyAOgIBo7Q2u51OZ/PpT75NmnYbRbd9UCiMdPfCzoVj+tPBFJVscTo8zEAoOITxj4fxYgTrpKLZ8yGRkQv/c2XATAsAJBznhgqN372kPzdqCnYvcHWLfrUFAvgrjCvfL2HajyS+1w+swMAh3ZdizYn1KLTjWCT3eKrk0mZr+yDNn9HWp9/m79jYjbHr92wdvKKdWvSFv+xWq2yzFn291zqkm8mwFQstUBRFGglIeoOAUAwHNTcblEUTBw7do3R5+v2Xzo6+EnV2AnWYvJP5mDY0e2aO3etG55baTp1XvxCD/Xpy+aoM27agM+ePAW7N5iTY1zkcW/cVV9dVdFoTs3VkSHzWHYWzvKcD8mtfO3uCqFYcm9uzjP/fFaS5gUA0oixCwDcTodm4ByOROwrVq04ubPj/eGg5oyBcl/5jmHDhnV0dnxWROYEQbW1tXGXUzvfRjBs+DT7nPmD2jP9nA5nLN/1DzJhAEBFZ8YiXKL/OO0FRYLNNnn3qRMKKVu+84cb1Bm/3onPnp4sonkuN+Cu/PI/W4aW83zGRzgNzKmvWSftLhthteY+jFo1eeS1Tl1lHv1OhgSqepkArWa2ABjz3Kg9pHZemden+YQKx2PXdnZ8IBCcorXd5/G+Yd61p3PanZrBRiQaQUo1N29bJolkEtGY9jgEp9O5O8fissIuAPOZfY8NXyO6qxndAgAAGHr0Q8B9Z2vu83p/DODG3Ar8otnxpZtfkm//6QcimwFDvUcCwycDNcOAir5A1QCgot/e/211fPk5NQWsfAd45FyNB1bm54KA0OhUNrk7OandTymFNeOvp2YinWwGQhYipv1WJxVrzu29pq4Wq1i69RiAfcp8ZXP9wUDa274/6D8u03FrNq8ZsmptQ9r4ASEEHE5Lp4v/pB2n5B8vuZzO9QDSkllIKREKh1Dm9eVRauECoYDuPqfD2WDGORkAmC/30ca5kOhb7AsslCm/fIed8zFqblGxZ3PaL4Xq331SPkXKGb94GR/+/fsZP1QzBDjhKuDwc4DyPtkVrFiA8WcAfccA2w9YfE2m8rg9Jvdw6wQ/wu7KHBVpPUFVswMA7R9Vi929PceSjCF0UoOnSqM11uV0/QOARgAQLFu2Zs3ICaNGrdU6LhyKaC7+U1FW3jZuxLgNudajgNUA4bTb5gI4Wmtfa0d70QKADr9+AGCziPlmnLMkvnQlrre8EialZQMATCm8iOKSML4FQAiRRO/RmgsxibbGnMcByHf+UIdZD3xf9wPlfYBL/w+4bRVw4jXZP/z3p2jE4/lMA4wGcz4kJ0Ht9a2kszzzwleKPb29P7DL3Lr6dXJD2Rwbcy5LmhhYWbr/IEAAmDCq9nWP253WBCSlRCIRuUnvuEAocqbWdp/HOzOfeuj+VcjOx6HYXK7X9Pa1tbcZfs+y1dLeorvPZrU9Y8Y5S+JLdxDIOV1mNuQ0TMBBEACY1fYpqgZprmWOtu1ueX1FRbblyPqZveXcf92q1/SNYccAv1kATJpa2OC7gEHdfOF2cx9Wfu2HtnB5M79VW2zpAcAew6c2fykZ1w1WAKzNpSjDpHTGHqRMHQNg6JehTCdlbyAU0Eyv3NDQUNbe0a6Z8MHjdP7d0CsSna8SOGbIIZ+4nE7NwSctRQwAdrdqZ/p1OZzxCWMmrMyxuKwwAOgal8lp+I6RBcqL4YHE0zgo/g1NWmatZqD2QECpAiNPODPbYuSyGS9g9wbtsRaDDgeufkM/P37WJ5FAMPcAQAqRPppdTQIBE1eJ7mjS3CxsrsxNuTZHenv/ns3m1bN9u36OiWB77k2qZgZViWRJjAEAAI/H97jW9vaOjj7Lly9PzxOQilybSKYv/uPzeCO1I2vn5FMHvRaAzjIB7j1WyHJvueZ31R8MIBwxfNXdTrX7OxCJap+33Fe2zqzzHgQPj5JggcRLchp+ZERhcjoGw4WZAAoazd5tmPXDOnTyC7ppZlOprJYylc3NXqx8S3uxeocXuOxZ/cx4uWjfpju4LhNhtWmPctuTewt3VhKRDG/tlo8zHSodvvS+ibZtumMKCrZd56XJ6VMR+CDnVQvN6Kr6HyWfsR7Zshj6B9bW1PyE3WZPi6xSqoqkBdcfuN0fDJ+vVY7P61uQbx30xgDILH9MvB73W3r7tjUZnnK/Uzub9bvC3C6HKc3/AAcBdiUXJJ6WV+JnkPgXBJZDYBcUZDcPSoUPEkMg8B2ouBiAM6vjSoMpP35i+DHrU3ccnhDblqXN0ZfhtsOzKmTxk79Ca6N2oPyt64CawcZUtnG59nbZSdOwYtXuOGxaBww9GobbthyaSy8rVqBh5muZDhXuslYAX83Bn0oAmxcAI441p65aqgfvFr9tK858L5Eo6UGAADBlypTkJws/X9O0e9eYA/eFw6GpAH6/7/+XUlrenvm+5spUXrcnq+yBucimBQAAnO6y+y0Wyw1aSwBvb9qJQ4YMM/MWfoWUElt2NGrus1ltUo2q95t17pL50h1EjoLAAwDmQGIdUtiQ1X8SSwG8AokrcHA9/GHmqHXRY7j2X1br1oFZ1Wznqu9r7nB4gON/ZlxFN32ms6OTP1F3uXZqU93yCrR1qfb2miEBcdeuzOuV233arznrPzWnrlt0XjDLeq3KpzhT2+gVpWS6AADA43Y8q7W9zd9+yP6LA61ct/qCSCx98R+n3ZEaN3LMc0bXS81y8axRgwdvqq6o0lxcp83fjo5Anvk98rCjeZdut0NlRcWaSZMmmZahiAEAFZ0peQC+IKoHLNTc0bHTJX/et/MVc9q2DtLcPvEHxi24IyWw4IX8ji3rN09z+4a5xtTtQKvf195e1b/TfkpR3nOxdl0/Mb6eiQiwdpZ2PVxl/82vUAMCVavOKHWLmb/FxgfYdmm/12a1pRUci8eVql49Ltn3/+su/lNWvkoIUbysOwCqysp0Vwddv8WkLjQNGzKcq8ztqzPz3AwAqOhMTbBSM0xzGVNICQw/6rudHS53b9Hu4B9mYJP1mg+B1i06N6eTUc3HT5uHir7pP6RNa4FdBucOiQaA1R9oV9NT9VKnx/capX1wwydAvhkV9aydtTcIOJDVDrSsftjYk+VAbzGgEuoCAIDa2tpgZVm55sp6oWj40n3/uyPQob34j8f170LOLw1YQbR2ZO1f3C7t2QCNO3YgEAzkWmTOtu3cgT1t2qP/y3w+/6G14/J8M8hOSX3p6OBUSFKPTo2b+hrcOsvUp5KndlIvq0jpJIyrMCj/klSBV3+jv7+TPABCCBW9RmnPdVvc+TM5Jyvf0R6wZ3VKbF/5j06PnzT1U83ZEokIsPS1Tg/Pid619x7dJG5Zkd9cLyMGq6o6LQApMwcBmsPjdb+qtd0f8E8EgLUb1x7rDwbTuittNpsUVaLz74vJhBCJmsqaWVr7VKli2Zr6HEvMTTyRwPK1+ueoqqjIOUNirhgAUNGZ+csnqqv9sm+tZmYcGWzpbBUzm26q2oRBU4Vm/xNoXFrYNfYapj2V6vN/GZtrf47OmK3+4xpFXX2n2YeEEBEMnqgdrCzMaTXYzIK7gUXaAYCo1JkaWmxCmjaux4xFZADAY3HdqWik5A2GQ476tfWT/aHI9VrHVfrKt07oPSHUWfldoUdZ1UVOh1OzK6K5ZQ8aNpvTFSClxJJVy3VXICz3ef2Txk683ezrZwBA3YC5qWtFj6HabeGtjQM6OTQKd6Xmj4NszHkWWbrNC4AZN3dya7JoHek7+l7NfpTdG4ElrxReTwBY9zHQoB1niKq+WTc1iH5jtQcRrJkJdOw0pq7v/kW7pUKxABb8Nd9iDWmpUnQSE8TChqxSqc2crvZRo0btqPCVayav2NXa8mpHR/spWvu8bpfBzT35GzJkSFPf3r11o8+V61Zjx66mXIrMyrI1K7G9Sf/7XllRc0tXXD8DACo+M7sAAIiqftrDzP07HfIPo3Vz9gohJCr7ab7ZikUvII8F5b60feXexX+Sha9BLk64do4cOEm7w/LdP2tP28tFMg68pBOo+HoksWPRb7Iua9ixf9PMzaAmgY/uK/heYOcqYLZ2S4UcePhmMf2VvCM3YUigGtd+mkTbSzKnh8/jeVdre2t7W3V7oCNt/IyiKLA4fXkHYfsIAxsOe/iqLvN5vZpJOKSUmL98MbZs35ZrsZpUVcXS1SuwcesW3c/0qK5ZM2nshAeNur5MGABQN2Dy4jX9x8/Q3Vc56nsZjy3vo/2Xv2sdMPdf+dVn7Szgbydl98ab5WAnZcgR2oOFtq8APrg3v3ru8+ZtwDbt56YYcuRrom5z1pl8xPgzFsnab2tnWpn1INC8Pv96xsPAExfrBlVKzaC6wm6EAaY+vEMrAJItW7POTNmdeDyuO3NZrqLcV9YyYcQIY56mBhkwYECkf5/e1yo6KwyqqopFK5diSf1yxBO5J+vaJxAKYta8TzM+/B12R8rjqTg1h2ILwgCAugNzB0Ades4c1AzWfl1X46dkOlT0OkQ/eJhxk362OS2xIPDC9cB9pwGR9iwPyvJPdPCRN6JqgHaH/1u35z/XfuaDwH/v1t7nrlRhk1flWqQy7js3ay58lIgCT1yU3/iKZBz45w91/z1kv/G7xeXPPZ3fTdhXSOFfUwFI+HqlDyzZ8Pkh8s3bRxd8gi42ZviYleW+sqyncJR5fHlOwcxWfo+02uG1jwzqN+C9TJ/ZtG0r3p8zC6sa1iAczf472u7vwMIVS/Dhp7PR7u/Q/ZwQAn179fj1pNrarVkXXpS7RWQkM3OsAxBCpPRWBpTBlkMzHnzot++V7irtfdEA8PeTgWVvZK5Ay2bgtVuBW0cAsx7S7DqQfUYHMGhS3nPhxDcu8ovxp2tPrUpEgIfOAjZ+nn2BahLyzduBl27U/fcR479zl7ji9ZyX8xOTL39WjvuOdvPH1iV765p1gASgrXFvUFWv8/ttc0ml/8ROp3x2zqDvaa9D0n/gI+1CNsx5Ty58xJZHiUVV5vXOzvazTof77mw/m5/811SYWDvhtD49e2Vsgoon4lizcT3e/fhDfDh3NpauXoF1mzagcecONLfsQXPLHmxr2olNjVuxaOVSvD9nJj76bA627tgOtZMuw749e797+NjD7zT3/nwVUwFT0Zk6DXCfyoErAZyYtr21sV+mw0T/o1pSj1+8HAueG6/5gVAr8Mg5QP8JwOgTgYoBgLNs70I0bVuAdbM7bdaWVQPjyuhjJ8ptazSS+uRwb3qdfRmGLP4eNs0vT9sX6QDu+RZw+m+Bk64FbC79cjbMBV64ASLT7IQRx68Tlzz9yzz+JQAAyhE/PFU2LlmqmWZ5zUzg9onABQ8CYzMs2ZCMAwueB17+JRDSX0pV1J72rPjJYzlEP+YSlX0/kEB6rtm1Hw2QAhvlm7efIs747WoDT2lqhO1xuO4BcEZnnyvz+kLjRo1amEWR2VySGUuIy4aGhrECSv2O5p2d5gLuCPgNyxjodrniNptl7YJli59OqmqVqqYqVFUtU9WUN5FMelSpOlPJlCORTNhSqZSSUlVht9lSvXr2+vVR4/MPGhgAUNF1xQRoUTPwA6kVAPh32eUdYweIW1c26h2r1J50qVzx1sKMyWq2LdPtJ8/I2yOljDtjiph633r1nm8Vdo1TpiTlO7d/XzZv+AihlvTbmkoAr/8O+Oh+4OiLgKHfBCq/iH+CLcCWhcDiGXvHDWTSZ3SHqKyaXFBdJ01dId/76/+Tr/+uTnOqZft24MHvAf3HA5POA4Yc+WXmxZ1rgMbFwGf/B/gzj9CWo05apEx/4aKCbuz/CjPoOVrd6xb4elyBwG6N4Oej/nLT/PrUP85cp1T2/wiuquWw2loRj1RDxkek2nceqzStHicGHzFTXPzYacZUqDC1o2o/em/2h9FAKJhxKmO5z9dtgjA9I0aMiEkpRy5aufS/W7Y3TpEmt07uE45E7Ju3bbsul2PiiYSlvb3jVgAMAKgE6Kb+7II/ssHH/gsO7x8R0xjUXz3iLGCl7hB08Y1LFsmXfv60/ODeHxtap8r+CTH2u6eK8+/7Im+vViiU2zrx4rTfzpKv/upq+dGDDyCuk0I8uBv47z0A7sm9zn3HtIkew0aJS1/Mfe3iA+t66s23ydd/21++/7fLdWdDbFuuv6hPJ+SIE9Yo7e8dWWg9jSbO+HObfOKil+X8/5yj+YFYUIiV74yUQNoiOvu+DNJRfgQKpAjkP6LtAD6Pd0EgFMyYHtPpcD1k1PkyXFXBPyZCiBSAE1dtWHVd4/Ydfw2EQt22WyaeiLkLOZ5jAKjrKJZ2ze02l2E/RHrEyGO2y4GHa7/CJ+Indnr8OXdfIo+8cHFnn8vaoEm7xYTTx4oL75v55f3R+HNUlJznCYrv//lBcfzPpsFbY+wE8KFHbxBVw0aIn77SbFSR4ru3XyFOvek+OMuMq6dihTjsrLeUAZVjRV2ek+CFJe07KY3MWb11+HkYPnl7vofLcKsn288mE0nNYec2u9OwVHdejzfjinUelzsxYfTYGdmW1ymhaI7CU4TSbtQpxgwbc++k2sNqhg4a9LLb5TIwo5ZxCk3yxACAuo6wzIZI/8pJT7XxmTY0KCMn/13z/MlIZwmBAACWS58+XBx3xeuwOvKvhLNMiklTnxXDBvQRP3zgqwvo2N3pD3sh1uZzGnH2nx8Vk684Rg47pvCHtbsqJY6YervyiznDxdWvtBRc3oF1PfO268RZt58qhx9beIdq9aC4OOaSK8W0F88QU1/M/0fbW5XWDyJ8NYZlrxN1daoYeNh4jDwxr3mPIh7KuvU24Pf/88BtHpc76bY6XjfqesaPqn2x3Femmzy/uqrqzVzK64zdZk0bIyGEABSbobMMqqur/RPHHHr2uGGjfSOHDL+rT49e2+w2e9f0C2TB7XK3FnI8uwCoy4jTbpkl/3X583LTvNMRDTikYk2Jin6bFU/5eV1y/jNu+718/gaHbPh4GkKtbqgpRXpr/Ep5379kXcYFD31PvvWnb8u1HzyJ9Z/0zjbVrvT2TCnDj/4Q5T2mifMf3qxZ9sgpV8tAy8PYs7EKQlHRc/gaLJqR95rp4vu3zwPQSz53za/lloU3YsvC6pz6sasGxMTgI16BsFwvLns259H+OdX1+Kvel1JW49Vb7pLrP/0JNn5ellNdqwfHxCGTH4crdIOY+nDhLUq9Tn9UPXzdj0Xj4glIRC3CWx0WQ4+5BTCuEUhMvacVwAj51KV3qes/uUrs2Zh9OmCrI+vg5pQppyydu2T+yh1NO8cCgN1mU3v37HnTkCFDss7fkNUtq+59psWizIjGYmUAICBgsVjiPo93QajFP9XIc1mS4uaayqoT2/wdQ1KplHA6HMmayspXDxszxuAVsPYaMGBABMDNAG6WUro2bN5wajga/nYkFp8Ui8UGJFNJVyql2pOppDWZSilSqjk3FyVTKahqdg1WNqsVLqcrWlNRnfdAXMCg8VfyCpwBgTcKL4m6mZh4FKblKC918o26iWjZdKvaun2iaN/WC6E2G9SUAotNhbsyKt2V7UpFnxVwVb6ITf98Ku/maKPq+9w1hyEauE627zxaBnf3FMHdXvh3WWGxS9gcEk5fCpUDdonyPkvgKHsFlzz2lOiSARoadf3vPT/AzjU/Udu2TBRNa3oh2GL5X34Aiw3w9UzB1zMgeg5fgIp+T+Dcu54vVl0Nud46KBg+/TIZaP4hWhsnINjsQ2C3Hck4YHdLWOyQTk9KKLYEynu3igGH/0Kcf++zuZxj0erlh7sttj5qhTqrtmdtp2s3lIonZ850/mTKFEODmWKSUtoAeDv5WEAIUWCKTwYAlBkDAOo25OoPqtG4uAr9Bm8RtVNNHzdCdLBjFwARlQQx+lstAAwfg0D0dcVBgERERF9DRgUA3XKKBBWsqH3WRERkHmMCAAU7Ci+EuqHGwosgIqLuyJgAoA9WANhY7Ishw71a7AoQEZE5DAkARB1UCFwDNhkfTLYghaznxxMRUWkxbBCgeARvQ2IqAMPShFLRfAYVU8TjKCjLFBERdV+GL8Qmr4QbwCkQGAqg2y6iQBokQlCxEI9hXiknVSEiIiIiIiIiIiIiIiIiIiIiIiIiIiIiIiIiIiIiIiIiIiIiIiIiIiIiIiIiIiIiIiIiIiIiIiIiIiIiIiIiIiIiIiIiIiIiIiIiIiIiIiIiIiIiIiIiIiIiIiIiIiIiIiIiIiIiIiIiIiIiIiIiIiIiIiIiIiIiIiIiIiIiIiIiIiIiIiIiIiIiIiIiIiIiIiIiIiIiIiIiIiIiIiIiIiIiIiIiIiIiIiIiIiIiIiIiIiIiIiIiIiIiIiIiIiIiIiIiIiIiIiIiIiIiIiIiIiIiIiIiIiIiIiIiIiIiIiIiIiIiIiIiIiIiIiIiIiIiIiIiIiIiIiIiIiIiIiIiIiIiIiIiIiIiIiIiIiIiIiIiIiIiIiIiIiIiIiIiIiIiIiIiIiIiIiIiIiIiIiIiIiIiIiIiIiIiIiIiIiIiIiIiIiIiIiIiIiIy1/8HVTm4tgHHbRYAAAAASUVORK5CYII=;" vertex="1" parent="1">
          <mxGeometry x="840" width="72" height="36" as="geometry" />
        </mxCell>
        <mxCell id="Vvl3bCppwr_YXA1-rBzf-40" value="Broker RabbitMQ&lt;br&gt;" style="text;strokeColor=none;align=center;fillColor=none;html=1;verticalAlign=middle;whiteSpace=wrap;rounded=0;" vertex="1" parent="1">
          <mxGeometry x="782.5" y="40" width="60" height="30" as="geometry" />
        </mxCell>
        <mxCell id="Vvl3bCppwr_YXA1-rBzf-41" value="" style="shape=image;verticalLabelPosition=bottom;labelBackgroundColor=default;verticalAlign=top;aspect=fixed;imageAspect=0;image=data:image/png,iVBORw0KGgoAAAANSUhEUgAAAgAAAAIACAYAAAD0eNT6AAAACXBIWXMAAAsTAAALEwEAmpwYAAAtQ2lUWHRYTUw6Y29tLmFkb2JlLnhtcAAAAAAAPD94cGFja2V0IGJlZ2luPSLvu78iIGlkPSJXNU0wTXBDZWhpSHpyZVN6TlRjemtjOWQiPz4gPHg6eG1wbWV0YSB4bWxuczp4PSJhZG9iZTpuczptZXRhLyIgeDp4bXB0az0iQWRvYmUgWE1QIENvcmUgNi4wLWMwMDIgNzkuMTY0MzUyLCAyMDIwLzAxLzMwLTE1OjUwOjM4ICAgICAgICAiPiA8cmRmOlJERiB4bWxuczpyZGY9Imh0dHA6Ly93d3cudzMub3JnLzE5OTkvMDIvMjItcmRmLXN5bnRheC1ucyMiPiA8cmRmOkRlc2NyaXB0aW9uIHJkZjphYm91dD0iIiB4bWxuczpkYz0iaHR0cDovL3B1cmwub3JnL2RjL2VsZW1lbnRzLzEuMS8iIHhtbG5zOnhtcD0iaHR0cDovL25zLmFkb2JlLmNvbS94YXAvMS4wLyIgeG1sbnM6eG1wTU09Imh0dHA6Ly9ucy5hZG9iZS5jb20veGFwLzEuMC9tbS8iIHhtbG5zOnN0UmVmPSJodHRwOi8vbnMuYWRvYmUuY29tL3hhcC8xLjAvc1R5cGUvUmVzb3VyY2VSZWYjIiB4bWxuczpzdEV2dD0iaHR0cDovL25zLmFkb2JlLmNvbS94YXAvMS4wL3NUeXBlL1Jlc291cmNlRXZlbnQjIiB4bWxuczppbGx1c3RyYXRvcj0iaHR0cDovL25zLmFkb2JlLmNvbS9pbGx1c3RyYXRvci8xLjAvIiB4bWxuczpwZGY9Imh0dHA6Ly9ucy5hZG9iZS5jb20vcGRmLzEuMy8iIHhtbG5zOnhtcFRQZz0iaHR0cDovL25zLmFkb2JlLmNvbS94YXAvMS4wL3QvcGcvIiB4bWxuczpzdERpbT0iaHR0cDovL25zLmFkb2JlLmNvbS94YXAvMS4wL3NUeXBlL0RpbWVuc2lvbnMjIiB4bWxuczpzdEZudD0iaHR0cDovL25zLmFkb2JlLmNvbS94YXAvMS4wL3NUeXBlL0ZvbnQjIiB4bWxuczp4bXBHPSJodHRwOi8vbnMuYWRvYmUuY29tL3hhcC8xLjAvZy8iIHhtbG5zOnBob3Rvc2hvcD0iaHR0cDovL25zLmFkb2JlLmNvbS9waG90b3Nob3AvMS4wLyIgZGM6Zm9ybWF0PSJpbWFnZS9wbmciIHhtcDpNZXRhZGF0YURhdGU9IjIwMjAtMDYtMTVUMjE6MzY6MjkrMDI6MDAiIHhtcDpNb2RpZnlEYXRlPSIyMDIwLTA2LTE1VDIxOjM2OjI5KzAyOjAwIiB4bXA6Q3JlYXRlRGF0ZT0iMjAyMC0wNi0xNVQyMTozNDo1NyswMjowMCIgeG1wOkNyZWF0b3JUb29sPSJBZG9iZSBJbGx1c3RyYXRvciAyNC4wIChNYWNpbnRvc2gpIiB4bXBNTTpJbnN0YW5jZUlEPSJ4bXAuaWlkOjFiZGU3ZTBmLTBmNjEtNDNkMi1hMzZjLTM0NzJjYTBlZDczZSIgeG1wTU06RG9jdW1lbnRJRD0iYWRvYmU6ZG9jaWQ6cGhvdG9zaG9wOjlkNTgzMGI2LWMzYTMtMzk0OC04NDcyLTc2YzFiZTZkMDI2MiIgeG1wTU06T3JpZ2luYWxEb2N1bWVudElEPSJ1dWlkOjVEMjA4OTI0OTNCRkRCMTE5MTRBODU5MEQzMTUwOEM4IiB4bXBNTTpSZW5kaXRpb25DbGFzcz0icHJvb2Y6cGRmIiBpbGx1c3RyYXRvcjpTdGFydHVwUHJvZmlsZT0iUHJpbnQiIGlsbHVzdHJhdG9yOkNyZWF0b3JTdWJUb29sPSJBSVJvYmluIiBpbGx1c3RyYXRvcjpUeXBlPSJEb2N1bWVudCIgcGRmOlByb2R1Y2VyPSJBZG9iZSBQREYgbGlicmFyeSAxNS4wMCIgeG1wVFBnOk5QYWdlcz0iMSIgeG1wVFBnOkhhc1Zpc2libGVUcmFuc3BhcmVuY3k9IkZhbHNlIiB4bXBUUGc6SGFzVmlzaWJsZU92ZXJwcmludD0iRmFsc2UiIHBob3Rvc2hvcDpDb2xvck1vZGU9IjMiIHBob3Rvc2hvcDpJQ0NQcm9maWxlPSJzUkdCIElFQzYxOTY2LTIuMSI+IDxkYzp0aXRsZT4gPHJkZjpBbHQ+IDxyZGY6bGkgeG1sOmxhbmc9IngtZGVmYXVsdCI+bG9nb19qd3QxPC9yZGY6bGk+IDwvcmRmOkFsdD4gPC9kYzp0aXRsZT4gPHhtcE1NOkRlcml2ZWRGcm9tIHN0UmVmOmluc3RhbmNlSUQ9InhtcC5paWQ6YzM4ZTkzNDAtZDliYS00MGM3LTkwMjAtMTc4NjRlMGFlYmU1IiBzdFJlZjpkb2N1bWVudElEPSJ4bXAuZGlkOmMzOGU5MzQwLWQ5YmEtNDBjNy05MDIwLTE3ODY0ZTBhZWJlNSIgc3RSZWY6b3JpZ2luYWxEb2N1bWVudElEPSJ1dWlkOjVEMjA4OTI0OTNCRkRCMTE5MTRBODU5MEQzMTUwOEM4IiBzdFJlZjpyZW5kaXRpb25DbGFzcz0icHJvb2Y6cGRmIi8+IDx4bXBNTTpIaXN0b3J5PiA8cmRmOlNlcT4gPHJkZjpsaSBzdEV2dDphY3Rpb249InNhdmVkIiBzdEV2dDppbnN0YW5jZUlEPSJ4bXAuaWlkOjQ1MTMwNzg5LWYyMjgtNDM4Ny1iODUyLTM2YzBlNWI4YWY0NiIgc3RFdnQ6d2hlbj0iMjAyMC0wNi0xNVQyMDo0Mjo0OSswMjowMCIgc3RFdnQ6c29mdHdhcmVBZ2VudD0iQWRvYmUgSWxsdXN0cmF0b3IgMjQuMCAoTWFjaW50b3NoKSIgc3RFdnQ6Y2hhbmdlZD0iLyIvPiA8cmRmOmxpIHN0RXZ0OmFjdGlvbj0ic2F2ZWQiIHN0RXZ0Omluc3RhbmNlSUQ9InhtcC5paWQ6MmRmMDc3MjUtMTg4YS00NGVmLThhY2EtYWE1NjNiODMwZGZkIiBzdEV2dDp3aGVuPSIyMDIwLTA2LTE1VDIxOjM0OjU2KzAyOjAwIiBzdEV2dDpzb2Z0d2FyZUFnZW50PSJBZG9iZSBJbGx1c3RyYXRvciAyNC4wIChNYWNpbnRvc2gpIiBzdEV2dDpjaGFuZ2VkPSIvIi8+IDxyZGY6bGkgc3RFdnQ6YWN0aW9uPSJjb252ZXJ0ZWQiIHN0RXZ0OnBhcmFtZXRlcnM9ImZyb20gYXBwbGljYXRpb24vcGRmIHRvIGFwcGxpY2F0aW9uL3ZuZC5hZG9iZS5waG90b3Nob3AiLz4gPHJkZjpsaSBzdEV2dDphY3Rpb249InNhdmVkIiBzdEV2dDppbnN0YW5jZUlEPSJ4bXAuaWlkOmMzOGU5MzQwLWQ5YmEtNDBjNy05MDIwLTE3ODY0ZTBhZWJlNSIgc3RFdnQ6d2hlbj0iMjAyMC0wNi0xNVQyMTozNjoyOSswMjowMCIgc3RFdnQ6c29mdHdhcmVBZ2VudD0iQWRvYmUgUGhvdG9zaG9wIDIxLjEgKE1hY2ludG9zaCkiIHN0RXZ0OmNoYW5nZWQ9Ii8iLz4gPHJkZjpsaSBzdEV2dDphY3Rpb249ImNvbnZlcnRlZCIgc3RFdnQ6cGFyYW1ldGVycz0iZnJvbSBhcHBsaWNhdGlvbi9wZGYgdG8gaW1hZ2UvcG5nIi8+IDxyZGY6bGkgc3RFdnQ6YWN0aW9uPSJkZXJpdmVkIiBzdEV2dDpwYXJhbWV0ZXJzPSJjb252ZXJ0ZWQgZnJvbSBhcHBsaWNhdGlvbi92bmQuYWRvYmUucGhvdG9zaG9wIHRvIGltYWdlL3BuZyIvPiA8cmRmOmxpIHN0RXZ0OmFjdGlvbj0ic2F2ZWQiIHN0RXZ0Omluc3RhbmNlSUQ9InhtcC5paWQ6MWJkZTdlMGYtMGY2MS00M2QyLWEzNmMtMzQ3MmNhMGVkNzNlIiBzdEV2dDp3aGVuPSIyMDIwLTA2LTE1VDIxOjM2OjI5KzAyOjAwIiBzdEV2dDpzb2Z0d2FyZUFnZW50PSJBZG9iZSBQaG90b3Nob3AgMjEuMSAoTWFjaW50b3NoKSIgc3RFdnQ6Y2hhbmdlZD0iLyIvPiA8L3JkZjpTZXE+IDwveG1wTU06SGlzdG9yeT4gPHhtcFRQZzpNYXhQYWdlU2l6ZSBzdERpbTp3PSIxMTguMjYyNzg2IiBzdERpbTpoPSIxMTguMjYyNzg2IiBzdERpbTp1bml0PSJNaWxsaW1ldGVycyIvPiA8eG1wVFBnOkZvbnRzPiA8cmRmOkJhZz4gPHJkZjpsaSBzdEZudDpmb250TmFtZT0iUm9ib3RvLU1lZGl1bSIgc3RGbnQ6Zm9udEZhbWlseT0iUm9ib3RvIiBzdEZudDpmb250RmFjZT0iTWVkaXVtIiBzdEZudDpmb250VHlwZT0iVHJ1ZVR5cGUiIHN0Rm50OnZlcnNpb25TdHJpbmc9IlZlcnNpb24gMi4xMzc7IDIwMTciIHN0Rm50OmNvbXBvc2l0ZT0iRmFsc2UiIHN0Rm50OmZvbnRGaWxlTmFtZT0iUm9ib3RvLU1lZGl1bS50dGYiLz4gPC9yZGY6QmFnPiA8L3htcFRQZzpGb250cz4gPHhtcFRQZzpQbGF0ZU5hbWVzPiA8cmRmOlNlcT4gPHJkZjpsaT5DeWFuPC9yZGY6bGk+IDxyZGY6bGk+TWFnZW50YTwvcmRmOmxpPiA8cmRmOmxpPlllbGxvdzwvcmRmOmxpPiA8cmRmOmxpPkJsYWNrPC9yZGY6bGk+IDwvcmRmOlNlcT4gPC94bXBUUGc6UGxhdGVOYW1lcz4gPHhtcFRQZzpTd2F0Y2hHcm91cHM+IDxyZGY6U2VxPiA8cmRmOmxpPiA8cmRmOkRlc2NyaXB0aW9uIHhtcEc6Z3JvdXBOYW1lPSJEZWZhdWx0IFN3YXRjaCBHcm91cCIgeG1wRzpncm91cFR5cGU9IjAiPiA8eG1wRzpDb2xvcmFudHM+IDxyZGY6U2VxPiA8cmRmOmxpIHhtcEc6c3dhdGNoTmFtZT0iV2hpdGUiIHhtcEc6bW9kZT0iUkdCIiB4bXBHOnR5cGU9IlBST0NFU1MiIHhtcEc6cmVkPSIyNTUiIHhtcEc6Z3JlZW49IjI1NSIgeG1wRzpibHVlPSIyNTUiLz4gPHJkZjpsaSB4bXBHOnN3YXRjaE5hbWU9IkJsYWNrIiB4bXBHOm1vZGU9IlJHQiIgeG1wRzp0eXBlPSJQUk9DRVNTIiB4bXBHOnJlZD0iMjkiIHhtcEc6Z3JlZW49IjI5IiB4bXBHOmJsdWU9IjI3Ii8+IDxyZGY6bGkgeG1wRzpzd2F0Y2hOYW1lPSJDTVlLIFJlZCIgeG1wRzptb2RlPSJSR0IiIHhtcEc6dHlwZT0iUFJPQ0VTUyIgeG1wRzpyZWQ9IjIyNiIgeG1wRzpncmVlbj0iNiIgeG1wRzpibHVlPSIxOSIvPiA8cmRmOmxpIHhtcEc6c3dhdGNoTmFtZT0iQ01ZSyBZZWxsb3ciIHhtcEc6bW9kZT0iUkdCIiB4bXBHOnR5cGU9IlBST0NFU1MiIHhtcEc6cmVkPSIyNTUiIHhtcEc6Z3JlZW49IjIzNiIgeG1wRzpibHVlPSIwIi8+IDxyZGY6bGkgeG1wRzpzd2F0Y2hOYW1lPSJDTVlLIEdyZWVuIiB4bXBHOm1vZGU9IlJHQiIgeG1wRzp0eXBlPSJQUk9DRVNTIiB4bXBHOnJlZD0iMCIgeG1wRzpncmVlbj0iMTQ5IiB4bXBHOmJsdWU9IjY0Ii8+IDxyZGY6bGkgeG1wRzpzd2F0Y2hOYW1lPSJDTVlLIEN5YW4iIHhtcEc6bW9kZT0iUkdCIiB4bXBHOnR5cGU9IlBST0NFU1MiIHhtcEc6cmVkPSIwIiB4bXBHOmdyZWVuPSIxNTgiIHhtcEc6Ymx1ZT0iMjI2Ii8+IDxyZGY6bGkgeG1wRzpzd2F0Y2hOYW1lPSJDTVlLIEJsdWUiIHhtcEc6bW9kZT0iUkdCIiB4bXBHOnR5cGU9IlBST0NFU1MiIHhtcEc6cmVkPSI0OSIgeG1wRzpncmVlbj0iMzkiIHhtcEc6Ymx1ZT0iMTMwIi8+IDxyZGY6bGkgeG1wRzpzd2F0Y2hOYW1lPSJDTVlLIE1hZ2VudGEiIHhtcEc6bW9kZT0iUkdCIiB4bXBHOnR5cGU9IlBST0NFU1MiIHhtcEc6cmVkPSIyMjkiIHhtcEc6Z3JlZW49IjAiIHhtcEc6Ymx1ZT0iMTI2Ii8+IDxyZGY6bGkgeG1wRzpzd2F0Y2hOYW1lPSJDPTE1IE09MTAwIFk9OTAgSz0xMCIgeG1wRzptb2RlPSJSR0IiIHhtcEc6dHlwZT0iUFJPQ0VTUyIgeG1wRzpyZWQ9IjE4OSIgeG1wRzpncmVlbj0iMjIiIHhtcEc6Ymx1ZT0iMzQiLz4gPHJkZjpsaSB4bXBHOnN3YXRjaE5hbWU9IkM9MCBNPTkwIFk9ODUgSz0wIiB4bXBHOm1vZGU9IlJHQiIgeG1wRzp0eXBlPSJQUk9DRVNTIiB4bXBHOnJlZD0iMjI5IiB4bXBHOmdyZWVuPSI1MSIgeG1wRzpibHVlPSI0MiIvPiA8cmRmOmxpIHhtcEc6c3dhdGNoTmFtZT0iQz0wIE09ODAgWT05NSBLPTAiIHhtcEc6bW9kZT0iUkdCIiB4bXBHOnR5cGU9IlBST0NFU1MiIHhtcEc6cmVkPSIyMzIiIHhtcEc6Z3JlZW49Ijc4IiB4bXBHOmJsdWU9IjI3Ii8+IDxyZGY6bGkgeG1wRzpzd2F0Y2hOYW1lPSJDPTAgTT01MCBZPTEwMCBLPTAiIHhtcEc6bW9kZT0iUkdCIiB4bXBHOnR5cGU9IlBST0NFU1MiIHhtcEc6cmVkPSIyNDIiIHhtcEc6Z3JlZW49IjE0NSIgeG1wRzpibHVlPSIwIi8+IDxyZGY6bGkgeG1wRzpzd2F0Y2hOYW1lPSJDPTAgTT0zNSBZPTg1IEs9MCIgeG1wRzptb2RlPSJSR0IiIHhtcEc6dHlwZT0iUFJPQ0VTUyIgeG1wRzpyZWQ9IjI0OCIgeG1wRzpncmVlbj0iMTc3IiB4bXBHOmJsdWU9IjUxIi8+IDxyZGY6bGkgeG1wRzpzd2F0Y2hOYW1lPSJDPTUgTT0wIFk9OTAgSz0wIiB4bXBHOm1vZGU9IlJHQiIgeG1wRzp0eXBlPSJQUk9DRVNTIiB4bXBHOnJlZD0iMjUyIiB4bXBHOmdyZWVuPSIyMzQiIHhtcEc6Ymx1ZT0iMTMiLz4gPHJkZjpsaSB4bXBHOnN3YXRjaE5hbWU9IkM9MjAgTT0wIFk9MTAwIEs9MCIgeG1wRzptb2RlPSJSR0IiIHhtcEc6dHlwZT0iUFJPQ0VTUyIgeG1wRzpyZWQ9IjIyMSIgeG1wRzpncmVlbj0iMjE5IiB4bXBHOmJsdWU9IjAiLz4gPHJkZjpsaSB4bXBHOnN3YXRjaE5hbWU9IkM9NTAgTT0wIFk9MTAwIEs9MCIgeG1wRzptb2RlPSJSR0IiIHhtcEc6dHlwZT0iUFJPQ0VTUyIgeG1wRzpyZWQ9IjE0NyIgeG1wRzpncmVlbj0iMTkyIiB4bXBHOmJsdWU9IjMxIi8+IDxyZGY6bGkgeG1wRzpzd2F0Y2hOYW1lPSJDPTc1IE09MCBZPTEwMCBLPTAiIHhtcEc6bW9kZT0iUkdCIiB4bXBHOnR5cGU9IlBST0NFU1MiIHhtcEc6cmVkPSI1NyIgeG1wRzpncmVlbj0iMTY5IiB4bXBHOmJsdWU9IjUzIi8+IDxyZGY6bGkgeG1wRzpzd2F0Y2hOYW1lPSJDPTg1IE09MTAgWT0xMDAgSz0xMCIgeG1wRzptb2RlPSJSR0IiIHhtcEc6dHlwZT0iUFJPQ0VTUyIgeG1wRzpyZWQ9IjAiIHhtcEc6Z3JlZW49IjE0MSIgeG1wRzpibHVlPSI1NCIvPiA8cmRmOmxpIHhtcEc6c3dhdGNoTmFtZT0iQz05MCBNPTMwIFk9OTUgSz0zMCIgeG1wRzptb2RlPSJSR0IiIHhtcEc6dHlwZT0iUFJPQ0VTUyIgeG1wRzpyZWQ9IjAiIHhtcEc6Z3JlZW49IjEwMiIgeG1wRzpibHVlPSI1MSIvPiA8cmRmOmxpIHhtcEc6c3dhdGNoTmFtZT0iQz03NSBNPTAgWT03NSBLPTAiIHhtcEc6bW9kZT0iUkdCIiB4bXBHOnR5cGU9IlBST0NFU1MiIHhtcEc6cmVkPSI0NSIgeG1wRzpncmVlbj0iMTcxIiB4bXBHOmJsdWU9IjEwMiIvPiA8cmRmOmxpIHhtcEc6c3dhdGNoTmFtZT0iQz04MCBNPTEwIFk9NDUgSz0wIiB4bXBHOm1vZGU9IlJHQiIgeG1wRzp0eXBlPSJQUk9DRVNTIiB4bXBHOnJlZD0iMCIgeG1wRzpncmVlbj0iMTYwIiB4bXBHOmJsdWU9IjE1MyIvPiA8cmRmOmxpIHhtcEc6c3dhdGNoTmFtZT0iQz03MCBNPTE1IFk9MCBLPTAiIHhtcEc6bW9kZT0iUkdCIiB4bXBHOnR5cGU9IlBST0NFU1MiIHhtcEc6cmVkPSI1MyIgeG1wRzpncmVlbj0iMTY4IiB4bXBHOmJsdWU9IjIyNCIvPiA8cmRmOmxpIHhtcEc6c3dhdGNoTmFtZT0iQz04NSBNPTUwIFk9MCBLPTAiIHhtcEc6bW9kZT0iUkdCIiB4bXBHOnR5cGU9IlBST0NFU1MiIHhtcEc6cmVkPSIyOSIgeG1wRzpncmVlbj0iMTEyIiB4bXBHOmJsdWU9IjE4MyIvPiA8cmRmOmxpIHhtcEc6c3dhdGNoTmFtZT0iQz0xMDAgTT05NSBZPTUgSz0wIiB4bXBHOm1vZGU9IlJHQiIgeG1wRzp0eXBlPSJQUk9DRVNTIiB4bXBHOnJlZD0iNDUiIHhtcEc6Z3JlZW49IjQ2IiB4bXBHOmJsdWU9IjEzMCIvPiA8cmRmOmxpIHhtcEc6c3dhdGNoTmFtZT0iQz0xMDAgTT0xMDAgWT0yNSBLPTI1IiB4bXBHOm1vZGU9IlJHQiIgeG1wRzp0eXBlPSJQUk9DRVNTIiB4bXBHOnJlZD0iNDEiIHhtcEc6Z3JlZW49IjM1IiB4bXBHOmJsdWU9IjkyIi8+IDxyZGY6bGkgeG1wRzpzd2F0Y2hOYW1lPSJDPTc1IE09MTAwIFk9MCBLPTAiIHhtcEc6bW9kZT0iUkdCIiB4bXBHOnR5cGU9IlBST0NFU1MiIHhtcEc6cmVkPSIxMDIiIHhtcEc6Z3JlZW49IjM2IiB4bXBHOmJsdWU9IjEzMCIvPiA8cmRmOmxpIHhtcEc6c3dhdGNoTmFtZT0iQz01MCBNPTEwMCBZPTAgSz0wIiB4bXBHOm1vZGU9IlJHQiIgeG1wRzp0eXBlPSJQUk9DRVNTIiB4bXBHOnJlZD0iMTQ4IiB4bXBHOmdyZWVuPSIyNyIgeG1wRzpibHVlPSIxMjgiLz4gPHJkZjpsaSB4bXBHOnN3YXRjaE5hbWU9IkM9MzUgTT0xMDAgWT0zNSBLPTEwIiB4bXBHOm1vZGU9IlJHQiIgeG1wRzp0eXBlPSJQUk9DRVNTIiB4bXBHOnJlZD0iMTYyIiB4bXBHOmdyZWVuPSIyNSIgeG1wRzpibHVlPSI5MSIvPiA8cmRmOmxpIHhtcEc6c3dhdGNoTmFtZT0iQz0xMCBNPTEwMCBZPTUwIEs9MCIgeG1wRzptb2RlPSJSR0IiIHhtcEc6dHlwZT0iUFJPQ0VTUyIgeG1wRzpyZWQ9IjIxNCIgeG1wRzpncmVlbj0iMTEiIHhtcEc6Ymx1ZT0iODEiLz4gPHJkZjpsaSB4bXBHOnN3YXRjaE5hbWU9IkM9MCBNPTk1IFk9MjAgSz0wIiB4bXBHOm1vZGU9IlJHQiIgeG1wRzp0eXBlPSJQUk9DRVNTIiB4bXBHOnJlZD0iMjMwIiB4bXBHOmdyZWVuPSIyNyIgeG1wRzpibHVlPSIxMTQiLz4gPHJkZjpsaSB4bXBHOnN3YXRjaE5hbWU9IkM9MjUgTT0yNSBZPTQwIEs9MCIgeG1wRzptb2RlPSJSR0IiIHhtcEc6dHlwZT0iUFJPQ0VTUyIgeG1wRzpyZWQ9IjIwMiIgeG1wRzpncmVlbj0iMTg2IiB4bXBHOmJsdWU9IjE1OSIvPiA8cmRmOmxpIHhtcEc6c3dhdGNoTmFtZT0iQz00MCBNPTQ1IFk9NTAgSz01IiB4bXBHOm1vZGU9IlJHQiIgeG1wRzp0eXBlPSJQUk9DRVNTIiB4bXBHOnJlZD0iMTYzIiB4bXBHOmdyZWVuPSIxMzciIHhtcEc6Ymx1ZT0iMTIyIi8+IDxyZGY6bGkgeG1wRzpzd2F0Y2hOYW1lPSJDPTUwIE09NTAgWT02MCBLPTI1IiB4bXBHOm1vZGU9IlJHQiIgeG1wRzp0eXBlPSJQUk9DRVNTIiB4bXBHOnJlZD0iMTIyIiB4bXBHOmdyZWVuPSIxMDYiIHhtcEc6Ymx1ZT0iODgiLz4gPHJkZjpsaSB4bXBHOnN3YXRjaE5hbWU9IkM9NTUgTT02MCBZPTY1IEs9NDAiIHhtcEc6bW9kZT0iUkdCIiB4bXBHOnR5cGU9IlBST0NFU1MiIHhtcEc6cmVkPSI5OSIgeG1wRzpncmVlbj0iNzgiIHhtcEc6Ymx1ZT0iNjYiLz4gPHJkZjpsaSB4bXBHOnN3YXRjaE5hbWU9IkM9MjUgTT00MCBZPTY1IEs9MCIgeG1wRzptb2RlPSJSR0IiIHhtcEc6dHlwZT0iUFJPQ0VTUyIgeG1wRzpyZWQ9IjIwMSIgeG1wRzpncmVlbj0iMTU3IiB4bXBHOmJsdWU9IjEwMiIvPiA8cmRmOmxpIHhtcEc6c3dhdGNoTmFtZT0iQz0zMCBNPTUwIFk9NzUgSz0xMCIgeG1wRzptb2RlPSJSR0IiIHhtcEc6dHlwZT0iUFJPQ0VTUyIgeG1wRzpyZWQ9IjE3NyIgeG1wRzpncmVlbj0iMTI3IiB4bXBHOmJsdWU9IjczIi8+IDxyZGY6bGkgeG1wRzpzd2F0Y2hOYW1lPSJDPTM1IE09NjAgWT04MCBLPTI1IiB4bXBHOm1vZGU9IlJHQiIgeG1wRzp0eXBlPSJQUk9DRVNTIiB4bXBHOnJlZD0iMTQ2IiB4bXBHOmdyZWVuPSI5NSIgeG1wRzpibHVlPSI1NCIvPiA8cmRmOmxpIHhtcEc6c3dhdGNoTmFtZT0iQz00MCBNPTY1IFk9OTAgSz0zNSIgeG1wRzptb2RlPSJSR0IiIHhtcEc6dHlwZT0iUFJPQ0VTUyIgeG1wRzpyZWQ9IjEyNiIgeG1wRzpncmVlbj0iNzgiIHhtcEc6Ymx1ZT0iMzYiLz4gPHJkZjpsaSB4bXBHOnN3YXRjaE5hbWU9IkM9NDAgTT03MCBZPTEwMCBLPTUwIiB4bXBHOm1vZGU9IlJHQiIgeG1wRzp0eXBlPSJQUk9DRVNTIiB4bXBHOnJlZD0iMTA0IiB4bXBHOmdyZWVuPSI1OSIgeG1wRzpibHVlPSIxNyIvPiA8cmRmOmxpIHhtcEc6c3dhdGNoTmFtZT0iQz01MCBNPTcwIFk9ODAgSz03MCIgeG1wRzptb2RlPSJSR0IiIHhtcEc6dHlwZT0iUFJPQ0VTUyIgeG1wRzpyZWQ9IjY2IiB4bXBHOmdyZWVuPSI0MSIgeG1wRzpibHVlPSIyNCIvPiA8L3JkZjpTZXE+IDwveG1wRzpDb2xvcmFudHM+IDwvcmRmOkRlc2NyaXB0aW9uPiA8L3JkZjpsaT4gPHJkZjpsaT4gPHJkZjpEZXNjcmlwdGlvbiB4bXBHOmdyb3VwTmFtZT0iR3JheXMiIHhtcEc6Z3JvdXBUeXBlPSIxIj4gPHhtcEc6Q29sb3JhbnRzPiA8cmRmOlNlcT4gPHJkZjpsaSB4bXBHOnN3YXRjaE5hbWU9IkM9MCBNPTAgWT0wIEs9MTAwIiB4bXBHOm1vZGU9IlJHQiIgeG1wRzp0eXBlPSJQUk9DRVNTIiB4bXBHOnJlZD0iMjkiIHhtcEc6Z3JlZW49IjI5IiB4bXBHOmJsdWU9IjI3Ii8+IDxyZGY6bGkgeG1wRzpzd2F0Y2hOYW1lPSJDPTAgTT0wIFk9MCBLPTkwIiB4bXBHOm1vZGU9IlJHQiIgeG1wRzp0eXBlPSJQUk9DRVNTIiB4bXBHOnJlZD0iNjAiIHhtcEc6Z3JlZW49IjYwIiB4bXBHOmJsdWU9IjU5Ii8+IDxyZGY6bGkgeG1wRzpzd2F0Y2hOYW1lPSJDPTAgTT0wIFk9MCBLPTgwIiB4bXBHOm1vZGU9IlJHQiIgeG1wRzp0eXBlPSJQUk9DRVNTIiB4bXBHOnJlZD0iODciIHhtcEc6Z3JlZW49Ijg3IiB4bXBHOmJsdWU9Ijg2Ii8+IDxyZGY6bGkgeG1wRzpzd2F0Y2hOYW1lPSJDPTAgTT0wIFk9MCBLPTcwIiB4bXBHOm1vZGU9IlJHQiIgeG1wRzp0eXBlPSJQUk9DRVNTIiB4bXBHOnJlZD0iMTExIiB4bXBHOmdyZWVuPSIxMTEiIHhtcEc6Ymx1ZT0iMTEwIi8+IDxyZGY6bGkgeG1wRzpzd2F0Y2hOYW1lPSJDPTAgTT0wIFk9MCBLPTYwIiB4bXBHOm1vZGU9IlJHQiIgeG1wRzp0eXBlPSJQUk9DRVNTIiB4bXBHOnJlZD0iMTM0IiB4bXBHOmdyZWVuPSIxMzQiIHhtcEc6Ymx1ZT0iMTM0Ii8+IDxyZGY6bGkgeG1wRzpzd2F0Y2hOYW1lPSJDPTAgTT0wIFk9MCBLPTUwIiB4bXBHOm1vZGU9IlJHQiIgeG1wRzp0eXBlPSJQUk9DRVNTIiB4bXBHOnJlZD0iMTU2IiB4bXBHOmdyZWVuPSIxNTUiIHhtcEc6Ymx1ZT0iMTU1Ii8+IDxyZGY6bGkgeG1wRzpzd2F0Y2hOYW1lPSJDPTAgTT0wIFk9MCBLPTQwIiB4bXBHOm1vZGU9IlJHQiIgeG1wRzp0eXBlPSJQUk9DRVNTIiB4bXBHOnJlZD0iMTc3IiB4bXBHOmdyZWVuPSIxNzciIHhtcEc6Ymx1ZT0iMTc3Ii8+IDxyZGY6bGkgeG1wRzpzd2F0Y2hOYW1lPSJDPTAgTT0wIFk9MCBLPTMwIiB4bXBHOm1vZGU9IlJHQiIgeG1wRzp0eXBlPSJQUk9DRVNTIiB4bXBHOnJlZD0iMTk4IiB4bXBHOmdyZWVuPSIxOTgiIHhtcEc6Ymx1ZT0iMTk3Ii8+IDxyZGY6bGkgeG1wRzpzd2F0Y2hOYW1lPSJDPTAgTT0wIFk9MCBLPTIwIiB4bXBHOm1vZGU9IlJHQiIgeG1wRzp0eXBlPSJQUk9DRVNTIiB4bXBHOnJlZD0iMjE3IiB4bXBHOmdyZWVuPSIyMTciIHhtcEc6Ymx1ZT0iMjE3Ii8+IDxyZGY6bGkgeG1wRzpzd2F0Y2hOYW1lPSJDPTAgTT0wIFk9MCBLPTEwIiB4bXBHOm1vZGU9IlJHQiIgeG1wRzp0eXBlPSJQUk9DRVNTIiB4bXBHOnJlZD0iMjM2IiB4bXBHOmdyZWVuPSIyMzYiIHhtcEc6Ymx1ZT0iMjM2Ii8+IDxyZGY6bGkgeG1wRzpzd2F0Y2hOYW1lPSJDPTAgTT0wIFk9MCBLPTUiIHhtcEc6bW9kZT0iUkdCIiB4bXBHOnR5cGU9IlBST0NFU1MiIHhtcEc6cmVkPSIyNDUiIHhtcEc6Z3JlZW49IjI0NSIgeG1wRzpibHVlPSIyNDUiLz4gPC9yZGY6U2VxPiA8L3htcEc6Q29sb3JhbnRzPiA8L3JkZjpEZXNjcmlwdGlvbj4gPC9yZGY6bGk+IDxyZGY6bGk+IDxyZGY6RGVzY3JpcHRpb24geG1wRzpncm91cE5hbWU9IkJyaWdodHMiIHhtcEc6Z3JvdXBUeXBlPSIxIj4gPHhtcEc6Q29sb3JhbnRzPiA8cmRmOlNlcT4gPHJkZjpsaSB4bXBHOnN3YXRjaE5hbWU9IkM9MCBNPTEwMCBZPTEwMCBLPTAiIHhtcEc6bW9kZT0iUkdCIiB4bXBHOnR5cGU9IlBST0NFU1MiIHhtcEc6cmVkPSIyMjYiIHhtcEc6Z3JlZW49IjYiIHhtcEc6Ymx1ZT0iMTkiLz4gPHJkZjpsaSB4bXBHOnN3YXRjaE5hbWU9IkM9MCBNPTc1IFk9MTAwIEs9MCIgeG1wRzptb2RlPSJSR0IiIHhtcEc6dHlwZT0iUFJPQ0VTUyIgeG1wRzpyZWQ9IjIzMyIgeG1wRzpncmVlbj0iOTAiIHhtcEc6Ymx1ZT0iMTIiLz4gPHJkZjpsaSB4bXBHOnN3YXRjaE5hbWU9IkM9MCBNPTEwIFk9OTUgSz0wIiB4bXBHOm1vZGU9IlJHQiIgeG1wRzp0eXBlPSJQUk9DRVNTIiB4bXBHOnJlZD0iMjU1IiB4bXBHOmdyZWVuPSIyMjEiIHhtcEc6Ymx1ZT0iMCIvPiA8cmRmOmxpIHhtcEc6c3dhdGNoTmFtZT0iQz04NSBNPTEwIFk9MTAwIEs9MCIgeG1wRzptb2RlPSJSR0IiIHhtcEc6dHlwZT0iUFJPQ0VTUyIgeG1wRzpyZWQ9IjAiIHhtcEc6Z3JlZW49IjE1MSIgeG1wRzpibHVlPSI1OCIvPiA8cmRmOmxpIHhtcEc6c3dhdGNoTmFtZT0iQz0xMDAgTT05MCBZPTAgSz0wIiB4bXBHOm1vZGU9IlJHQiIgeG1wRzp0eXBlPSJQUk9DRVNTIiB4bXBHOnJlZD0iNDAiIHhtcEc6Z3JlZW49IjUyIiB4bXBHOmJsdWU9IjEzOCIvPiA8cmRmOmxpIHhtcEc6c3dhdGNoTmFtZT0iQz02MCBNPTkwIFk9MCBLPTAiIHhtcEc6bW9kZT0iUkdCIiB4bXBHOnR5cGU9IlBST0NFU1MiIHhtcEc6cmVkPSIxMjkiIHhtcEc6Z3JlZW49IjUzIiB4bXBHOmJsdWU9IjEzOCIvPiA8L3JkZjpTZXE+IDwveG1wRzpDb2xvcmFudHM+IDwvcmRmOkRlc2NyaXB0aW9uPiA8L3JkZjpsaT4gPC9yZGY6U2VxPiA8L3htcFRQZzpTd2F0Y2hHcm91cHM+IDwvcmRmOkRlc2NyaXB0aW9uPiA8L3JkZjpSREY+IDwveDp4bXBtZXRhPiA8P3hwYWNrZXQgZW5kPSJyIj8+q07ECgAAUjJJREFUeJzt3Xl8VNXdP/DPvXf2bGwJW1gDWYCEsAQIhB2h1N0+FTfc+2itKPVX7WZL1WLrVn2eatXW2orV+uBSi6BURJGdQAKBsKgBFAHZlyyzz9zfH5MgKEnmztyZMzP38369zqttmHvvZwaa+51zzj1HQuKQAQwD0A9AKYDeAHoAyAbQEYADgBmAJCgfERFRW1QAPgBOACcBHAVwEMA+AFsA7AWwGUBQUL5ziL6ZDgUwDUAFgBEAeomNQ0REFFNfAqgCsBrABwBqRAURUQAMB3AFgEsAFAu4PhERUaLYBmARgLcAVMfzwvEsAL4P4DYAU+N4TSIiomSxHMDzAF6Px8XiUQDcDuCHAEricC0iIqJktxXAswCei+VFYlkAXAngVwCGxPAaREREqaoWwEMAFsbi5LEoAIoBPA5gegzOTUREZDTvA/gJQvMFdKPoeTIAPwPwJoA8nc9LRERkVHkIDaV7EHp6QBd69QD0BfAigMk6nY+IiIi+7SMANwP4PNoT6VEAXAjgFQBZOpyLiIiI2nYawLUAlkRzkmiHAO4C8DIAW5TnISIiovDYAFyD0GqDGyI9STQFwBMAHozieCIiIorcTACZCE0S1CzSAuAvAH4U4bFERESkj3IAuQDe0XpgJAXACwBujeA4IiIi0t9whPbSWaTlIK0FwOPgN38iIqJEMxxABjQMB2gpAO4Cx/yJiIgS1VhomBgY7mOAFyDCSQZEREQUV9MBLGvvReEUAF0B7AVgjzYRERERxZwLQD8Ah9t6kRzGif4N3vyJiIiShR2he3eb2psD8FMAN+qRhoiIiOImF4AbwJrWXtDWEEAegDq9ExEREVHcDACw+3x/0NYQwILYZCEiIqI4afVe3loBcAlCjxMQERFR8hqL0D39W1obAvgCQO+YxSEiIqJ42Qegzzd/eL4egBvAmz8REVGq6I3Qvf0c5+sB2IfQmsJERESUGr7EN77cf7MH4BLw5k9ERJRqeuEbcwG+WQDcG78sREREFEfn3OPPHgLIB/BJfLMQERFRHBUA+BQ4twdgtpgsREREFCdn7vVn9wDsBFAY/yxEREQUJ7sAFAFf9wAMAm/+REREqa4QoXv+mQLgO+KyEBERURx9B/i6AJgkLgcRERHF0SQgNAdAAbAfQDeRaYiIiCguDgPIlREaC+DNn4iIyBi6AiiSAQwWnYSIiIjiajALACIiIuMZLOM8WwQSERFRSusrA8gVnYKIiIjiqqcMoLPoFERERBRXnWUAHUWnICIiorjqKANIE52CiIiI4ipNBmAWnYKIiIjiyizj3B0BiYiIKPVJMgBVdAoiIiKKK1Vu/zVERESUalgAEBERGRALACIiIgNiAUBERGRALACIiIgMiAUAERGRAbEAICIiMiAWAERERAbEAoCIiMiAWAAQEREZEAsAIiIiA2IBQEREZEAsAIiIiAyIBQAREZEBsQAgIiIyIBYAREREBsQCgIiIyIBYABARERkQCwAiIiIDYgFARERkQCwAiIiIDIgFABERkQGxACAiIjIgFgBEREQGxAKAiIjIgFgAEBERGRALACIiIgNiAUBERGRALACIiIgMiAUAERGRAbEAICIiMiCT6ACUHOx2OxwOBywWC0wmE2Q5VDv6/X74fD643W40NTUhEAgITkpEROFgAWBwVqsVAwYMQE5ODvLy8tCnTx906dIF3bp1Q5cuXdCxY0dkZmbCarXCZrPBZDJBURTIsgxVVREMBuH3++H1euF2u+F0OnHy5EkcP34chw8fxvHjx7F//37s3r0bBw8exL59+3DkyBHRb5uIyPBYABhIt27dUFBQgBEjRqCgoAClpaXo0aMHcnNz45ahvr4e+/btQ11dHWpqarBjxw5s3rwZn332WdwyEBERIAGoB5AhOgjpr0ePHqioqEB5eTnKysowfPhw2O120bHOa9euXdi2bRtWrFiBdevWYfPmzaIjERGlsgYWAClmzJgxmDFjBiZPnozy8nJYLBbRkSJSV1eHjz76CMuWLcOHH36I48ePi45ERJRKWACkgqlTp+Liiy/GjBkzUFhYKDqO7k6fPo3ly5fjnXfewZIlS3D06FHRkYiIkh0LgGQ1bNgwzJo1C5dffjny8/NFx4mb+vp6LFmyBK+99hoWL16MYDAoOhIRUTJiAZBMZFnG1VdfjVtuuQWTJ08WHUe4PXv24NVXX8U//vEPfPLJJ6LjEBElExYAyaBnz564/vrrccsttyAvL090nIT0+uuv409/+hNWrFghOgoRUTJgAZDICgoKcPfdd+PGG29M2Nn7iWbZsmV47rnn8NZbb4mOQkSUyFgAJKKioiLMnTsXt95665kV90ibyspK/P73v8e//vUv0VGIiBIRC4BEkpubi3vvvRd33XWX6CgpY/369fjNb36D//znP6KjEBElEhYAicBiseAnP/kJfvGLXyAtLU10nJS0aNEi/PrXv0ZNTY3oKEREiYAFgGjf//73MX/+fAwcOFB0FEN48sknMW/ePDQ0NIiOQkQkEgsAUQYMGIDHH38cl156qegohvPVV1/hJz/5CV599VXRUYiIRGngDDMB5s6dix07dvDmL0j37t3xyiuv4K233kKPHj1ExyEiEoIFQBwVFBTgo48+wpNPPgmz2Sw6juFdfvnl2LlzJ2666SbRUYiI4o4FQJzcfvvt2Lp1KyZNmiQ6Cp0lMzMTL774Il577TV06NBBdBwiorjhHIAYs9ls+Otf/4prrrlGdBRqx4EDB3D99dfjww8/FB2FiCjWOAcglkaOHIlt27bx5p8kevbsieXLl+O+++4THYWIKObYAxAjN910E1588UXRMShCr732GmbPng2/3y86ChFRLLAHIBYeeeQR3vyT3FVXXYWqqir07dtXdBQiophgD4COJEnCG2+8gSuuuEJ0FNJJfX09LrroIqxatUp0FCIiPbEHQC+dOnVCZWUlb/4pJjMzEytXrsSsWbNERyEi0hULAB3069cPmzZtwsiRI0VHoRh57bXXuEkTEaUUBcDPAVhFB0lWxcXFWLt2LVeUM4CZM2ciEAhg5cqVoqMQEUXLywIgCsOGDcPatWuRmZkpOgrFyZQpU2CxWLhWABElOxYAkRo6dCjWrFkDh8MhOgrF2fjx42Gz2bB8+XLRUYiIIsUCIBJDhgzB+vXrefM3sIqKCpjNZvYEEFGy8vIxQI369euHmpoaZGQk7kd24sQJ7N27F0eOHEFTUxMCgQCsVis6dOiAXr16oWfPnrDZbKJjpoSf/exneOSRR0THICLSqoEFgAadOnXCtm3bEm7C38GDB7F8+XJ8+OGHqKqqwt69e9HY2Hje10qShC5dumD48OEYOXIkZs6ciXHjxsU5cWq55ZZbuPATESUbFgDhkmUZmzdvRklJiegoZyxatAgLFizAe++9B6fTGfF5CgoKcNVVV+HWW29Fbm6ujgmN46KLLsKSJUtExyAiClcDECoAVLa227vvvqsminfeeUcdM2aM7u/RZrOpP/rRj9SDBw+KfotJqaSkRPi/UzY2NrYwWz3AAqDd9r//+7+i7y2qqqrq/v371SuuuCLm7zcrK0t95plnRL/dpHP48GE1IyND+L9XNjY2tjAaC4D22i233CL6vqKqqqq+8cYbaocOHeL63i+77DL11KlTot96UlmzZo3wf7NsbGxsYTQWAG21ESNGiL6fqKqqqr/61a+EfQZ9+vRRt27dKvojSCp/+tOfhP/bZWNjY2unsQBorVmtVvXQoUOi7yXqbbfdJvyzMJvN6po1a0R/FEnl2muvFf73xsbGxtZGq+dTAK1YvHgxLrzwQqEZ7rzzTjzzzDNCM7RQFAXV1dUJ9RREouvbty+++OIL0TGIiM6H2wGfz5w5c4Tf/B955JGEufkDQCAQwMSJE3Hs2DHRUZLGO++8IzoCEVGbOARwVsvPzxfde6wuX75c+OfQWkuUeRHJ4tFHHxX+d8bGxsZ2nlbPvQC+YeXKlcjOzhZ2fY/Hg1GjRsHtdgvL0JavvvoKqqpi8uTJoqMkhXHjxmHp0qU4cOCA6ChERGfzcgjgLPfffz8GDRokNMOdd96JU6dOCc3QngcffBC7d+8WHSNpvP7666IjEBF9C3sAmuXl5eHtt98WmmHXrl245ZZbhGYI144dO3D99deLjpEUsrKykJGRgffff190FCKiFtwNsMWGDRswatQooRmSbT35yspKlJWViY6RNAYPHowdO3aIjkFEBPApgJDZs2cLv/nv3r07qW7+QGgogMK3YMEC0RGIiM4wfAFgs9nw9NNPi46BP//5z6IjaLZ48WIcOnRIdIykMWLECFxzzTWiYxARAWABgN/97nfIzMwUHQOvvfaa6AgRWbhwoegISeXpp5+G2WwWHYOIyNgFQG5uLubOnSs6BqqqqrBv3z7RMSKyePFi0RGSSseOHTFv3jzRMYiIjF0APPXUU6IjAABWrFghOkLE1q1bB6fTKTpGUvnFL36BTp06iY5BRAZn2AJg0KBB+N73vic6BgBg8+bNoiNErLGxEVu3bhUdI6lIkoSHH35YdAwiMjjDFgBPPPGE6Ahn7Nq1S3SEqOzcuVN0hKRz2223oUePHqJjEJGBGbIAKC4uxne+8x3RMQAAfr8fX331legYUfnyyy9FR0hKnAtARCIZsgB46KGHREc448SJE6ivrxcdIyrcITAy//3f/825AEQkjOEKgP79++PSSy8VHeMMp9MJr9crOkZUXC6X6AhJ67777hMdgYgMynAFwL333is6wreoqio6AgkyZ84c2Gw20TGIyIAMVQCkp6fjxhtvFB3jHHa7HVZrcu/FZLfbRUdIWg6HAzfddJPoGERkQIYqAG688caE+7bVqVMnZGQk915MnTt3Fh0hqSXCYlREZDyGKgDmzJkjOsK3mM1mdOvWTXSMqPTq1Ut0hKSWn5+PiooK0TGIyGAMUwCUl5cjPz9fdIzzKigoEB0hKoWFhaIjJL0f/vCHoiMQkcEYpgD47//+b9ERWjVs2DDRESLmcDhQUlIiOkbSu+KKK5Ceni46BhEZiCEKAJvNhv/6r/8SHaNVkyZNEh0hYmPGjOGNSweJ/m+UiFKPIQqAiy++OKFvUmVlZejZs6foGBG58MILRUdIGbNnzxYdgYgMxBAFwKxZs0RHaJMkSbjyyitFx4hIon+2yWTKlCnIzs4WHYOIDCLlCwCHw5Ew6/635bbbbhMdQbMZM2Ykbc9ForrssstERyAig0j5AuCCCy5AWlqa6BjtKigowPTp00XH0OTXv/616AgphwUAEcVLyhcAF110kegIYXv88cdFRwjbhAkTMHbsWNExUs7UqVORmZkpOgYRGUDKFwDJ9K26uLgY1157regYYXnuuedER0hJVqsVEydOFB2DiAwgpQuAIUOGoHfv3qJjaPLcc88l/JDFvffei6KiItExUtYFF1wgOgIRGUBKFwBTp04VHUGz9PR0vP7666JjtKq4uBiPPvqo6BgpLZnXhSCi5JHSBcD48eNFR4jIzJkzE3KCnd1ux9KlS0XHSHnFxcXIzc0VHYOIUlzKFgCSJCX1JLUHHngg4baJ/eijj9CjRw/RMQxhzJgxoiMQUYpL2QKgsLAQ3bt3Fx0jKi+++GLCrA73wQcfYPTo0aJjGAY/ayKKtZQtAEaNGiU6gi4WLFiAn/zkJ8Ku361bN2zYsCEp51Mks+HDh4uOQEQpLmULgNLSUtERdPPYY49hwYIFsFqtcb3uBRdcgJqampQpppLJ0KFDYbFYRMcgohSWsgVAcXGx6Ai6mj17NrZt24YZM2bE/Fo2mw2PPvoo3n//feTk5MT8evRtnTt3Rn5+vugYRJTCUrIAUBQFhYWFomPobuDAgVi6dCn+7//+LyY9HLIs46abbsL27dtx77336n5+0mbQoEGiIxBRCkvJAqB3794pvUnNlVdeic2bN+Of//wnZs6cCVmO7q+xd+/euO+++/DJJ5/gxRdfRP/+/XVKStHgYktEFEsm0QFiIS8vT3SEuLjqqqtw1VVXYffu3Vi2bBmWL1+OzZs34/PPP0cgEGj1uLS0NAwbNgwjR47EzJkzMWXKFJhMKflPIakNHDhQdAQiSmEp+VvfaN9g8/LykJeXh9tvvx3BYBAHDx7E3r17cfjwYTQ2NiIYDMJqtaJDhw7o1asXcnNz0alTJ9GxqR1DhgwRHYGIUlhKFgB9+vQRHUEYWZaRm5vLleRSQJcuXSBJElRVFR2FiFJQSs4B4M2Pkl1dXR0uvfRS3vyJKGZSsgDgcrWUzBYtWoSSkhJUVVWJjkJEKSwlCwA+u07J6re//S0uvfRSuFwu0VGIKMWl3BwARVHQsWNH0TGINPH5fLjuuuuwcOFC0VGIyCBSrgDo0KEDMjIyRMcgCtuePXtw+eWXY+vWraKjEJGBpNwQQEZGBtLT00XHIArLO++8g5KSEt78iSjuUq4AcDgcXNSGksJDDz2ESy65BE1NTaKjEJEBpdyd0maziY5A1CaO9xNRIki5AiDeW+YSaVFXV4fvfe977PInIuFSbgiA3f+UqBYvXozS0lLe/IkoIaRcAUCUiObPn4+LL76Y4/1ElDBS7uuyJEmiIxCd4fV6ce211+KNN94QHYWI6BwpVwAEg0HREYgAhMb7L7/8ctTW1oqOQkT0LSk3BODz+URHIMKSJUswfPhw3vyJKGGlXAHg8XhERyCDmz9/Pi666CI0NDSIjkJE1KqUGwJwu92iI5BB+Xw+XH311XjzzTdFRyEialfK9QA0NjayF4Dirq6uDiNGjODNn4iSRsoVAPX19ex6pbh74403sG3bNtExiIjCxgKASAfcgZKIkk3KFQAAcOLECdERyGC4AiURJZuULAAOHTokOgIZjCyn5P+ViCiFpeRvrQMHDoiOQAbDHgAiSjYpWQDs379fdAQyGC5BTUTJJiULgM8//1x0BDIY9gAQUbJJyQJg9+7doiOQwbAHgIiSTUoWAHV1ddwTgOLKbDaLjkBEpElKFgBHjhzBnj17RMcgIiJKWClZAADArl27REcgA+EcACJKNilbANTU1IiOQAbCdQCIKNmk7NeW6upq0RHIQBRFidu1JEjIsfWERTYhoKqajpUhIaiqOOzZj4AaCO+YtDSYuneF6vMCqrbJjpJsQqD+FAInTmo6Tk+S2Qxzz55Q1QAQxsclKTLUgA++fQdjH661DBozf02FJJsQdDvhP3TkW39qlxTkSHYEoWo7rUEokOBBAIeCLtFR4iJlC4CNGzeKjkAGEs8eALNswT9Hr8GQrN445tH2azzDJOG4140LVvbHUc9XYR2jdMjCgM2rIadnItikbZ8Nc1o3NKxdhj3jpms6Tk9d7rkTub//AzzOw0AYBZNksUA2p2H32PFwrhPze6TDTdeh7/Mvwus6AjUYDP9ASYLV0RX7f/kTHH34iW/98QRTV7yTcQGOB93wswT4lm6yHWv9RzCx/j3RUeIiZQuAgwcPYufOnSgqKhIdhQwg3kMAVtkOuwLYZG3fyEPH2CAh/ON8Bw7CW7cHGaXj4LP7oeHQ0DVHlsLUNRv+w0e1HaiTtGkTIQGQbbaws1tgRdpEcQWAY/RwyAAkqxVanjCVJBNUAK7K8/eAypBglhTYJYUFwHmYJAVWyTjDeSlbAADAmjVrWABQXMRzCAAAXIEmNPmz4QyE143fQpEUOANOzR3ATStWIaN0HIJNTZqOU81uKLZs2IoHo/HwCk3H6kHJzIBteAl8cGrKHsjIgqN8VAyTtc1WVAg/VM2ft5LREe4jn8G54fyFSwAqPKofTaqfBcB5ZKh+uMIcGksFKV3qfPzxx6IjkEGk+iRAV2V16Hah8X2q/iAUyLCVlsQkV3vso8tg7dQXQbe2oYsA3LCNHgbZbotRstaZOneGpXAgAtB28wcAGXa4N9ci2NAYg2SUalL6t9aHH34oOgIZRLx7AOLNtakafv8pyDartgObx9xtJUNikKp9jooxkCFB9fo1HRf01MPaNQ+2kcNilKx11pLBMHfMRdCtsQBQVSgAXFVbYhGLUlBKFwAHDx7E5s2bRccgA0j1pYA9dXvg+eQTKEqW5mMDCMBWPCgGqdrnGDsq1HOh8e9H9figQEHa2DExydUWW8lgyFAAn8auaJOCIADXRj4BReFJ6QIAAN57zxizOUmslF8ISFXhqq6BDDmsmfRnC6qNsObnwdwrN0bhzk/p2AH2smHwR9CVDkmCilABEW/20hKt8ywBALLdAa/7CFybWABQeFK+AHjnnXdERyBKCWdmlmv8Nh10uWBydINtaHyHARxjymDJ6g3VHdl4eAAe2EcPh+xw6JysbdbiQQhCw6N/zRQpA55tO+DbL279AkouKV8ArF+/HgcOHBAdg1JcyvcAIDQPIAAfJJtF24GBIGQA9qHFMcnVGvu40VAAqN7IZnUHvadh6ZoHexznAZi6d4W1aCAC0Fi0qCpkSBz/J01SvgAAgLffflt0BEpxqT4HAADcNbXwfLUHijkjouNtpfHtAUgrHxX6Hh3hX43q8UOBAse40XrGapOtZAjMjm5Q3W5tBzYPWbgqq2KSi1KTIQqAV199VXQESnGp/hQAEOrKd1dvhQyNTwIACMAHa/EgzcMHkVI6d4JtRCkCagTj/2dRATjK41sAhJ5a0LaduWS3wY9GuDayAKDwpX6/JYC1a9di37596N27t+golKKM0AMAhGaYd7rw+6GJgBrecyDYCMuAPFgG9IP3s9hv1R0a/+8Fn+tQVOcJwA172VBIDjtUZ+zXh7eXFkf01IJsyoCnrhbu7W3vguqQTLAqGegBEzRuMhAhCUdUJxpVH0wav2+2pOspO2AKDebonu5bFAd6Bo2zhoIhCgAAWLBgAe6//37RMShFGaEHAAgVAEGogFkB/OFPVFNdHljSusFWUhyfAmDcmNDtRkPG8wl66mHpNgD2kcPgXLlWl2xtsQ4uDH2+Gikww1W9td0nNA4Em7DM/RnqVS9ivd5dECqCUFGidEK2bINH4wp7SvPYzXu+/WiIoICIRCfJitqguI2r4s0wBcALL7zAAoBiJtVXAmzh2lQNX+MByOlZCDZoWF0vEIAEwF46BPVv/jtm+Vo4xo6KYB79t6lePxRraD2AWBcA5l65sBYMRFCt13yshPDG/zf6j2N6w/sRpIvcK+kTcI2Sh32qtm/WVkmGBAm3Nq3BkaDGOREUFmP81gLwxRdfcGVAihmjFAD+I8fgrtkBBenaDmyepGaLw5MApuwusA8fiqCqbfnf1oTmAcR+PQBbyWCYbDlQPdpudpLFhAD8rW4AJJoJckS9GmpzS5fMumeiEGP81mr25JNPio5AKcooQwAA4Nq0BXIEU+uD8ME6uBCSOba/0O3lo2DJ6ImAK7oJgC0CcMM+qjTm+wKEJgACqsYVAGVrBrxH9sK1eUtMckUr2tkxpqjPQK0xVAGwePFi7N+/X3QMSkFGmQQIAK6NVc0bA2l7z4FAAyz9+8OaPyAmuVqkVZSHbhl+fUa5g+56WLrlwV42XJfztcY2dEhE09wU2OGu2Y5goz4FDxmHoQoAgL0AFBuKohimCHBtrILffxKSTds3YtXthQkZsJXGdhjAMW50qMtZp78P1eeDAhMc48p1OV9rQhMAtc9ckAC4NnHPE9LOcAXAc889B6fTKToGUdLyfLob7kg2BgoGISG2OwOau3eDffhQBHQa/w9p3hdgXOw2BrL06wPrgDwEgxonAJrk5gWAEnP8nxKb4QoAp9OJZ555RnQMSjEmk8kQywG3cFdvgxLBxkChiYCxKwDs40bDbMtBUKfx/xYBuGAfPQxyWmz2BbAWD4bJlo2gxhUAZZsDPvcR9gBQRAxXAADAI488gkAg1k/BkpEYpfu/xZktZzU+/RCAB9ZB+ZBiNKEubdyY5vF/PR4C/FrQ0wBLl34xmwdgLy0O/TIOaMutSBlw1+6Abz/3OyHtDFkAHD9+HE899ZToGJRCTCaTsZ4E2FiFALyQrNpm9Ad9DTD36gfboMKY5HKcWf9f34JM9YQWonGMjc0wgK1ksPYJgM0bALmramIRiQzAkAUAADz44IPwer2iY1CKkCTJUL0A7q2hjYFkjRsDhW6kjpjMAzDn9oSttASBCBbSaZckIYjQAkP6nxuwDilCENrW/295CsPJ9f8pQoYtAOrr6/Hwww+LjkEpQlEUwywGBABBpwvu6looWjcGUtXQRMAYzANwjB0Ns7WLpvF/SUOvTWhfgGGQ09Iiidcq64A8WPr3RzCgbaU8yWaFH86vh2OINDLOb6zzePjhh3HypHHWfabYkWXZUAUAEFoWWAY0TwQMIjZPAjjGjQ5//F9VIZlMobkIYcYPeuphyekHe9mwaGJ+i61kCMzmTponACqmTHj2fArPjrY3ACJqjbF+Y32Dz+fDj3/8Y9ExKAXIsmyoIQCgZR5AaClaLYJwwjqkAHKGxuWE2+EoLwv/+X+zgsDp02hY+kFzV3r7VYDq9UOBAsdYfbcHtg0rCRUuQW2FlAwzXJtqoOq04BEZj6ELAAB46aWXUFtbKzoGJTlZlg01CRAAXBs3w9f0FSSbtkfjgt4mWLJ7w1Y8WLcs5t65sJUUIxA8HdbrFXsWfPv24/DPH4Dq9UK228M6TgX0LwAinAAoIVSEEUXK8AUAANxwww2iI1CSM9okQADwHzkK99btUKB9IqACi67DAI5xY5rH/11hvV6BHd7de+Gu2Qbv5/sgm8Jb1CgAN+wjS3VbD0Aym2AdUoQAtE1Ilizm0AZAHP+nKLAAAFBdXY0///nPomNQEjPaY4AtQhsDaacCsA8r0S3Hmef/w+xGD317Di2e49q4GQrC+7sLuk/D0rU/7GUjIgv6DZaCgbD066d5AqBsS4f36BdwVfMRQIocC4Bmd955J44dOyY6BlFScVVuCnVfa+z8UAFYS/QbArCPHYUAwhsLl6wW+OFB06o1AADnqjVhb26k+gKheQA6LQtsLxkCEzKguj2ajlPggHtLLYIN2goHorOxAGjm8/kwe/Zs0TEoSZnNZkMtBdzCubEK/sDpsMfQWwTQCOugfChdOkedwdKvL+xDhiAYCO/5f8XSAZ7dO+Bu/vbctHodfN7jkO3hdeurCC04pAdbyZBQ7aRlBUCJGwCRPlgAnGXp0qV49dVXRccgShreT+rg+fQTyIrWeQBOmDN7wK7DREBHxRiYzB3DG/9XVSgwwbl2I9Rg6Kbr++JLuGu2QpHDnQfggr1Mn3kAtpLmLYC1zB+RQ4sScQIgRYsFwDfceOONOHLkiOgYlGSMthDQ2VxVNVCgrfej5ZE6qw4LAqVVaBj/V0J/R00r157zY+eaDWGvaRB018Oa0x/2USM1Zz2bbLPBOjgfQY0TAGVbGnzOw+wBoKgZ8zdWG3w+Hy699FLRMSjJGPEpgBauyuZvohG8f3tpcdTXt48dhSACYV1fttngCzbAuXLNOT9vWrUu9E3c3P5kQNXrhwwZaeOiexzQUjAQ5t79EfBr27pYkTPg2bETvi+5ARBFhwXAeaxfvx6/+tWvRMegJKIoiiGfAgBCY9F+eCNYEEiFdUhRVNe25g+AbfAQBIJhjv8rHeDethWeT+vO+blz7Xp4nYcg28JYnEiSdFkPwF4yGCY4AI+GPQCaNwByVW+N6tpEAAuAVv32t7/FsmXLRMegJGHkHgB3TS28B/dAsWRqOi6gNsBaOBDmHt0jvrajYgzMUgaCzvDG/2VIcK5e/60/8h86AtemzTBJ4a1OGIALtlHDIGdqm/twNmvzBMCWuQhhaR5m4vg/6YEFQBsuu+wyzgegsBl1DkDQ6YR7cy1kjRsDqW4XzGk9YIviccC0lsfxwhz/VwE0fbz6vH/sXL0+NJcgnHkAngZYO/eLaj0A29DB0HDrBwBINgt83ACIdGLM31hhcjqdmDp1qugYlCSMWgAAoY2BtPZ/qP4AZAC2oZHPA7CPGYkAguGN/zvS4XUd/tYEwBZNq9aGbsjhzAPw+KBAinh7YNlug3VQPoLQ+Py/KQvePZ/Bs50bAFH0jPsbK0y1tbWYNWuW6BiUBIxeAAQBSCZt8yBCCwJF9iSAtTAf1qLBCPhPhfV6RcqAa2M1/IfP36vnXFcJ76l9UOxhdOtLoUfxHGPKwg98FuugQlh69kPQq20CoAwT3NVbofr9EV2X6GzG/Y2lwcKFC3H//feLjkEJzqiTAIHQksC+poPaNwZCALbiyCYCOsaNgUlKD28VPVWFDMC56vzf/gEgeLoerg1VUJAW1vVD6wEMg5yhfR6ArWQIFNiherVNAJQAOCs5/k/6YAEQpvnz53O/AGqTUScBAoD/0GG4t+6AImm7GQaDDbAOzIO5bx/N13Scef4/jJF0i4IgVDR9vKbNlzWtXtc8D6D9UwY9DbBm94ejbHgYac9lKy0Oe77BGVYzAghw/J90wwJAg9tuuw3vvPOO6BiUoOwal8NNNe6qLWEvptMi6HbDZMuBfaj2iYCO0SMQgD+s8X/FlgXPsT1wrq1s83XOlWsRQACSJbz1ACKdB2Ar1j4BULGmw3tiH1zVWzRfj+h8WABodMkll2DFihWiY1ACcoW5FW2qclY2fzMNY1OdMwLB0ETAUm07A1oHF8FaOAgB/+mwXq/ADte6KgSbmtp8nXNjFTxffQbZFt6ywEFo3xdATk+HdXABgnBqOk6BA+7qWgTrtc0bIGoNC4AITJkyBatXn/9RIjKm+++/Hzt37hQdQyjXxir41AZIdpum41SExsS1SBtfHhr/d4U3i14Czuz+12YWlxuu9VVQYAurJyMAJ2wa5wHYigfBktMLQW/bxcg3hTYAYvc/6YcFQARUVcXEiROxbt060VEoAcybNw/z58+HqmU8NwV5dn0Kz6efQFG0LQgUhA+2kkFnFrkJh2PsmLAfO5SsZvjhbXf8v4WzZR5AGD0ZQXcDLNn9YB8V/noA1pLBUGCF6tawB4AcWn3QVbkp/GOI2sECIELBYBATJkxgT4DB3XfffXjwwQdFx0gY7gg2BgoGG2Hp1x/WgXnhHSBJcJSPQADhzaBXLB3g+XzXme1/29O0al1oaWOrpd3Xqr4AFI37AthLSzTvACg7HPC5jnACIOmKBUAU/H4/JkyYgKVLl4qOQgLccccdeOyxx0THSChn5gFoEHS6YVKywl4QyDZ0CKwDisIb/1dVKDDDtXZj2M/OuzdvhWfvLijm8OYBqAAc5eEXALYhg8J+bQtZyoB7xy749h/UfCxRa1gARElVVcycOROvvPKK6CgUJ6qq4vLLL8ezzz4rOkrCcVZWIaB1Y6BgEBIA27DwJgKmVZTDBHt44//N3fhNK8Pr/gcA1e+Ha91GKDCHPQ/AHua+AEqnjrAOLkAA2sb/Fchwc/tf0hkLAJ1cd911ePLJJ0XHoBg7evQoysvL8fbbb4uOkpA8W2rg+WovZKuGeQDNu+uFOxHQ0bL+v9p+F7pkt8OPJk0FABBaDwBA+PMAOvWBY/TIdl9rG1IEc8dcBL0angBoHipwcgIg6YwFgI7uuecezJkzR3QMipG1a9eipKQEGzZsEB0lYQVdbng214Zm0WsQgBe2IQWQrG1vKCSZTLCPaR7/D2MI3aRkwVW7FZ6dn2rK41y9Dn64wnqiQfX6IUMKaxjAWjIEChSoGrYAlqwW+LkBEMUACwCdPf300/jud7+LhgY+q5tKnn32WYwbNw6HDh0SHSXhOSPYGCgYaIC5d39Yi/LbfJ1tWAmsfQsR8NW3f1JVhQwZzlXf3v63Pe7anXDv2hbeEw3NPRjhLAhkb+nl0PDEiGzOhGf3J9wAiHTHAiAG3nvvPQwfPhxbt24VHYWi5PP5cPPNN+OOO+4QHSVpuCqrQrPcNWwMpLp9MMPx9Q2yFWnjxsAES3jr/7ds/7sygid1VBXO1ZWhJxq0rAeQ2XbBYCtpXgFQwxMACsxwba7lBkCkOxYAMVJXV4fS0lK89NJLoqNQhDZu3IihQ4fib3/7m+goScVVtQXepq8ga9kYKBAAAFiHtl0AOMaODhUXYdyUZUcafO6jaPq49Q2A2tK0el3oWuHMA/A0wtqpLxyjW18PQOnSGZbCAQiojZpySADcGzkBkPTHAiCGVFXFjTfeiB/84Afws3pPKg8//DBGjRpl+NX9IuE/dBgerRsDNW+va2ujAJDMZthGDW8e/w9j/X8pA65Nm+H/KrJhG+eqtfD7T0EOY4+H0L4AoQKlNbbiQTBn5UL1hD8BULKYEESQEwApJlgAxMELL7yAoUOHYs0abTORKf5qamowceJE/PKXvxQdJam5ItkYCG7Yigogp59/O17b8KGw9slH0HsqrPPJkNDUxva/7fHu+RzurVuhKPrsC2AbWgwFMlR/IOwMsjUd3hNfwM0NgCgGWADEyY4dO1BRUYF58+aJjkKteOihh1BaWoqVK1eKjpL0nC0z1pXwf8UEvQ0w9+gL66DC8/75mfH/cGbQmxQEATg/jm6lzqY1GyCH+WsyACfsI0tbXQ8gogmAcMC9uRaBU+FtekSkBQuAOHvwwQcxbNgw9gYkkHfffRfFxcX49a9/LTpKynBvqoIPjZBs4T8OqHr9MMHa6kTAM9+uw7h/KvYMeI7vbXf73/Y4NcwDCLgbYOncF45W9gWwFhchqGUTYFWFDMBVxfF/ig0WAAJs2bIFFRUVuOuuu1BfH8bjTBQTu3btwqxZs3DhhReitrZWdJyU4j6zMZCGeQDN34zPNw9AslhgHz0cfnjaf/5fVaHAAdeGKgSifBy3afU6eJ2HodjPPyxxDl8gtB7A2DHf+iNTt66w5g9AQNWwAmDzUwyRLK9MFA4WAAL98Y9/REFBAf7617+KjmIoR44cwT333IPBgwdj4cKFouOkpqAK96YtkLVuDAQV1vP0ANhHDoO1Vz4CnjC6wiUJEkKT+KLlP3gI7uotkOXwVjZsbT0AW8lgmDN7IugKfwKg7HDA5zkGV2VV2McQacECQLBDhw7h1ltvRXl5OZYvXy46Tkqrr6/Hb37zGxQWFuLJJ59EMKihO5Y0c25sXhBI00RAF2yD8qFknXvDdVSMCa3NH8b4v2Q1IwB/xI//fZNzzYawf1EG4IRt5FDIGenn/Nw2tBgypDOPO4ZDltLh3r4Tvi/3a0hLFD4WAAli/fr1mDZtGi699FJs2sQ9v/V07Ngx/P73v0dBQQEeeOABnDx5UnQkQ3BtrEYAvrC21W0RdDfC3CUXtuLB5/w8raVbPZzH/yxZ8Hz5CVzV+oydN61eDxWAFMbCRgFXA6yd+8Ixpuycn4e7z8HZFChwV23RfBxRuFgAJJhFixahrKwMV155Jdav176EKX3t888/x09/+lMMGDAAP//5z7mMb5y5N9fAe3gvZGt6+y9upvr8kGGBtfTrrYFlhx32McPhhzuME6hQYIFzTSVUjzeS2N/iXLsBntNfQrKF8T58fsiQ4agoP+fHtpJBCCD8b/+Q0Dz+z+5/ih0WAAnq9ddfR3l5Ob73ve9xaECjjz/+GDfddBMKCgrw6KOP4vRpPkIlQtDpgqt6GxS0v5DO2SQA9tKvtwa2lw2HtWsegp4wJsxKLdv/6tP9DwCBEyfg2lgNRQpjIuB59gUw986FNX8AghpWAJSsVgTUJrg2sgCg2GEBkODeeustTJs2DWPGjMHf/vY3eDxhrIFuQMePH8czzzyD8vJyTJo0CX//+9/h9erzDZAi5960WfvGQFBhKx505n87xo2BHOYOepLDBj+ccGrc/rc9zjUboABh7wtgHzkMSofQAkK2kiEw2XKgusPowWimmDPh2fsZPLVciZJihwVAktiwYQNuvvlm5Ofn4/7778eOHTtERxLO7Xbj3XffxU033YS8vDzceeedHDZJMM6N1aEn3zUsCBRAI6yD8qF07gjgrPX/wxn/VzLh3lkL93Z9b5zOVesQgApY2n+qIehugLVDb9hHjwQQKgBkhIY3wiXDDPfmWqgaJg0SaaXtGR0Sbt++fZg/fz7mz5+PadOm4b/+679w8cUXo0ePHqKjxd2cOXPwwgsvRH2eTFMHDMkajiBUBDXMWAcAm2zCEc8x7GrYEnWOcMmSAllStEyuP0cQKoJaxqOj4NpYDV/jQchpGQg2hvdMvup2wZzeHZa+feA6fhL2UcMRCGv8H1BgQtPKdVGm/jbnho3wHN0Dc3YPBHxtTyJVvX5INsAxpgyN/1kO29AhYRcwLSSEPjuiWGIBkMQ++OADfPDBB5g7dy6mTp2KCy+8EDNmzED//v1FR4sLt4Yu1bYUZAzFf8YvhzsAeDQ+GdjTAfxr/2ZcsW64LlnCYZPtcCgZCERQAEgSEAj64A3EZyjJf+gwPLU7kD5mKoIIswDw+iDbZJh75cK3/yCs2f3g8xxr/0AZzdv/6r/KZrCxCa71m2C7eBYCaOcpkuZ5APahoYmM1vwBmgquMxsAcQIgxRiHAFKA2+3GkiVLcMcddyAvLw/jx4/HvHnzsGLFCt1ukomotLRUl/O4g040+gFnQHtr9IW1Mq2uMs0d0dHcQXOxAgCKBLgCjWgKaNuSNhquqprQM/DhflDNN1BrUQEyvjMttBa/t/3uc9mRBp/nGJwfx2aZ7abV68Je1yAAJ8wD+8M+bChMOdkIBsNfkfDMBkCbayIPSxQG9gCkoNWrV2P16tV48MEH0a1bN4wYMQJlZWUYO3YsCgoK0Lt3b9ERdZGXl6fLeZr8DWgMhLpdvUFtXeONfgUZpg665AhXN2suMsxAQwQ7TJsl4KTvOIJq/MaWnRurQ/d+RQKC4VUBAbiRPmMq4PXCr4ZXxCpyJhqqP4DvwMHIw7bBuXJtaF0DW/sbEgXdDTB1zUHnu2+HZLdB1TB5V4EDjVu2cwMgijkWACnu0KFDWLJkCZYsWQIAMJvNGDRoEPLz8zF06FD06dMHQ4YMQU5ODrp16wZZTp5OocGDB7f/ojA0+E+jwedCZ4s9nJHmc3iCQLa1Jzpbu+K457AuedqTn1GMjmbgpFd734NdAY64Y3ODbI1rYzX8agMkmxWqM7xPONB4PLSpjklBoOk42t8AoHn73xiM/7dwbdoM975dsPbOR8BzvM3Xqr4AZJsNmd+/HAgGw98CWFVD4/+buAEQxR4LAIPx+XyoqalBTU0NXn/99TM/N5vN6NOnD3r27InOnTuje/fuyMnJQadOnZCVlQWHwwGHwwGr1QpFUWAymeD1etHY2IgpU6YgLS2MZ6R1lpeXhx49euDgwehuaCe9x3DCexg97H01f6v2BIFudgv6OQriVgAM7zgBKoAggpofsTPLwH733ljEapV316fwfPYJ7PnDwlvMBwCCAGQV8PlD/729N2qSQ9v/xmD8v4Xq98O1rgppvYvDG9GXJEiKomkmv2RSoAJwbeIEQIo9FgAEIFQY1NXVoa6uTvOxs2fPxoIFC2KQqm2yLGPkyJFYtGhRVOfxqz4cdh9AWae+mo/1BgPoZFZQkjUam06ujCpHOCyyFeM6T8dxbzjfib9Jhk8F6hq3xyBZ69RgEO7qbUjLHxn+QZL09Y0znMf/bJnwntwH59oNEaYMj3P1OmDWjaEPv70OGFWFqnEtCsluh893nE8AUFwkT38vJayXX34Zu3fvFnLtiooKXc6zx7kLZg3z1FpIANwBYErO93TJ0Z6Z3a5CcVYmTvu0d/+bZQmnvUDt6Y0xSNY218aqCAqW8CmSA67KTTEfN29atQ5+OCFbrTE5vyJlwFO7E97P98Xk/ERnYwFAurjnnnuEXHfGjBm6nGd7fRUgAVIEt6nDHuCCrqMxMF37hi9a3d7/l3AHARXaHwHINAF1TYexsz7+48uuymoE4IdkNcfk/BIQ0/H/Fu6ttXB/sgOyuUNMzi9DhosbAFGcsAAgXSxatAi1tbVxv25JSQn69OkT9XmqTq7GMQ9g0bBiXQt3IIAOZmDuwEeiztGWq3vdhWldB+KgS/vYvwqgkwXYdOIj+NUIHh+IkmvLVniPfg7ZEv7GQOEKbf8bQNOq2I3/n6GqcK3bBAWKpm2Owzw5AG4ARPHDAoB0c/fddwu57mWXXRb1OT5r2IYd9XvRKYIvqLIEfO5UcUPf72JCl0ujznI+fRyFeHzoUzjsBtQIVh6QIcOvAu8ffjMG6doXbGyCO4KNgcKhWDLhOfgZXBvj07PRtLq5p0HnJ2YkmxV+ODn+T3HDAoB08+GHH2LDhthOwjqfa6+9VpfzfHTkX8gyA2oEwwCeQBCNPuClsoXon1bS/gEadLL0wFtjP0S6ScIxbyCib/+drRJqTp3AR0ejmzAZDdfG6pjMA5BhDW3/G6dFr5yr1sIXrIdk17eYkVs2ANoW30maZFwsAEhXd911V9yvWVZWhoKCgqjP89aBv+GYB7BG8M1OloBDngA6WCxYOn4dyjtPjToP0LJMcSUKM7pjb1MApgjuoKoqoasVeOPAX+ALitsh0VlZpXljoPaFyrVYPv73TZ5P6+CurYWiZOp6XhMscFdv5QZAFDcsAEhXlZWVWLFiRdyve/vtt0d9js8aa/HBkXXItYe9YN05TBLwhTOAzhYH/j32A9xb8DDSTVkR57ml3z1YNr4a+Rk98VljhDd/AJ0sMvY0AX///ImIs+jBtbEaPuchyHaHbueU7Db44UJTjJb/bU1oe2BZ93kA8RrGIAJYAFAMzJ07N+7XvPnmm2HV4dGsZ3fPgwrAIisRHW+SgP2uAJoCwEODf44PJuzCvfm/R2mHcpjl9icY9HEMxE1978L742vxzLAnIEtyxN/8gdC3/5524I91j+KE92hkJ9GJ/9BheLbtgCJl6HZOxZQF9yfb4Y5zt7lz1brQTAyd5gFIZgUBBOHayAmAFD9cCIh0V1NTg8WLF+Oiiy6K2zUzMzNx++2343/+53+iOs/a48vw5oG1uKrXWOysDy1fr5UiAY3+AD5rlNDb0Q0PDfkp5nh+irrGvdjbVIfPnZ/hpPcY3AEXZEiwm9LQw9YH/dMKMSRrBPo4JDgDQF2jChXBiG/+ARXo7ZCx4cRRPFP3q8hOojPXps3IHD1Ft/MpMMG5KvaP/31T06q18HmOQXY4EGxqivp8si0DvuNfwFXNDYAoflgAUEzMnTs3rgUAANx///1RFwAAMG/7Lfhut53oaFFwyheIqJssdM9WccIbwAmvBIssY1BGPwzv0A9m+QLIUqj7TW1u/iDgCwKnfMCeptCNX0Ikq/2h+cpAukmBXQHmbrkOPlXc2P/ZzmwMJEnRd583L9wU7+5/APDtPwDXlhpkjJ6CIHQoAOCAeys3AKL44hAAxcTu3bvxz3/+M67X7NKliy7DD3ubduGn2+5HLwegQNJhu18V3mAAx7wB7HcFsLcpgN2NAXzWGEBdY+i/f+EM4KA7AGcgAESwxv+5VwttjNM/A/hV7f9g/Yn3o34HenFvqoY/2ADZFv1wjWR3wOc9jqY4TgA8m3P1htA2xzr8C5HBDYAo/lgAUMzcd999cb/m/PnzdZkL8Ne98/HCnv+gKFOGqsZyEVt9hW5FEgZlyliw90M89ulcsYG+wb3zU3jqPoEcxeTIFiYlC67qLfDt269DMu2cq9bq81SDEtoAyMnn/ynOWABQzOzfvx9//vOf43pNh8OBv/zlL7qc6/bqi7HsyHYUZcoRPRUQby03/6IMGYu/qsJNm74jONF5NG8MJOuwkp4CCc7V63UKpl3TmnXw1e+HbI9uUqNss8HnPQ43nwCgOGMBQDH1i1/8Iu7XnD17Nl577TXYbLaozhNQffje2vFYd/wzFGcpUCHr0NkbG0EVUCQFQ7JkLPlqAy5dOxZB1Sc61nmdWRAomhn0JhkBxPf5/28KHDsBV9UWmKToljdW5Ex4duyE9/MvdEpGFB4WABRTx48fx1NPPRX3686aNQtbt25FWVlZVOdp9J/EzNWj8e+D6zAkS4JNVhKuNyCgqsg0KyjKBP669x1curYCwQSZ9Hc+rk3VCCAAyRL5HGTFlgFf/X40rRHXAwCE1gOI6peoqkKGBFf1Vr0iEYWNBQDF3Lx58+DVuC+6HgYOHIjKykrMmTMnqvM0+U/isrVj8ftdz6OXA+hhVxBQ9Zj6FZ3QEwQS+qeZkGkG/l/NQ7h10yUA4r/ZjxauzVvhPbo3qo2BFCkNzg1VCJw4qWMy7ZpWrUUAKiRzZOtGQArNL3FxAyASgAUAxVx9fT0efvhhYdf/3//9X7z88sswm6Pbivbn227H99ddgy9dh1CSpaCDOdQbEO9CQAUQVCV0sSgYlCGj8sQOfHfVVPzh01/HOUlkgg2NcFfXRrExUPPyv6vj//z/NznXb4Tn+OeQbZEtCyzZLfDDzQWASAgWABQXv/vd79DY2Cjs+tdddx1qampQWloa1Xne+eqfGP9REX61/TG4Ax4MylSQbVUgQYl5IRB6vE9BV6uCQZkyjnmO4+6a+zF15WCsP/FhjK+uL9em5nkAEUwElKxmBBEU9vjf2YL1DXBtqIq4mJFNmfDuq4N72w6dkxG1jwUAxYXX68W8efOEZigqKkJVVRVuvfXWqM7T6D+F3+68D1M+LsJvdjyJfU1fobcDyEtT0MmiwCQpiHwJn2+SoEgKOpoVDEhX0MsBfNr4JX6y9TcYv6IAT9fN1+k68eVqXhBIsloARdHUFEsneA7vSZhu8zPzAGRZ83sxwQJX9VaovsScsKkHGRJkSFAibBQ7EoB6APotzk3UClmWcejQIWRnZ4uOgr/85S+4/fbbEQwGoz5XmpKOaV0vwpScSzCi4yTkpXdHhql5cZcA4AyEVvkLqKEWhIqg2rIGICBBgiTJUKTQMsJmCbApQLop9H/QRj+wu/EwNp78CMuOvI3/HPo3vMHItr5NT08X2hPTwtyzO4r2fw4FFgSg7e/AChlHFr+OLy6+MkbptHGML0fhytCaAEFN70WCFRI+/9V9OPrbx2IVT7gPMmZgqjUP3qC2f3eW5kJ68Kk3sSPAFRJjoIEFAMXVbbfdhueee050DADAli1bcM0112Dnzp26ndOq2DA0azSGZo1EfsZw9HUMRK69P7IsHeBQQkvzWuTQTb55/heCKuANAu4g4PQDDf5GHHIfwJ7GbfissRaVJ9dg6+l1aPJHvuTsNddcgx//+Mfo1asXqqurce+992L7drH7zjvGjoaS1QGqX9sEUVmxwrVrB3yf74tRMo1kGWlTx0M2WaD6tU3AlBQrnJWVCJw4EaNw4pUqndBNtsMNbdscy83f/jf4j6JJTeyJrUmKBQDF34EDB9CjRw/RMQAAPp8PN910E1555ZWYXcOhpKOzJRudrd2QaeoIhykdVtkGWQqNwAXUAFyBJjT4T+Ok9yiOuA/gpO+4LtcuLS3FI488gunTp5/zc4/Hgx49euBECt94iKhNDUCoAFDZ2OLVrr32WjXR/PGPfxT+uejZMjMz1ccff7zN9/zGG28Iz8nGxias1QMsANgEtLq6ujjd2sNXWVmp5ufnC/9som133HGHeuTIkbDec0VFhfC8bGxsQhoLADYx7aKLLorx7TwyLpdLvfrqq4V/PpG0Sy65RN2yZYum91tXVyc8Nxsbm5DGAoBNXNu6dWuMbuPRe+qpp4R/PuG2iooKddmyZRG/1x//+MfC3wMbG1vcGwsANnFtypQpOt6y9bdu3Tp1wIABwj+n1tqIESPU//u//4v6ffp8PrVz587C3w8bG1tcGwsANrGtsrJSh1t17DidTvXKK68U/jmd3YYNG6b+7W9/0/V9vvnmm8LfFxsbW1wbCwA2sW3EiBFqY2OjrjezWHjiiSeEf1YlJSXqggULYvYex40bJ/w9srGxxa2xAGAT37p06aJeddVV6gsvvJCQTwe0WLlypdq7d++4fz7Tpk1T33777Zi/v08//VT4vwU2Nra4NRYAbInVJElSy8vL1V/+8pfqRx99pLpcrpjf+LQ4efKkeskll8T8czCZTOpVV12lLl++PK7vb+7cucL/DbCxscWl1XMlQEpoubm5mDhxIqZPn47JkyejV69eoiMBAB5++GH88pe/1P28hYWFuPrqqzF79mz069dP9/O3x+/3IycnBydPnoz7tYkorrgSIFvyNJPJpE6cOFF94IEH1LVr18b1m/H5LFu2TM3Ozo76fWVkZKjXXnutumTJEtFvSVVVVV24cKHwv2s2NraYN/YAUPLq27cvpk6diqlTp2L8+PHIzc2Ne4bDhw/jhhtuwH/+8x9Nx3Xp0gWTJk3CxRdfjO9+97vo0qVLjBJGpqKiAmvWrBEdg4hih5sBUWqwWq0YN24cpk6dimnTpqGsrAySFL+9xH/zm9/ggQceaPXPu3XrhsGDB6OsrAwTJ05EeXk5srKy4pZPq7q6OgwcOFB0DCKKHRYAlJoGDhyIyZMnY8aMGZgwYUJcvmFXVlZi06ZNOH36NEwmEzp27IiuXbuiT58+KCgogNVqjXkGPd1zzz148sknRccgothgAUCpLz09HePHjz8zXFBaWio6UlLw+/3Izs7GqVOnREchIv2xACDjKSoqOjNUMG7cuIQbf08kCxcuxKxZs0THICL9sQAgY8vKysKqVatQXFwsOkrCGjduHNauXSs6BhHpq0EWnYBIpNOnT+Pw4cOiYyS0BQsWiI5ARDHAAoAMz2aziY6Q0PLy8nD33XeLjkFEOmMBQETteuyxx9CpUyfRMYhIRywAiKhdZrMZzz77rOgYRKQjFgBEFJYrr7wSY8aMER2DiHTCAoCIwvbSSy+JjkBEOmEBQERhy8/Px9y5c0XHICIdsAAgIk0ef/xxTggkSgEsAIhIE0VROCGQKAWwACAizTghkCj5sQAgoohwhUCi5MYCgIgiMnDgQMyZM0d0DCKKEAsAIorYE088gaysLNExiCgCLACIKGJmsxnPP/+86BhEFAEWAEQUlVmzZqG8vFx0DCLSiAUAEUXt73//u+gIRKQRCwAiilp+fj4nBBIlGRYARKSLJ554Ah06dBAdg4jCxAKAiHTBCYFEyYUFABHphisEEiUPFgBEpCtOCCRKDiwAiEhXBQUFuPPOO0XHIKJ2sAAgIt1xhUCixMcCgIh0Z7FYuGUwUYJjAUCGl5OTIzpCSrr66qsxevRo0TGIqBUsAMjwVq9eDVVVRcdISdwymChxKQB+DsAqOgiRKIsWLcLLL7+M7du3w+VyoWvXrnA4HKJjpYTOnTvjxIkTqKysFB2FiM7llQDUA8gQnYQoUWRmZqKiogLTpk3D9OnTMXjwYNGRkprX60VOTg5Onz4tOgoRfa2BBQBRO4qLizF9+nRMnToVFRUVyMjg/120+uc//4lrrrlGdAwi+hoLACItcnJyMHnyZEybNg3Tpk1D3759RUdKGqNHj+ZQAFHiYAFAFClZljFu3DhMnToVM2bM4BK47fj0009RUFAgOgYRhbAAINJLv379MG3aNFxwwQWYMGECunbtKjpSwpkzZw6efvpp0TGIiAUAUWykp6dj/PjxmDx5Mi688EIMGjRIdKSE4PV60bVrV5w6dUp0FCKjYwFAFGvvvvsuZs6cKTpGwnj11Vdx7bXXio5BZHQsAIhiacqUKVi+fLnoGAln1KhR2Lhxo+gYREbGAoAolrZu3Yri4mLRMRLOzp07OSxCJFYDlwImipHvfve7vPm3oqioiFsGEwnGHgCiGNm5cycKCwtFx0hYPp8P2dnZXCGQSAz2ABDFwhVXXMGbfzvMZjP+9Kc/iY5BZFjsASCKgd27d6N///6iYyQFrhBIJAR7AIj0ds011/Dmr8FLL70kOgKRIXE7YCKdLV26lBsGadClSxccPXqUjwUSxZeXPQBEOvrBD36AHj16iI6RdP7whz+waCKKMxYARDqRJAnz588XHSMpWa1WPP/886JjEBkKCwAinfzoRz9Cdna26BhJ6+qrr0ZZWZnoGESGwacAiHSgKAoOHz6Mzp07i46S1LhCIFHc8CkAIj3cc889vPnroKioCHfccYfoGESGwB4AoihZrVYcO3YM6enpoqOkBI/Hg5ycHNTX14uOQpTK2ANAFK2f/exnvPnryGq14tlnnxUdgyjlsQeAKAppaWk4fvw4rFYupaE3bhlMFFPsASCKxrx583jzjxGuEEgUW1wJkChCHTp0wFtvvQVZZh0dC9nZ2VwhkCh2uBIgUaTmzZsHk8kkOkZKe+KJJ7hCIFGMsAAgikCXLl1w1113iY6R8mw2G55++mnRMYhSEgsAogj87ne/Y9d/nFx//fUYOXKk6BhEKYdPARBpNHbsWKxZs0Z0DEPZtWsXioqKRMcgSiV8CoBIqwEDBqChoUF0DEMpLCzED3/4Q9ExiFIKewCIIpCVlYUrr7wSt9xyC0aPHi06jiG43W7k5OSw+CLSRwMfAySKgMfjQXV1NV544QWsWbMGVqsVgwcPhiRJoqOlLJPJhF69euFf//qX6ChEqcDLHgAineTl5eH666/Hddddh/79+4uOk7JGjBiB6upq0TGIkl0DCwAinZlMJlx++eW49dZbMX36dNFxUs727dsxZMgQ0TGIkh2HAIj0FgwGsWPHDvzjH//Ae++9B1VVkZ+fzyWDdZKTk4MjR45g06ZNoqMQJTMOARDFQ3Z2Nq655hrccMMNGDZsmOg4Sc/r9SI7O5tbBhNFjj0ARPHgdDqxYcMGPP/881i7di0sFgu7saOgKApyc3M5IZAocuwBIBKloKAAN998M6677jr06NFDdJykxAmBRBHjJEAi0RwOB77//e/jhhtuwOTJk0XHSSq1tbUoLi4WHYMoGXEIgEg0n8+HmpoavPTSS3j33XcRCARQVFQEi8UiOlrCy8nJwaFDh1BVVSU6ClGy4RAAUSLq3r07brjhBtx4440oKCgQHSeheTwedOnSBY2NjaKjECUT9gAQJaLGxkasXr0aTz/9NGpqamCz2VBYWCg6VkIymUzo168f3n77baiqKjoOUbJgDwBRsigsLMSSJUu4ymArunfvjkOHDomOQZQsuBsgUbLYtWsXvvzyS9ExElJ1dTWOHj0qOgZRUmEBQJREbDab6AgJ6cUXX0QgEBAdgyipsAAgoqSmqioWLlwoOgZR0mEBQERJ7f3332f3P1EEWAAQUVJ7+eWXRUcgSkosAIgoablcLrz99tuiYxAlJRYARJS0Fi1ahKamJtExiJISCwAiSlr/+Mc/REcgSlosAIgoKZ08eRJLly4VHYMoabEAIKKk9Oabb8Lv94uOQZS0WAAQUVJi9z9RdFgAEFHSOXjwID7++GPRMYiSGgsAIko6r732mugIREmPBQARJR0u/kMUPRYARJRUPvnkE2zZskV0DKKkxwKAiJIKJ/8R6YMFABEllVdffVV0BKKUwAKAiJJGZWUl9uzZIzoGUUpgAUBESeOVV14RHYEoZbAAIKKksXDhQtERiFIGCwAiSgrLly/HoUOHRMcgShksAIgoKXD2P5G+WAAQUcLz+Xx46623RMcgSiksAIgo4S1evBj19fWiYxClFBYARJTwFixYIDoCUcphAUBECe306dNYsmSJ6BhEKYcFABEltDfffBM+n090DKKUwwKAiBIaF/8hig0WAESUsA4ePIgPP/xQdAyilMQCgIgSFlf+I4odFgBElLDY/U8UOywAiCgh1dXVYdOmTaJjEKUsFgBElJBeffVV0RGIUhoLAKIkoiiK6Ahxw+5/othiAUCURHJyckRHiIstW7bg008/FR2DKKUpAH4OwCo6CBG177PPPkNTUxOysrLQqVMn0XFi5rHHHsO6detExyBKZV4JQD2ADNFJiEibsrIyTJkyBZMnT8b48ePhcDhER9JNjx498NVXX4mOQZTKGlgAEKWAnJwcVFRUYMaMGZgwYQIKCwtFR4rYihUrMHnyZNExiFIdCwCiVDR8+HBMmTIF06ZNQ3l5OTIzM0VHCtutt96Kv/71r6JjEKU6FgBEqS4nJwdjx47FtGnTMGnSJAwePFh0pFb5fD7k5OTg1KlToqMQpToWAERGU1paikmTJmHq1KmYMGFCQvUO/Pvf/8Zll10mOgaREbAAIDKyDh06YOLEiZgyZQomTZqEkpISoXmuvPJKvP7660IzEBkECwAi+lpJScmZ3oGxY8eiS5cucbt2U1MTsrOz4XK54nZNIgNjAUBE55eVlYVx48Zh6tSpmDJlCkpLS2N6vZdffhnXX399TK9BRGewACCi8BQVFWHSpEmYPn06xo8fj86dO+t6/unTp2PZsmW6npOIWsUCgIi0y8jIQEVFBSZPnoypU6di+PDhUZ3v6NGjhlnmmChBsAAgoujl5+djypQpmDJlCioqKtC9e3dNxz/99NOYM2dOjNIR0XmwACAifdntdowbNw7Tpk3D5MmTUVZWBkmS2jxm9OjRqKysjFNCIgILACKKtby8PEyePBnTpk3DhAkTvtU7sHv3bgwYMEBQOiLDYgFARPHjcDgwZsyYM8sUjx49Go888gh+9rOfiY5GZDQsAIhInJKSEhw4cADHjx8XHYXIaFgAEBERGVCDLDoBERERxR8LACIiIgNiAUBERGRALACIiIgMiAUAERGRAbEAICIiMiAWAERERAbEAoCIiMiAWAAQEREZEAsAIiIiA2IBQEREZEAsAIiIiAyIBQAREZEBsQAgIiIyIBYAREREBsQCgIiIyIBYABARERkQCwAiIiIDYgFARERkQCwAiIiIDIgFABERkQGxACAiIjIgFgBEREQGxAKAiIjIgFgAEBERGRALACIiIgNiAUBERGRALACIiIgMiAUAERGRAbEAICIiMiAWAERERAbEAoCIiMiAWAAQEREZEAsAIiIiA2IBQEREZEAsAIiIiAyIBQAREZEBsQAgIiIyIBYAREREBsQCgIiIyIBYABARERkQCwAiIiIDYgFARERkQCwAiIiIDIgFABERkQGxACAiIjIgFgBEREQGJAOQRIcgIiKiuJJkAKroFERERBRXqgzAJzoFERERxZVPBtAkOgURERHFVZMM4KToFERERBRXJ2UAx0WnICIiorg6LgPYLzoFERERxdV+GcAXolMQERFRXH0hA9guOgURERHF1XYWAERERMazXQKgIDQPoJvgMERERBR7hwDkygACADYKDkNERETxsRFAoGUzoBUCgxAREVH8rAC+3g1wqbgcREREFEdLgXN3AtwJoFBMFiIiIoqDXQCKgK97AADgdTFZiIiIKE7eaPkvZ/cA5AP4JP5ZiIiIKE4KAHwKnNsD8CmA1ULiEBERUaytRvPNHzi3AACAx+KbhYiIiOLknHu8dJ4X7APQKz5ZiIiIKA6+BND77B98swcAAH4VnyxEREQUJ9+6t5+vBwAI7RDYu5U/IyIiouSxD0Cfb/7wfD0AADAntlmIiIgoTs57T2+tBwAA1gAYG5ssREREFAdrAYw73x+0VQDkAaiLSRwiIiKKhwEAdp/vD5Q2DjoJwA1gWiwSERERUUz9DMA7rf1hWz0ALdYDGK1bHCIiIoq1DQDGtPWCcAqArgD2ArDrkYiIiIhiygWgH4DDbb2otacAznYYwKV6JCIiIqKYuxTt3PyBtucAnG0PQnMCZkaTiIiIiGLqbgD/DOeF4RYAQGg8IQN8NJCIiCgRPQHgoXBfrKUAAID3EdonYLjG44iIiCh2/grgTi0HaC0AAGARgFywCCAiIkoELwD4gdaDIikAgNBzhZkAyiM8noiIiKL3B2j85t8i0gIACA0HcGIgERGRGHdDw5j/N4WzDkB7LgTwCoAsHc5FREREbTsN4FoAS6I5STjrALRnCYBSAB/pcC4iIiJq3UcI3XOjuvkD0Q0BnO0UgJcAeMC9A4iIiGLh5whN9julx8n0KgBarAbwFkI7CebpfG4iIiIjeh/A5QjdX3WjxxDAN20DMAPALAC1MTg/ERGREdQidC+dgdC9VVd6TAJsz+0AfgigJA7XIiIiSnZbATwL4LlYXiQeBUCL7wO4DcDUOF6TiIgoWSwH8DyA1+NxsXgWAC2GA7gCwCUAigVcn4iIKFFsQ2iF3bcAVMfzwiIKgLMNRahHoALACAC9xcYhIiKKqX0AqgCsAfABgBpRQUQXAGeTEXq2sX/zf/YG0ANANoCOABwAzEiszERERC1UAD4AToRWyj0K4CBCN/0tAPY0/2dQTLxz/X+N5RsIaLBDAgAAAABJRU5ErkJggg==;" vertex="1" parent="1">
          <mxGeometry x="957.32" y="2.6800000000000006" width="34.63" height="34.63" as="geometry" />
        </mxCell>
        <mxCell id="Vvl3bCppwr_YXA1-rBzf-42" value="JWT&lt;br&gt;" style="text;strokeColor=none;align=center;fillColor=none;html=1;verticalAlign=middle;whiteSpace=wrap;rounded=0;" vertex="1" parent="1">
          <mxGeometry x="944.63" y="50" width="60" height="30" as="geometry" />
        </mxCell>
        <mxCell id="Vvl3bCppwr_YXA1-rBzf-43" value="" style="shape=image;verticalLabelPosition=bottom;labelBackgroundColor=default;verticalAlign=top;aspect=fixed;imageAspect=0;image=data:image/png,iVBORw0KGgoAAAANSUhEUgAAASwAAAEHCAYAAAAUFnuAAAA0cklEQVR42u29Z5Rc13Wg+91YOXSO6ICcGiCABkmQBAmSIqksUjYpShpKDiN7ZGk09htb9nv2rHl+fu/N2JatsWTZkixRtiQGUaJkiUHMJIhMEhkgQuccqqpDVVeuund+VLNJEIEIDbC7sL+1sEBpNbrq7nPud/fZJ1zFtm0bQRCEeYAqIRAEQYQlCIIgwhIEQYQlCIIgwhIEQRBhCYIgwhIEQRBhCYIgiLAEQRBhCYIgiLAEQRBEWIIgiLAEQRBEWIIgCCIsQRBEWIIgCCIsQRAEEZYgCCIsQRAEEZYgCIIISxAEEZYgCIIISxAEQYQlCIIISxAEQYQlCIIwjS4hEC4UOxfDSo1gZUJY6Qh2dgw7O4Gdi2HnEtj5JFgZbDsLtgXYoKgoig6qiaI6UXQ3aF5Uw49iBFHMUlSzHNVZjeqolCALIizhvHQEtj39t4WVHiE/1U4+0Uk+0YOV6MXKjoOVxbZzYOfBzhXEZOex3xKUbb39+2ZQQFEKib2iokz/jaKBoqOoeuFv3Y3makB1N6K5m9E8i1FddSia8x2/Q5GmugpRbNu2JQxXfcqEbWXAymClhshF3yQfPUoudhQrNQy2hU1+WkrWuyR0uXqmCmgoyrTcjACaZxG6byVaoAXNu6SQqakmqIYITIQlFLWjrExhCJcdJx/vIjexj9zEAaxkb0FecxzVUYEeuAY9uB7dtwLFUY6i+1BU57TsBBGWMO+He3Z2Ais1Qm7qZEFSkwewkgPzuxMbAfRAC3qgIC/VWYPqqADVlCYXYQnzTlP5JFZqCCvRTW7yINnxveSnTl6Zod0Vz7yqCvIKbkDzLkVzN6IYAekEIixhzosqN0V+6iS56GFyEwfJRQ9jZyeLUlSn92wd3bcMPbAOvWQ9mncpqqNKOoUIS5iLoirUpPaSmzxIPt6FnU9cpT1cQ3PVo/lXowc3YATXo7pqkSK9CEt4v0VlZcmN7SAT2ko+dpR8cgDmQQH9SolLNcvRfMsxSq/DKL95er2XiEuEJVxxchN7SQ8/RX7yIPnkYGFtlHCGHq+iGqWo3sWY5Vswq+5C0b0SFxGWcCXIT7WRHvoVubHd5FODklFdgLgUI4juXYaj7jcwym+RmIiwhMsy9LPzZKMdTHX9Aiu6G80OTYtKmvKihopGAKN8M47ae9G8i0CRDSAiLGEWTGWRT4WZ6n+FsaMPkZ6KoGl5PL48Tpct6yUvVVyOChx192JW3YlqloFiSFxEWMJFuSqXJBU5zPibPyQ2sA/LervZVBXcPguXx0LTJFaXNlI00P1rcNR/Cr1kA4ruQwrzIizhAsglBon37yB8+Htk4tEzN6QCLo+Fx2ej6dKkl4rqrMGs/ghmxe1o7sbp/YqCCEs4R1plk4ocYrL9F0x2vUQ+m33Pf+Jy27h9FoYpzXrp1jIxSjbiqL0HvXRTYaO18L4i1cU5ipWZID60h/HjPyEROolt5c/r36WSCpat4vFZmA6R1iU2AtnIDqzUMI70KEbFbYXaliAZlvA22VgP0a6nmOx4jszUKBfaRIoChsOekZYiJZhZSLZKMSpuxVF/P5q7SQIiwhIA0mPHGD/2Y2IDr5NLxS6+YRXQDRuP38LhFGnNys2iOtDLNuFc8Fn0wDUSEBHW1YttW6TChwgf+CcSoRNYuVlYAKqAIdKa5VTLQPe34Gz4HEbZjRIPEdZVKCsrS2JwJ6P7vkU6OoBtWbP6+3XDxhcoSEtm6GfjrtHRPAtxLvgsZuXtoDokJiKsq0RWuSTR7qcY3fcv00PAy9Mcum7jC1qYkmnN1vgQ1VGJo+5eHDUfQzGCyNNAhFXUWNkpJtt+yuiBH2Dlspf98zTdxl9i4XBIpjV7yZYHR+0ncdTdh+qsRN6cJ8IqSvLpcSbbfkb48MPks6kr9rm6YRMosTBkycPsoZo4au/BWf9pOWvrcodaQvA+yCo1xuTJnxJ+86dXVFYAuaxCLKqSy8lNNXupcob0wOOk+n5ceMuQbEIXYRVTZhXt+CVjJ35J/hKWLVwKmZRCPKqSz0t7zBp2jvTgv5PufxQrMy7xEGEVwYM4GyPW8xxjJ39JNjH2vn6XVFIhOaUiBYHLIK2Bn2HnpiQeIqx53JfzaeID2xk//jMysZH3//tYkIyrpBIyNJzddk6QGfwFmeEn5TBFEdZ87cU2ydAhIkcfIj05d94BmM9DYkolnRJpzWomnRkjPfAzMqEXJRgirPlHeqKN8KHvkBrrZK5NyuayCsm4Sl6K8LOpLPLJflL9j5KN7JRwiLDmD7n4IJFD3yIxepy5uILEtiGdUkjGFWxL2msWx4bkYydJ9z1ELnpE4iHCmgfP2fQEY0e/T7Rv73kfD/O+3FsWJOIKqaQiRfhZDWyO7MReUr0/Ip/olniIsOZwX7VyxHp+zdiJp+e0rGbkmldITKlkMzI0nPVMa/Ig+eibSAorwpqzpMfeJHTwwXmVsWQzhaGhrM+aPRTdh1n9EfTS65C3hIiw5uaNP9VHaO/Xyabi8+67p5IqmZQMDWdHVl7Mqjtx1P6GnFQqwpqjI4Bcgonjj5CIdDEf73rbKix1yGVlaHhJstLcmNMnlBb2FwoirDnIVN/LRHu2Y+XS8zdDnB4aSpZ1sbJyYVZ9EMeC/yDHKc8y8hKKWSQ9dpTxtl+STUTm/bWkEioOl1049E+4oGGgo+5eHLV3ozolsxJhzVGsXJJo1/MkI23YRTAbZFmQiKmYjrwc+He+wxVXPc6GBzDKb0U1SyQgIqy5S3xgK7G+rVhX+LiYy0kmo5BKKLg8kmWdO60yMMs346i/D823CkVzSkxEWHP4xo52Eu1+kUxstKiu660CvMNpoWoirdNFpaK5m3HUfwqj7MbCTKCiSVxEWHP4ps5niA/sZmrgtaIYCr6bXE4hEVfw+kVY05ZCUU1UZxVm5Z2Y1R9BdVaDIreSCGvu64pU5DCTHU/Ozmu55miWlUooOJwKhnl1S0vRXKjOGozS6zFr7kbzNMstIMKaP1iZKeLD+0iNdxf1debzhX2GunEVvnFH0VCNElRnFVpgDY6qD6N5lyEzESKseZddpSc7iHY+SbG/x8O2Cscq51xXQ5aloGhOFLMc1VGJ5qpF861CD65HczfK9hoR1jzOrga2ky6yQvtZs6ycQjpVRFmWoqNobhTde+ofI4jqrEFzN6F5mlGddTLrN5eaTV7zdbHCihLrfZZsPHLVXLNugOmY58JSFBTFAM2FontQNA+K7psWlg/V8KPofsmkRFjFNyS0rbS80WleCkufFpLUoURYgiAIlwnJewVBEGEJgiCIsARBEGEJgiCIsARBEERYgiCIsARBEERYgiAIIixBEERYgiAIcws5reE8aB8c4ZFfPUN3b58EYxpXWTXV192Kwx+cI99IwaUplDk1yqf/VDh1at06qmwZFGFdTbyy63WeeORHTA71SzDe0oMnAOoC7Lolc0RXhT+qoqAqoCqgKQrVbp0bq5zcVO1mVYkDv6liqIpsexZhFSe5vMVA+0kmhoewMmkJyFtkRsmP9mNXNIE2l7rRqXv5x9J5jk2kefBElHqPzj1NXu5a4KXRq+PSVRHXPENqWO9B72iYvu4urHRCgvHurGawA+bBWfa2DXnbpmcqy/86Ms6Xd4zww7YoJyczZCw5rESEVUSc6Oqjs39QAnEmYQ13Qnb+vXyjI5rhbw9G+Mu9YZ7pizORsaQxZUhYHAwPDhAeHZFAnElYoz3zIsM6E3kbdo4kOTGZ4YHFfu5f5KfaLbeDZFjzmLxlER0dIjkekWCciWgYJREtjLnmKZFUnu8en+Dbxybom8pJm4qw5i+hiRj9A4PYmZQE44xGz0F4YF4LCyCRs/lpV4zvn5hgNJWXdhVhzU/6R0N09A9JIM41LAz3Fd4DNs+JZy1+1TPFo+1R4jmpaYmw5iHhyBgjI1K/OqewIgNFISyA8XSex7tiPNMXRyYPRVjz76k7OcnkmNSvzklkqGiEZQN98SyPdcbYF5YygAhrPnVeG9KxSdKTYxKMc2VY48NgFc8QyrJhbzjJ410xhpNShBdhzZfsKpUmFA5jp5MSjHORmIQii1HOgmf647wymJCFpSKs+cHEVJyekbAE4jxSUSVWfMPm8XSeX/fF6Y5lpY1FWHOfWDzBSFiGg+cXrPGivKzXQyn2hVOk85JlibDm+kgnmWJsYkICcR4ZFvHJ4uwDOYsXBxOyNkuENfdJp9PEYjEJxHmgJKNFe22vh1L0TmVlmYMIa26TzWZIxuMSiPdOsSA5VbRXN5HOcyCSIpWXxaQirDlMPpshk5IZwvPxFUV+9M6+cJpETlIsEdYcxsrlyKVl8eB5DQmLfK/l8Ym0FN5FWHM8cbDyWNmMBOJ8yBV3nIYTOdlfKMKa68KysPOy0vm8xoRFHqe8DWOpvBTeRVhz2ljYlkxnn9/4ufjjlBJbibDmeuIw3895uqKxKnLkZRUiLOmmgjhZEGHNjqsUUCU859eLij9OhryNVYQ1p32lqiiaJoE4nyxU1Yr9CgmYKoo4S4Q1d4WloeqmBOJ80Ir7bTMBh4rPkJeuirDmsrA0Hc10SCDOa7xU3HFa6DNxaqIrEdZcThoMA9PplECcx3jJNl1FfYlrSh24NLlVRFhzGN0wcLg9EojzMZbTXbz9QIFNVS7cumRYIqw5jMPhxOfzSyDOB1fxxmltuZPFfgNdZglFWHP6HnQ5KQkGJBDnge0pTmEZqsKddR6qXPIKexHWHMfrdlFZViKBeM8RoQKeYFFe2vKgyXWVLryG3CYirDlO0OdhQVW5BOK9jQW+0uJ7YBkqH17gZZHfkCYWYc19fC4n1eVloEuHPSeaju0prqGzqsDGCie31rrxSXYlwpoX96Gq4vIFMLxSxzoXtjcIRnEtsG30GtzdJNmVCGue4fIH8JSUSSDOOXauAqV4ulHAVPlwg5dbatyyf1CENb8oKSmhvKJCAnGuDKu0mmLZZGdqCjdVu7l/kY+gKftIRVjzjKryMhpqqiUQ56KstigyLFWBllIHX15VQr1bhoIirHnIwtpKVi5sKPrTCC4pw6pomPfC0hSFllIHf7m+nGUBU05lEGHN046sqngra3AEpY515gDpUL5gXp+H5dZVbqx28c0bqlhd6kDKVnMbWcL7HlTU1FJaUcXQ2KgE493ZVUk19jzdR6irCrVunTvqPPzByiBlTsmiRVhFwKLGBTTUVTN04rAE491UNcI8OzNMU6DSpXNNmYNPNvnYXOOWo2NEWEUkrNpqmhobeM0wseU9hadmWFXN82Zhra4qVLs0Wkqd3FLj4tZaN5UuXQ7lE2EVFy6HQWXTIlyBEhLhEQnIWygKdvXCOZ1h6YrCAq/OIr/JIr/ByhIH68sc1HkMqVWJsIqXa9ev48jtH6Svt1eC8VbHMR1UrFuFUT03dgIoFNZReXUVn1k40jhoqtR7DOo9OrVuHY9ss5n/z0nblpfvvRfJTIaeoVGm4kkJxjSqpuEtr0KfK9tylEJ9yqEpODUFh6rg0FTJpERYgiAI79ODUkIgCIIISxAEQYQlCIIISxAEQYQlCIIgwhIEQYQlCIIgwhIEQRBhCYIgwhIEQZhTyObniySaSfPr/i7GUqmr6wmnKFR7vPgdjnn5/RUUTFXFret4dAPP9N8uzUAFFEVBecffggirKMhYeXYN9vN427Gr6rrdDgd1paV4nY55fBXTMlIKpzwoKLg0jXqPj2aPn8X+AIu9QUocDhyqhqlqaHLQ+9xoOdn8fHHYwO7hAX73xaeIJBNXR2dRFCoDfqqCQTS1uKsJpqrR5PWxJljO6mAZ9W4vpaYTty7PeBHWPGU4EedrB/bw0LHDWFdBGJ2GQW1ZKQG3+6pqZ1VRWOwNckNlNWuD5dS5vfgMU4aMIqz5x6uDfXx1x0t0TY4XfXZV6vVSU1qCoV2dL2xQFYVal4cbK2pYX1rJQq8fn2HKTSDCmj9EUkm+dXgv3zt6gHQuV7TX6TB0akpKKPF6r/o211WVBW4v15VXs7GsikXeAE5N3rpzRWIvIbg0ypwuPtS4iNdHBnlteLBosyuXw4HX5ZIGB3KWRddUlKFknEPjYa4vr+amylqqnW5UKc6LsOY6q0sruKtxEe0T44yliu8YZUPTCLrdV+1Q8Gyk8nnenBxjIDHFm5Nj3FnTwMayKgxVljdetmG5hODScek69yxcyo219UU3e6YoCm6HA/9VVmi/ECazGV6LjPD9jqM82nOSRD4nQRFhzW1qPT7uW7KSZn+wuFJwTaPM5yv6ZQyXimXbDCTi/LKvk388cZBQWl5YIsKay5kIsKWugY8uXELA4SiOa1IU/C4XPpdTGvg8mcpl2TY6yN+9uZ/22ORVsdxFhDVPMVWNP1q7kc11DUVRxzA0jepgAEUKyRdE1rI4NBHmWycPcWxynLxIS4Q1V3FqOn+47joWl5Qxn3ejKYpCecCPaRjSqBc5RDw+Oc4Pu45xMirSEmHNYVpKyvm91esJOufvUMptmpTKmqtLwsbmyESEx3ra6IlHkSWPIqw5y32LlnHf0pXo6vxbCqBrGpXBALoU2i+ZvG1zaCLCmxNj5BFhibDm6k2vqnxx9Tq2LGicVzUgRVEo8XrwulxSu5olFri9NHh8aLL7UIQ1l6l0ufnSmg2sraiaP0NBh4NSr1eyq1mi1uXhw3VNLPWXyANAhDW30RSV9eVV/KeW9TQHSub89zU0jXKfD6cpG3png1KHkw/VNbKpvEb2Goqw5gdOTeeO+ma+sHod5W7PnB4KBr1e/G6X7IebBby6we1V9dxZ04hPZlpFWPOq8xoG9y1ezu+uWovXnJuLSr1OJ6VeD7pkApeMqWrcVFnLvY1LCMjxMyKs+YjPMPnCymv43VVr8c0xaTlNk3K/D1eRrNB/P9FVlU3l1fzu4lX4RVYirPkurS+1bOAzy1bPGWm9tVcw4HbLHNalxlJR2VBSyReXtuDTZRgowioCAqaDr6xt5ZOLl+N9n4vbqqoS9Hgo9XllBusSMVSVa0rK+cKSVQRMyVQv20NBQnDlKXe6+D+uuRbLtni8/TiJbPaKfwdFUfA5nVQG/LKE4RJxaBrrSip4oHk5tS6PZKoirOKj2u3hT9ZfD4rCYyfeJH2Fz1BymSZVwQAOmcG6JNy6zsayKu5tWEKT1y8zrCKs4qXK5eGPr7kOh6rx4+NHSOWuTKZl6jpVwSAepxwbcyn4DIObKmr5xIKFNLh9IqsrMTKQl1C8v9hAKJngwTcP8uCxg0xe5jdJa6pKbWkJZT6f1K0ugaDp4Pbqej5a10y1DANFWFcb4+kUP2k/xneP7GcgFr0sn6GqCtXBIOV+v5wgegmUmk4+WtfEnbUNlDvkxRwirKuUWDbDc31d/PPhvRwJh2b1OBJVUagMBqjw+2Vx6KXIyuHks03L2FxZK+usRFhCOp/nYGSUbxx8na39PWTy+VmRVUUgQEXAL2++udgbRVFY7Avw2wtXsipQikPiKMISCli2TTST4Z+O7uPRE0cJJeIXfTa4pqpU+P1UBCSzulgcmsaNFbX87qKVlJgOKa6LsISz8URvB98+tJfD4dELfrO0oWmUB/xUSM3qojBUlaDp4GN1zXysvhmXJpPqIizhPemKRfn6wdd4qbeLcDJxXrUtU9cp9/ukwH6R+AyDlmA5H6lrpiVYiqlKdirCEs6bVD7Pv544zBOdJzkSHiV1jmzLYRhU+P2U+byoIqsLzqpqXR5uqKjhrppGql3yAlkRlnBRZC2Lg5FRftZ+nBf7uuk/w3vvnKZBZSBAidcrtZYLuREAv2GyoayKLVV1rAqU4pENzCIs4dIJp5JsHezjia42dgz2Ek2nAXA7TKqCwcLJCyKr80ZTFFqC5dxQUcPGskpqXB4JighLmE1ytkVndJKX+3v4eedxeuMxSrw+fC6nyOoCqHN7uamihpsqa2ny+IviBbgiLGHOEs9laZ8c5/BEhD1jo3RMyevRz4dyh4try6vYXFHLIl9AFoGKsIQrSTKfI5RKsj00yEvD/fQnpiQoZ6DEdHBtWRW3VNXT7PUTMEyp9YmwhPeLVD5HOJ1iZ2iIraMD9EzFyNs29lX8Ek9NUSgxndxQUc3NlXU0ef24NB1NRCXCEt5/bMCyLSYzGfaPh3hppJ+O2CTJXI6MdXW8f1hXVJyaRpnTxe1V9WyqqKHa6UZXFRQ5W0GEJcxdcrbFyegEO0NDHJoIE06liOYy5Cyr6DIpt6bjM00WeQPcUFEj7wQUYQnzmdF0koNjYQ6Mh+iNxxjLpIhmM2TnqbxURcGrG5SYDmpcHlYESllbUs4ib0Bm/ERYQjFlXd1TUU5GJ2ifmmQwMUUonSKSTpKahRMiLrekykwn5U4X1U43C70BlvoDLPQG8MlsnwhLKG7S+TzDqQR9iRj9iSkGE3FGU0lGUwnC6RQZ6/0VmK6oBEyTcoeLCqeTGpeHBW4fDR4fdS6vvFlZhCVczUxm04RSKUZTCULpJKOpJOF0krF0irFMmolMmmQ+d1nWe5nTJySUmE7KHIU/lQ4X5U4X5Q4X5Q4nlU63zPCJsAThdGzbJp7PEctmiOWyxLNZ4rkssVyWqVyGqWyWeC5HMp8llc+TsfJkLIucZWNhT0vNRlEUVBR0RcFQNUxVxaFpuDQdt67j0Q28uoHPMPFO/7fXMPEZhf/WFalHCSIs4SLJ2zZZyyJr5claFjnbImfb5O2CpCy7sPLrrfVfCqCgoCqFGpSKiq4qaIqKoSoYioahqlIoF0RYgiAUB/I4EwRBhCUIgiDCEgRBhCUIgiDCEgRBEGEJgiDCEgRBEGEJgiCIsARBEGEJgiCIsARBEERYgiCIsARBEERYgiAIIixBEERYgiAIIixBEAQRliAIIixBEAQRliAIgghLEAQRliAIgghLEAThNHQJwflh2zbZbBbbtlEVBcM0JSjCFe+DuVwOy7JQVRVd11EURYQlnM5ULMbTTz/N6OgoVVVV3PepTxXV9SWTSUKjoySTSbw+H1VVVei6dI+5RCQSYef27fT09tLY2MjmzZspKS0VYQmnMzk5yaMPPczhw4dZs3ZN0QlroL+fx37yE9rb2lm/YT0PfO5zBIJBafg5RDgU4hc//znbXt3GzbfcwqpVq0RYQvFkTF2dXYyPj1FWVk5jUyMul+vsQo5GObB/P/v27sPhdJDOZCSIwpxDiu7F+jQOh3nk4Yf5f/+fv+Lxn/2UsUhEgiJIhiXMTTKZDIMD/bSdPMnCRYvIZLPn/PllS5fyl3/1V8RiU5SUllBSUiJBFERYwtzE6/OxfMWKmf99tc0+CSIsYZ4hkhJEWHOMXDZHMpUkmUySy+UwDQOny4XT6bykaXzbtsnn8mQyGTLZTOHvdIZMJl1YvwWYponT6SQYDOJyud5TEKlUimg0SiqVIjNdBDcM45Q/pmnicDjQNA2AdDpNMpkkFo2SzeYAyGYzxKJRJiYm3pYTYJgmbrd7+meyxONxctkspsOB1+tFVc9c4rQsi0QiQTKZJJVKkU6lUTUV0zAwTBPDMHC7XDicztOuMZfLEY1GScTjZDJZLCuPpuunXpNh4nA6MAzjnPHJ5/OF75BMkslm0XUdp9OJy+U65xol27bJZbOFNspkyWTS0/+dIZvNoSgKpsPE7XIRLCnB4XCc9fPjU1NkMhlM0yzEbLodbNsutN9kFIfTQfAMM66pVIpEPE4qlSKVTmNbFrpuYJiFdjUNA5/Ph6KevdRsWRbpVIpkKkUqmSSby2EYBk6nE4/bg+kwi+pBdNUIK5PJ0N7eTtvJk/T19tLb20ssFqO0tJT6+noaGhtZsWIljU2NMzf/hTA1NcW+vftoO3mSSCRCOBwmHAoRCoUYHx/HtizKysupr6/nuk3Xc9vtt1NXV3fGz8pms/R0d/P6a6+zb+9eBgYHiIQjKECwpFBfCgaDBEtKKC8v45Ytt7Jw4UIUVeHwoUO89OKLTIxP0NfXC0BXRyePPvIowWBg5jM0TWfV6lV88EMfAmBwcJBnnn6a3p4eVq5axcfvvhufz3fad4tGoxx78xgH9u+nu7ubgf5+RoaHMR0OysrKKC0rpbS0jBtvupHrN22amZm0bZtwKMTevXt5bc8eOjs6iUQipFMpPB7PzHWVlJZQVlbGihUr2XLbrWe82SzLoqe7m2PHjtHb00tfXy9jY+P4fD7q6+tY0NDAsmXLWLR48RllEwqF2Ld3Lz3d3UTCEULT7RSJhJmYmETTNCorKmhsbuKmzZu5ZcsWysrKTvsukUiEZ379a04cO8ay5cv5+N134/f7GRkZobenhxPHj3PgwEGu33T9KctgbNums7OT13bv4eTJkwwODjA0NEQmnSEQCFBaWkpZeRnl5RV84fe+gMfrPe0a0uk07e3tdHd3T/fnPgb6+5icmKSktJS6ujqWLlvGho2tNDQ0vKf8RVhziHQ6zTO//jWPPPQw+/buRVVV3G43uq4Xnm6pFJqmcfMtt3D/pz/NzVtuuWBpjY6M8IPvf5/t27ahaRq6rqMbBoauo+s6+Xye9rY2jr35Jlu3bqWjvZ2v/OEfUlFRcVoGcmD/fv7lO99h546dpFIpFEXB4XSiaxq9vb0zK+7fwuPx0tCwAE3XOXzoMN/99ndO+Z1dXV10dXWd8v+ZDpNP3H33jLDC4TAvvvAC+/bu44677uSOu+46TVhjkQhPP/UUP/7Rj+ns6JhZce1wONB0nc6ODrLZLJZlgW2zbt26GWGNRSJ89zvf5WePPUYsFgNFmc6mDCzLIpPJkM/nZz5r0w2b2HLrFniXJCzLYtfOXTz0ox/y8ksvY1kWLrcb0zRmsksFhWvWreM377uXj37sY6ct52g72cY/fuObnDh+/B1tpWPoBpqmkUynefPNNzl06BBbX36F0OgoD3z+83g8nlPlPRll29ZXefmll9hy6620rFnL0OAg2159lV27dtHf14eu6zQ1NZ3y7w7s3893v/0dXnzxRax8HuWtWJgmgwMDZDIZcrkcuq7zwOc/d0Zh9fT08M1/+AY93d0kk0kAVFVFUZSZODqdTm6+5Ra+/JWvsHz5spnsT4Q1x9mxbTt//7WvERoN0bJmDRuv3UhlVRWmYTA1NUV7ezvbt23n5ZdeYnBggGBJCevWr7ugzwgEg2y57VYWL1mM2+3GNB2YDhOHaWIYJvl8jr6+PnZs3057WztP/OpXbLrhBu68665ThqK9PT38+Ic/ZNur29B1ndbWVpavXElFZQUO0ySZTJJIJJiKTRGLxYjGotTW1aJqGoqisHjJYu7+5CeZisU4fPgQI8MjVFZWsrqlBX/g7QzL0HXWb9hw/kPpXI7du3fz4Pe/T29PL4FAgHXr17Fk6VL8/gCGYZBKp0gmkiQScda3tuJwOmcyip///Oc8/NBD5HM5Fi1axNprrqG2rg63200unyOVTDI1FScanSQWjbFw0aIzDoUOHzrM33/taxw9coTmhc1suuFGamtrcTqdJJIJert72LFjB/v37aO3t4dAIMCdd911yu+oqanhQx/+MDfceCMulwuHwywMwUwHuqGTSafpaO9g26uvMjAwwCMPPczmm29m5apVZx1eDQ4M8OD3vsfrr71GOBwuZGlVlTQ1NbFw4cK3pT82xj//0z+x9eVX0FSVlStXsvaaaygvL8PpdGJZ1kwbp1LpmSH7uxkeGiKVStHY1EhVVTXV1dWUlJZi2zZDQ4McOniQ3p5enn/uORYvWUz9gnr8fr8Ia64zOTnJvz74IKHRENdefx1/8KUvs2btGpzTNxPAyPAwq1au4n99/et0dnby2KOPsGLFcpznWGj5bkpKSrj3vvvQdR3TPHPdID41RVNTM9/99rfp7+/n2WeeYfPNN89kMrlcjn379rF923ay2Sy33X47D3z+c7SsWXPK0z2fz5NIJIjFYsRiMaqqqtCmhdW6cSPLV6ygp7ubf/j61xkZHqGpuZnf+p3fZsnSpacU2J1nqc2cMYMcHeXVV7bS39dPMBjk05/9DB/7+CdYuGjhKcK1LIt0Ol3ICqd/fygU4vHHfkomnaaxqZGv/NEfcu1111FWVnZKnSyVShGLRonFYmfMcFPJJI88/DDHjx9n0eJF/Mmf/ikbN248JQMZHxtjQ2srf/93f8fI8DA/+rcfct311xN4h6wbGhr4rd/+LUzH2etkY2NjBEuCPPLQwwwMDLBzxw6WLlt21p/v7Oykra0Nh8PB9Zs20bqxlYWLFrGgoeGUDGvrK69w6MBBAG648Ub+4+//Hi0tLXjflUVls1mSyeQp/fSdNC9cyG/eey8rV6+iqrKKqqpK/IEAlmURDoV46aWX+LcHf0B7ezuvvPwK9953nwhrfmRX2zh27Bgej4ff/p3f4drrrj3tZ6qqq7n3/k/x7LPPsveNN9i3bz9HjhyldWPreX+OpmmnDRnejcfr5eYtt/DC88/T39/PoYMHZ4rpbw1dBwcGmZycxOVy8YE776C1tRX9XTeJpmn4fL4z1phcLhcul4toNIo5vUHbNE1KSktPG35eCF2dnezZvRvLsli/YT1333MPixYvPu3nVFU9bQjW19dHJBJB13VWt7TwgTvuOGNtyel04nQ6qaisPON3OHjwIPv2vkE+l+PTn/kst2zZctqDoaS0lA9/9CPs2rmTJ554ghPHj7N71y7u+uAH3+70ho5ueM95vaWlpWy59VZe3bqViYkJ9u/bzwOfz59VWJqmccONN3LHXXfSsmYNzc3Np/WHZDLJiy+8yMTEBE6nk8/91m+xadOmM/6+tyYgzkb9gnpuv+MDLH5XG2iaRlV1NR/60Ic4sG8/HR0ddLS3Mzg4RF19/VknUuYLRb3S3bIsnnvueeLxOEuWLuW6668/6896p2WiKArhcJjXX3vtsnynioqKmSddNBor1HvekTllpwVmY+N2u9HmwAbkZDJJ28k2BgcHUVWVDa2t1NbVnX8NMZnCtu1C1jU9q3kxbN+2jdGRUcorKrjjzjvOOjxzOBxsufVWXE4n8Xicba++elGfV1lVNZP5jI+Pn9JW76axqYkv/P7v8xu/+ZusXr36jA+vzo4Oerq7yOVy1NTUsPHajRfdJgoKynuUKBqbm/B4PIUCfdtJcrncvL+ni1pYoyMjdHV2FrKC9evPml6/xdq1a1EUhfjUFJ2dHZcn4NOF0UKnO/1G803LLJ1K88LzLzA0NPS+x3EqNkVnZyf5fJ7SsjIaGhrfM5anZCtlZaiaRjab5cjhI7zx+usX/B1isRgnT5wkHo/TsqblPTdmt6xpwXQ4yGQydLS1zzwILryt1Jk63DmzZ4+H2tramaz2THR0dDA5GQVgVUvLOfd2XiqKolBdXY0/UOhPfb19p0xqyJBwDtLb28fU1NT007KSVCp1zp/3+/0oikIulyORSFx0VpfL5QrrjSYnGRkZIRKJEIlEGItECI2GOHzo0Eyneqe0TNNkxYoVLFmyhLa2Np5+8kn2vvE6q1e30HrtRjZs2EBDYyOGYaDr+kzd6nKTSiUJj44CUFZWRjAYvKDPXbxkMatbVrP91W20t7fzlS9/maVLl7Fu/TrWrVvPsuXL8ft9aNMzqmcatgwPDxeWh9g2VVXVpwylzzb8VlUF27ZJplLEEwmC75JJPp8nl8uRzWYZHxtjNBRiLBIhEi60V19vL52dnWd8uFwModFRUtMzek3NTZe93QJ+Py5XoWg/MTmBfY4MUYQ1B4jFouRyhWn2X/3ylxycLnaejWg0Sn56mllVLiz5tG2bifFxjhw5wp7de9i1cyfHjx075ammqiradKZxtqdi68ZW7rv/U/zwX/+NUChEX28ffb19PPvMM4WZp8pKNrS2svHaa1lzzVoaGhrweDyXVVyWZZGZHk6YhoFuXFi30XWdP/7qVxkcGGB4aJhwKExoNMTOHTtQVRWPx8OKlSvZeO1Grt+0iSVLlhIsCZ4irrcWaALs2rmD//4XE+esxxQeGNGZuL+zHmRZFqOjoxw8cIDdu3axc/sOent7Z7IoRVFmMuHMLJ5a8dbhewDuy5hdzdSz3iH/98oQRVhzAPsdHfTggYMcOnjovFJpwzBmhmbny1hkjH/8xjd4/PHHSSYSuD0eKisr8Xq9GKaJy+UkGCwhWBLk9T2vzTy5343L7eaz/+EBWtau5eknn+TI4cOMj08Qi0WJT8UZGBigv7+fX/77v1NRWcmn7r+fT3/2M1RVVp62Zmk2hxfaOzr+xXT+FStW8C8PPshTTzzJju3bCYdCTE1NFf7Ep9i9axe7d+3in7/1T9x511188Ut/wIqVK0+p2rxdC+qkq7Pr/G5aTcPlcp2yPKC3p4e//h//g1defoV8Po8/EGDBggU4XS5M08Tj8VBaWopl27y+Zw+j09nlbJYDrCuQ7di2DdNtpWv6ZesfIqzZazGwCzfc0mXLWLJkyXn9M8M0LmiGMJ/P88orL/Piiy+QiMdZtGgRW267jes3Xc/CRYsIBoN4vd6Z7Oqr//WPzyosKCzqbG1tpbW1lUgkQmdnJydPnKCzo4Penl6GBgcZHBwkNDrKv/7gB1RVVXH3J++5bDWRQr8vdHzrIoWlKAoLFizgP/3BF/nc5z9Hd3c37e3tdHV20t3dzeDAAIMDg4yMjPDC88+jair/91/+JcGZUyPe/szyigpaW1vPa3GvqqosX7F8RhSpVIonf/UEe3bvIZ/P07pxI7ds2UJrays1tTUEgkHcbjeKonDi+HH+YmBg1oRlWfY7HqJXIOOxi++WLmphmQ7HzDDsrg99kK/8l/9yWT5nYmKCvW+8wdDgEG6Ph//4e1/g43fffdGzYe+krKyMsrIyNm7ciG3bxGIxjh45ynPPPsvTTz5JJBLhuWef5cbNN9HQ0HB5OomuzchwaipGYroOc7G4PR5WrlrFylWrgMKao+7ubg7sK6zw7+zs5NCBg7zxxht84I47Cg8Rw5wR1JIlS/ibv/vaRQm6r6+Pffv2EY1GaWpq4k/+9KusveaaKzLd73K70KevIRwOI1xEllrMF1dRUYHpcGDbNqPDI5ftcyKRCKMjo9i2TWNjI+s2bJgVWZ0pS/H7/Wy6YRMPfP5zMyvVO9rbiU9PLrxzOJCfHnZYlnVJBVenyzWzNioSjhAOhWZ1xskwDJYsWcK9n7qPT9xzz3T9MUZnx9tZaGlpyYygRkdHL3pINToyMiOLa6+/nsampiu2NqmyonLmGk4cPy72EWGdSn19PcGSEmzb5ujRozN7rmab/PSsIBRmGo0rsHaqqrKS6ppqoLCx+903sAIzK3USicQlFY+9Xi/NC5vRNI14PM7JEyeZfMfJD7PJqtWrZySbzb79ncvKy6msqkTXdYYGBxno77+o35/L5chPt1XA77+oje4Xy8JFC2dqo+1tbQwNDomBRFhv4/P5WLOmBdM06e/vZ/eu3ZflcxwO58y6pLf2eF1uIpExwqFCpuDxek87Gsd0OGa2o0TCYaLR6MUPrU2TpqZm6uvrAdi9ayddXd2XZeapva1tehiq4/F4T/kOLS1r8Pv9pFIpnn7qqYvLFp3Omex3cHDwvEU+G1fa0NhIU1MThmEwGZ286GsQYRUxd971QbxeL9FolO98+9vs3LFz1m+0yqrKmW0Pg4OD7Nm9+zRp2bZNOBzmheeenzk5YWpqip6enlO+Tywapa+vsH7sbN8zHA7z77/4Ba/t2QPANddcc9pCykAgQGNTIwAjIyMce/PYzJq0ixmKNjc3s6G1MBHR3t7BN7/xD7y6detpN7xt2zOnJrwz6+vq6iISiZz1mizLYsf27fz0scemh4CltKxZc8rPbL55M5WVlViWxS9+/nMe/9nPyGayF3QtdfX1VNfWAPDanj10d3adlp3m83l6urt5+aWXGRkZmal9TU5OXlI/cTqd3LzlFvx+P5l0hocfeogfPPjgGc/btyyLWCx2RWYT5xNFv5dw7TVr2dDayvPPP8+B/fv58z/7M5oXLaSxoZHSslLy+cJhdIlEnEQ8QTwep6q6iv/6J39yyobZc+HxeLj22mt5detWujo7+dY3/5Ftr77KipWrSKWSjI6Mzpy3NDk5yeREoeNns1n++1/8Nz5xz9186v778QcCHDp0iG9985uMj43j9ngI+P34gwEC/gCWbTE0OMTQ0BDDQ0NEo1Hq6ur4yMc+Snl5+WnDuOXLl1NaWsrY2Bg/+P732bVrJ02NTeQti2QiQfPCZr70n//z+Q1Bq6u48aab2LFjByPDw+zZtZu2k21UVFZQUV6Bx+slFosyOT5BPJHgrg/exQOf/zxlZWUA/M//7/+nq6sLl9tVuKZAYOaUh4nxcQYHBxkeHmZkeBiP18vtd3yAljUtp3yHpuZmbrp5Mz29PQwNDvG1v/4bHv/pT2lqaqayqhJV1UgmEsQTiUKbxqcwDJOv/tmfUjedHdbU1LBx40b2vv4G4XCYP/vqV1m3fh0NDY2MjY8zOjpCaDTE+NgYExMThaNwKLxi64//8I+4+zc+yd333HPR50t94AMf4Oc/e5zx11+nv6+Pf/zGN3ns0Z9QXl5OMBjEsiwmJiaIRifJ5y3+5fvfm/nuwlUgLNM0+b/+21+Qy+XYtXMnwyMjDA0NsUvZOVNsVRQFlOn9WYrCylWrSCaTpwhLURQM08Bxhh3+iqJw85ZbaG9v4+GHHmZ8bIzt27azc+euwu+e3kenaRpVVVVcd931HD9+jP6+fjo6OvjJI49y62234Q8EiMfjDA0NEw6FTlnz9O7MRNN1Fi9ezO9/8YtsuuGG04aEqqrSsmYtt9/xAZ564kkmJyfZvXMXr+3eg6IWFsau37CBL36pcKaVqigYRmGfn6Ebpy1E1TSNO+66E1VTefB736Ozo5PJiQnGx8Y4YR8/dcuRohCJRE5ZIDs0OMjw0FBhAuCtaypc2Mz1qapKMBjkE3ffze9/8YunbXPRdZ0vfulLpDMZfvWLf2dycpJ9e/exf9/+twvn07sHFKXQlpVVVUzF46dcx8c/8Qk6Ozv59VNPMzg4yNDQ0CmFd0VR0HWdxqYmGhoaOHTwIKFQiP3795NKp/noxz6GYRioqjJziqxpmijqe69zCpaU8Nd/+zd87W/+tpChptP0dHfT3dU1s2B1pr8ZBonE23VXRVXRjbf74HstFlbUwnUYhjEn9qTOBopdLEtg34NUKsWLL7zA63teo63tJONj49iArmn4AwHKysupqKigsrKC5uZmbrr55lMWG0ajUZ568klGR0aoqqrm/s98+vTiez7Pnj17eOWll2lvO8nE+ASl5eVUVlawYEED16xfx+rVq/H5fAwNDvLMM89w9MgR0uk0/+ef/zm1tbVEIhGOHjnCQH8/oVCIcDhMKFQ4vdTGprKikuqaGlpaWrjxphuprKo653WPjY3xysuv8Ppre+jr7SWZSBIsCVJeUcHKVav4zGc/i2EYDA4Osv3VVxkcGmLx4sXcetttZz19IhwOc/TIETra2+nt6WVgoL8wk1hRSUVFBRWVFSxftpwlS5ficBbqRXv37qW7q4vQ6GhhpXs4RDgUJpVK4fP7qKyopKGxkTvuvINly5ef85osy2Lnjh1sfeUV2k62MTo6OiM8n89HWVkZ5RUVVFRUUF9fz5bbbj3tiOJUKsUrL7/Mzh076ezoIJVKUV5RTmVlJc3NC2ltbWXJ0qU4XU5OnjzJs79+hra2kzgdTv7n3/4NqqoyOTnJ3jfeYKC/n/KKCm7avPmMJ2iciXwux8GDBzlx4gR9Pb309/eTTqcpKS2ZiWNlVSU3bd48swE7HAqzfdurdPf00NTUxM233ELpOV6kevLECZ577jlCo6Ns2NDKBz/8oXPudRRhCYIgSNFdEAQRliAIgghLEARBhCUIgghLEARBhCUIgiDCEgRBhCUIgiDCEgRBEGEJgiDCEgRBEGEJgiCIsARBEGEJgiCIsARBEERYgiCIsARBEK4s/xtb3ac+i6+/LgAAAABJRU5ErkJggg==;" vertex="1" parent="1">
          <mxGeometry x="1073.71" y="-13.25" width="71.29" height="62.5" as="geometry" />
        </mxCell>
        <mxCell id="Vvl3bCppwr_YXA1-rBzf-44" value="Elastic search + kibana&lt;br&gt;" style="text;strokeColor=none;align=center;fillColor=none;html=1;verticalAlign=middle;whiteSpace=wrap;rounded=0;" vertex="1" parent="1">
          <mxGeometry x="1040" y="51.25" width="138.71" height="30" as="geometry" />
        </mxCell>
        <mxCell id="Vvl3bCppwr_YXA1-rBzf-47" value="" style="endArrow=none;html=1;rounded=0;" edge="1" parent="1">
          <mxGeometry width="50" height="50" relative="1" as="geometry">
            <mxPoint x="-25" y="4.999999999999927" as="sourcePoint" />
            <mxPoint x="65" y="5.42" as="targetPoint" />
          </mxGeometry>
        </mxCell>
      </root>
    </mxGraphModel>
  </diagram>
</mxfile>
